<svg width="250" height="173" viewBox="0 0 250 173" fill="none" xmlns="http://www.w3.org/2000/svg">
<path d="M200.798 41.8605C203.191 40.2658 205.783 38.8705 208.176 37.2758C210.569 35.6812 213.161 34.0864 215.554 32.093C212.563 32.2924 209.572 32.8904 206.581 33.6877C203.59 34.485 200.798 35.2824 198.006 36.4784C195.215 37.4751 192.423 38.8705 189.831 40.0665C187.239 41.4618 184.646 42.8571 182.054 44.6512C176.87 48.0399 172.284 52.0266 168.495 57.01C166.501 59.402 164.906 61.9934 163.709 64.9834C162.912 66.5781 162.513 68.3721 162.114 69.9668C162.513 65.9801 162.114 61.9934 161.316 58.0067C160.319 53.0233 158.724 48.2393 156.531 43.8539C154.337 39.2692 151.546 35.0831 148.156 31.2958C147.358 30.2991 146.361 29.5017 145.564 28.505C144.766 27.7077 143.57 26.9103 142.573 26.113C140.579 24.5183 138.186 23.3223 135.793 22.7242C136.192 23.3223 136.591 23.721 136.989 24.319C137.388 24.7177 137.787 25.3156 138.186 25.7143C138.784 26.711 139.582 27.7076 140.18 28.7043C140.778 29.701 141.376 30.6977 141.974 31.6943C142.573 32.691 143.171 33.6877 143.769 34.6844C145.962 38.6711 148.156 42.8572 150.15 47.0432C152.144 51.2293 154.138 55.4154 156.132 59.8007C158.126 64.1861 159.921 68.3722 161.915 73.1562C161.915 72.9569 161.915 72.7575 162.114 72.5581C162.114 72.9568 162.114 73.3555 162.114 73.9535C164.706 68.5715 168.694 64.5848 172.882 60.7974C177.069 57.01 181.655 53.8206 186.441 51.0299C188.834 49.6346 191.426 48.2393 193.819 46.8439C195.813 44.8506 198.405 43.4552 200.798 41.8605Z" fill="white"/>
<path d="M243.27 8.173C240.678 11.163 237.089 13.1565 233.499 14.3525C230.109 15.5485 226.321 16.3458 222.532 16.5451C218.544 16.7444 214.556 16.9438 210.568 16.9438C208.574 16.9438 206.381 16.9438 204.387 17.1431C202.193 17.1431 200.199 17.3425 198.006 17.5418C195.812 17.7411 193.619 18.1398 191.426 18.9372C189.232 19.5352 187.238 20.5318 185.244 21.5285C181.455 23.7212 178.065 26.5119 175.074 29.5019C172.083 32.6913 169.691 36.08 167.896 40.0667C167.098 42.06 166.5 44.0535 166.301 46.2462C166.102 48.4389 166.301 50.4322 167.098 52.4255C166.5 48.2395 167.896 44.2527 169.89 41.0634C171.884 37.6747 174.676 34.6846 177.667 32.0933C180.658 29.5019 184.048 27.3092 187.437 25.7145C189.232 24.9172 190.827 24.3192 192.622 23.9206C194.417 23.5219 196.411 23.3225 198.205 23.1232C201.994 22.9238 206.181 23.1232 210.169 23.3226C214.357 23.5219 218.544 23.7212 222.732 23.3226C227.118 23.1232 231.505 22.3258 235.892 20.7311C236.69 20.3324 237.288 20.1331 237.687 19.7344C236.69 22.5251 235.693 25.3159 234.496 27.9073L233.898 28.9039L233.3 30.0999L232.104 32.2927C231.306 33.688 230.508 35.0833 229.711 36.4787C228.115 39.2694 226.121 41.6614 223.928 43.6547C221.535 45.6481 218.943 47.4421 215.952 49.0368C213.16 50.6315 209.97 52.0269 206.979 53.2229C200.797 55.8143 194.217 57.4089 187.637 58.6049C194.417 59.0035 201.396 58.2063 208.175 56.4122C211.565 55.6149 214.756 54.4189 218.145 53.0235C219.741 52.4255 221.336 51.6282 222.931 50.8309C224.526 50.0335 226.121 49.0368 227.517 47.8408C230.508 45.6481 233.101 42.8574 235.095 39.8674C236.092 38.4721 237.088 36.8773 237.886 35.482L239.282 33.2894L239.88 32.0933L240.478 30.8973C242.074 27.7079 243.469 24.3192 244.666 21.1298C246.46 15.9471 247.856 10.7644 248.454 5.38237C248.654 4.38569 248.454 1.39561 249.053 0.598267C247.457 3.18963 245.463 5.78097 243.27 8.173Z" fill="white"/>
<path d="M124.627 39.0697C124.228 37.8737 123.829 36.4784 123.63 35.083C123.43 33.6877 123.231 32.2924 123.031 30.897C122.832 28.1063 122.832 25.1162 122.633 22.1262C122.433 17.5415 122.234 13.1561 121.835 8.57141C124.826 8.97008 128.016 9.56806 130.808 10.1661C135.195 10.9634 139.382 12.3588 143.37 13.9535C147.358 15.7475 151.147 18.1395 154.138 21.1295C157.328 24.1196 159.921 28.1063 161.317 32.4917C161.317 27.7076 159.522 22.9235 156.73 19.1362C153.939 15.1495 150.15 11.7608 145.763 9.3688C141.576 6.77743 136.989 5.18265 132.204 3.7873C127.618 2.59129 122.832 1.59461 118.246 0.797269L113.859 0L114.058 4.38541C114.258 10.3655 114.656 16.3455 115.255 22.3256C115.454 25.3156 115.653 28.3056 116.052 31.495C116.252 33.0897 116.451 34.6844 117.049 36.2791C117.448 37.8738 118.046 39.4684 118.645 41.0631C121.237 47.0432 125.624 52.2259 131.007 55.6146C136.391 59.0033 142.573 60.9966 148.754 60.5979C142.772 59.2026 137.588 56.4119 133.4 52.6245C129.412 49.0365 126.222 44.2525 124.627 39.0697Z" fill="white"/>
<path d="M137.189 49.0364C140.38 52.0265 144.368 54.2192 148.555 55.4152C147.558 53.2225 146.561 51.0298 145.564 49.0364C144.966 47.8404 144.368 46.4452 143.57 45.2491C139.981 43.4551 136.392 41.8604 133.201 40.8637C132.404 40.6644 131.606 40.465 130.809 40.0663C132.005 43.4551 134.198 46.4451 137.189 49.0364Z" fill="white"/>
<path d="M204.188 141.528C204.188 140.332 204.188 139.336 204.188 138.14C204.188 109.834 192.622 84.3189 173.878 65.7807C170.887 68.5714 168.096 71.7608 166.102 75.7475C165.304 77.5415 163.509 78.5381 161.515 78.5381C161.117 78.5381 160.718 78.5382 160.319 78.3388C158.126 77.9402 156.53 75.9468 156.331 73.7541C154.935 70.3654 153.539 67.176 152.343 64.3853C151.545 65.1827 150.349 65.7807 149.152 65.7807C148.554 65.7807 147.956 65.7807 147.358 65.7807C140.977 65.7807 134.197 63.7873 128.415 59.9999C122.233 56.0132 117.049 50.0332 114.058 43.2558C113.26 41.4618 112.662 39.4684 112.263 37.8737C112.064 37.4751 112.064 36.877 111.864 36.4784C108.674 36.0797 105.284 35.8804 102.094 35.8804C45.6629 35.8804 0 81.5282 0 137.94C0 193.754 44.6659 239.003 100.299 240V217.076C57.4276 216.08 22.9312 181.196 22.9312 138.14C22.9312 94.485 58.4246 59.2027 102.094 59.2027C145.763 59.2027 181.057 94.6843 181.057 138.14C181.057 138.538 181.057 139.136 181.057 139.535L191.824 128.97L204.188 141.528Z" fill="white"/>
<path d="M180.259 150.897C174.277 187.774 142.572 216.08 104.087 217.076V240C155.134 239.203 197.009 200.93 203.39 151.495L192.024 139.336L180.259 150.897Z" fill="white"/>
</svg>
