<svg width="195" height="221" viewBox="0 0 195 221" fill="none" xmlns="http://www.w3.org/2000/svg">
<path d="M223.388 46.5699C226.05 44.7958 228.934 43.2435 231.596 41.4694C234.258 39.6953 237.142 37.9212 239.804 35.7035C236.476 35.9253 233.149 36.5906 229.821 37.4776C226.493 38.3647 223.388 39.2517 220.282 40.5823C217.176 41.6911 214.071 43.2434 211.187 44.574C208.303 46.1263 205.419 47.6786 202.535 49.6745C196.768 53.4444 191.666 57.8796 187.451 63.4237C185.232 66.0848 183.458 68.9677 182.127 72.2941C181.239 74.0682 180.795 76.064 180.352 77.8381C180.795 73.4029 180.352 68.9677 179.465 64.5325C178.356 58.9884 176.581 53.6662 174.141 48.7875C171.7 43.687 168.595 39.03 164.823 34.8166C163.936 33.7078 162.827 32.8207 161.94 31.7119C161.052 30.8248 159.721 29.9378 158.612 29.0507C156.394 27.2766 153.732 25.946 151.07 25.2808C151.513 25.946 151.957 26.3897 152.401 27.055C152.844 27.4985 153.288 28.1637 153.732 28.6072C154.397 29.716 155.285 30.8248 155.95 31.9336C156.616 33.0424 157.281 34.1512 157.947 35.26C158.612 36.3688 159.278 37.4776 159.943 38.5864C162.383 43.0216 164.823 47.6786 167.042 52.3356C169.26 56.9926 171.478 61.6496 173.697 66.5284C175.915 71.4071 177.912 76.0641 180.13 81.3864C180.13 81.1646 180.13 80.9427 180.352 80.721C180.352 81.1645 180.352 81.608 180.352 82.2733C183.236 76.2858 187.672 71.8506 192.331 67.6372C196.989 63.4237 202.092 59.8755 207.416 56.7708C210.078 55.2185 212.962 53.6662 215.624 52.1139C217.842 49.8963 220.726 48.344 223.388 46.5699Z" fill="#F0F0F0"/>
<path d="M270.638 9.09241C267.754 12.4188 263.761 14.6365 259.768 15.9671C255.997 17.2976 251.782 18.1846 247.567 18.4064C243.13 18.6282 238.694 18.8499 234.257 18.8499C232.039 18.8499 229.598 18.8499 227.38 19.0716C224.94 19.0716 222.721 19.2934 220.281 19.5152C217.841 19.737 215.401 20.1805 212.961 21.0676C210.521 21.7328 208.302 22.8416 206.084 23.9504C201.869 26.3898 198.098 29.4944 194.77 32.8208C191.443 36.369 188.781 40.1389 186.784 44.5741C185.897 46.7918 185.232 49.0094 185.01 51.4488C184.788 53.8882 185.01 56.1057 185.897 58.3233C185.231 53.6664 186.784 49.2311 189.003 45.6829C191.221 41.913 194.327 38.5866 197.654 35.7037C200.982 32.8208 204.753 30.3814 208.524 28.6073C210.521 27.7203 212.295 27.0551 214.292 26.6116C216.288 26.168 218.507 25.9462 220.503 25.7245C224.718 25.5027 229.377 25.7246 233.813 25.9463C238.472 26.1681 243.13 26.3898 247.789 25.9463C252.669 25.7246 257.549 24.8374 262.43 23.0633C263.317 22.6198 263.983 22.398 264.426 21.9545C263.317 25.0592 262.208 28.1639 260.877 31.0468L260.211 32.1556L259.546 33.4861L258.215 35.9256C257.328 37.4779 256.44 39.0302 255.553 40.5825C253.778 43.6871 251.56 46.3482 249.12 48.5658C246.458 50.7834 243.574 52.7793 240.246 54.5534C237.141 56.3275 233.591 57.8799 230.264 59.2104C223.387 62.0933 216.066 63.8673 208.746 65.1979C216.288 65.6414 224.053 64.7544 231.595 62.7586C235.366 61.8715 238.916 60.5409 242.687 58.9886C244.461 58.3233 246.236 57.4363 248.011 56.5493C249.785 55.6622 251.56 54.5534 253.113 53.2229C256.44 50.7835 259.324 47.6788 261.543 44.3524C262.652 42.8001 263.761 41.026 264.648 39.4737L266.201 37.0344L266.866 35.7037L267.532 34.3732C269.307 30.825 270.86 27.055 272.191 23.5069C274.187 17.7411 275.74 11.9754 276.405 5.98784C276.627 4.87904 276.406 1.55257 277.071 0.665527C275.296 3.54842 273.078 6.43128 270.638 9.09241Z" fill="#F0F0F0"/>
<path d="M138.647 43.4651C138.204 42.1345 137.76 40.5822 137.538 39.0299C137.316 37.4775 137.094 35.9253 136.872 34.3729C136.651 31.2683 136.651 27.9418 136.429 24.6154C136.207 19.5149 135.985 14.6362 135.542 9.53569C138.869 9.97921 142.418 10.6445 145.524 11.3097C150.404 12.1968 155.063 13.7492 159.5 15.5233C163.936 17.5191 168.151 20.1802 171.479 23.5066C175.028 26.833 177.912 31.2683 179.465 36.147C179.465 30.8247 177.468 25.5024 174.363 21.289C171.257 16.8538 167.042 13.0839 162.162 10.4228C157.503 7.5399 152.401 5.7657 147.077 4.21337C141.975 2.88281 136.651 1.77401 131.548 0.886962L126.668 0L126.89 4.87877C127.112 11.5316 127.555 18.1844 128.221 24.8372C128.443 28.1637 128.665 31.49 129.108 35.0382C129.33 36.8123 129.552 38.5864 130.217 40.3605C130.661 42.1346 131.327 43.9086 131.992 45.6827C134.876 52.3355 139.756 58.1013 145.746 61.8712C151.735 65.6411 158.612 67.8587 165.489 67.4152C158.834 65.8629 153.067 62.7582 148.408 58.5448C143.971 54.5531 140.422 49.2309 138.647 43.4651Z" fill="#F0F0F0"/>
<path d="M152.623 54.5531C156.172 57.8795 160.609 60.3189 165.268 61.6495C164.159 59.2101 163.05 56.7707 161.94 54.5531C161.275 53.2225 160.609 51.6703 159.722 50.3397C155.729 48.3439 151.736 46.5698 148.186 45.4609C147.299 45.2392 146.412 45.0174 145.525 44.5739C146.856 48.3438 149.296 51.6702 152.623 54.5531Z" fill="#F0F0F0"/>
<path d="M227.159 157.45C227.159 156.12 227.159 155.011 227.159 153.68C227.159 122.19 214.292 93.8047 193.44 73.181C190.112 76.2856 187.006 79.8338 184.788 84.269C183.901 86.2649 181.904 87.3736 179.686 87.3736C179.242 87.3736 178.799 87.3737 178.355 87.1519C175.915 86.7084 174.14 84.4908 173.918 82.0514C172.365 78.2815 170.813 74.7333 169.482 71.6286C168.594 72.5157 167.263 73.181 165.932 73.181C165.267 73.181 164.601 73.181 163.936 73.181C156.837 73.181 149.295 70.9633 142.861 66.7499C135.985 62.3147 130.217 55.6619 126.889 48.122C126.002 46.1262 125.336 43.9086 124.893 42.1345C124.671 41.691 124.671 41.0256 124.449 40.5821C120.9 40.1386 117.129 39.9169 113.579 39.9169C50.8 39.9169 0 90.7001 0 153.458C0 215.551 49.6908 265.891 111.583 267V241.497C63.8882 240.389 25.511 201.58 25.511 153.68C25.511 105.115 64.9974 65.8629 113.579 65.8629C162.161 65.8629 201.426 105.336 201.426 153.68C201.426 154.124 201.426 154.789 201.426 155.232L213.405 143.479L227.159 157.45Z" fill="#F0F0F0"/>
<path d="M200.538 167.873C193.883 208.899 158.611 240.389 115.797 241.497V267C172.587 266.113 219.172 223.535 226.271 168.538L213.626 155.011L200.538 167.873Z" fill="#F0F0F0"/>
</svg>
