<svg width="157" height="49" viewBox="0 0 157 49" fill="none" xmlns="http://www.w3.org/2000/svg">
<rect width="157" height="49" rx="5" fill="black"/>
<rect x="0.5" y="0.5" width="156" height="48" rx="4.5" stroke="#00AB62" stroke-opacity="0.2"/>
<path d="M109.977 29.958C111.088 29.958 111.886 30.154 112.371 30.546C112.856 30.9287 113.104 31.498 113.113 32.254C113.122 32.8793 112.973 33.3553 112.665 33.682C112.366 33.9993 111.867 34.158 111.167 34.158H107.247V33.108H110.705C111.022 33.108 111.223 33.024 111.307 32.856C111.4 32.688 111.447 32.4827 111.447 32.24C111.438 31.8573 111.326 31.5913 111.111 31.442C110.906 31.2927 110.551 31.218 110.047 31.218C109.608 31.218 109.268 31.2787 109.025 31.4C108.782 31.5213 108.61 31.7407 108.507 32.058C108.414 32.3753 108.367 32.8327 108.367 33.43C108.367 34.0647 108.428 34.5547 108.549 34.9C108.67 35.2453 108.871 35.4833 109.151 35.614C109.431 35.7353 109.804 35.796 110.271 35.796C110.616 35.796 111.013 35.782 111.461 35.754C111.918 35.726 112.357 35.6887 112.777 35.642L112.945 36.72C112.693 36.8227 112.404 36.9067 112.077 36.972C111.75 37.0373 111.41 37.084 111.055 37.112C110.71 37.1493 110.383 37.168 110.075 37.168C109.235 37.168 108.558 37.0467 108.045 36.804C107.541 36.552 107.172 36.16 106.939 35.628C106.715 35.096 106.603 34.41 106.603 33.57C106.603 32.6647 106.715 31.9507 106.939 31.428C107.172 30.896 107.536 30.518 108.031 30.294C108.535 30.07 109.184 29.958 109.977 29.958Z" fill="white"/>
<path d="M102.539 30.126L102.763 31.47L102.917 31.666V37H101.223V30.126H102.539ZM105.899 29.958L105.731 31.526H105.241C104.877 31.526 104.509 31.5867 104.135 31.708C103.762 31.8293 103.295 32.0113 102.735 32.254L102.623 31.26C103.109 30.8493 103.603 30.532 104.107 30.308C104.611 30.0747 105.097 29.958 105.563 29.958H105.899Z" fill="white"/>
<path d="M96.2104 29.958C97.0504 29.958 97.7177 30.0747 98.2123 30.308C98.7163 30.5413 99.0757 30.924 99.2903 31.456C99.5143 31.988 99.6264 32.6927 99.6264 33.57C99.6264 34.4473 99.5143 35.152 99.2903 35.684C99.0757 36.2067 98.7163 36.5893 98.2123 36.832C97.7177 37.0653 97.0504 37.182 96.2104 37.182C95.389 37.182 94.7263 37.0653 94.2223 36.832C93.7277 36.5893 93.3683 36.2067 93.1443 35.684C92.9203 35.152 92.8083 34.4473 92.8083 33.57C92.8083 32.6927 92.9203 31.988 93.1443 31.456C93.3683 30.924 93.7277 30.5413 94.2223 30.308C94.7263 30.0747 95.389 29.958 96.2104 29.958ZM96.2104 31.246C95.7997 31.246 95.473 31.316 95.2304 31.456C94.997 31.5867 94.829 31.82 94.7263 32.156C94.6237 32.492 94.5723 32.9633 94.5723 33.57C94.5723 34.1767 94.6237 34.648 94.7263 34.984C94.829 35.32 94.997 35.5533 95.2304 35.684C95.473 35.8147 95.7997 35.88 96.2104 35.88C96.6303 35.88 96.9617 35.8147 97.2043 35.684C97.447 35.5533 97.615 35.32 97.7083 34.984C97.811 34.648 97.8624 34.1767 97.8624 33.57C97.8624 32.9633 97.811 32.492 97.7083 32.156C97.615 31.82 97.447 31.5867 97.2043 31.456C96.9617 31.316 96.6303 31.246 96.2104 31.246Z" fill="white"/>
<path d="M89.8059 28.166V34.928C89.8059 35.2173 89.8666 35.4227 89.9879 35.544C90.1186 35.6653 90.3379 35.726 90.6459 35.726H91.5979L91.7799 36.916C91.6213 36.9627 91.4299 37.0047 91.2059 37.042C90.9819 37.0793 90.7626 37.1027 90.5479 37.112C90.3333 37.1307 90.1513 37.14 90.0019 37.14C89.4046 37.14 88.9379 36.9813 88.6019 36.664C88.2753 36.3373 88.1119 35.8707 88.1119 35.264V28.166H89.8059ZM91.8499 30.126V31.302H86.8939V30.196L88.2379 30.126H91.8499Z" fill="white"/>
<path d="M82.6339 27.1582C83.1099 27.1675 83.6092 27.1955 84.1319 27.2422C84.6639 27.2889 85.1819 27.3775 85.6859 27.5082L85.5739 28.6982C85.1726 28.6889 84.7059 28.6795 84.1739 28.6702C83.6512 28.6515 83.1472 28.6422 82.6619 28.6422C82.3632 28.6422 82.1066 28.6515 81.8919 28.6702C81.6866 28.6889 81.5186 28.7355 81.3879 28.8102C81.2572 28.8849 81.1592 29.0015 81.0939 29.1602C81.0379 29.3095 81.0099 29.5195 81.0099 29.7902C81.0099 30.2102 81.0939 30.5089 81.2619 30.6862C81.4392 30.8635 81.7239 31.0035 82.1159 31.1062L84.0199 31.6662C84.7852 31.8995 85.3126 32.2402 85.6019 32.6882C85.8912 33.1269 86.0359 33.7149 86.0359 34.4522C86.0359 35.0029 85.9706 35.4555 85.8399 35.8102C85.7092 36.1649 85.5086 36.4402 85.2379 36.6362C84.9672 36.8322 84.6126 36.9722 84.1739 37.0562C83.7352 37.1402 83.2079 37.1822 82.5919 37.1822C82.2746 37.1822 81.8359 37.1635 81.2759 37.1262C80.7252 37.0889 80.0952 36.9955 79.3859 36.8462L79.4979 35.5862C80.0486 35.6049 80.5106 35.6235 80.8839 35.6422C81.2572 35.6515 81.5792 35.6562 81.8499 35.6562C82.1206 35.6562 82.3726 35.6562 82.6059 35.6562C83.0352 35.6562 83.3712 35.6282 83.6139 35.5722C83.8566 35.5162 84.0246 35.3995 84.1179 35.2222C84.2206 35.0449 84.2719 34.7882 84.2719 34.4522C84.2719 34.1629 84.2346 33.9389 84.1599 33.7802C84.0946 33.6122 83.9826 33.4815 83.8239 33.3882C83.6652 33.2949 83.4599 33.2155 83.2079 33.1502L81.2339 32.5482C80.5059 32.3242 79.9926 31.9929 79.6939 31.5542C79.4046 31.1155 79.2599 30.5275 79.2599 29.7902C79.2599 29.2395 79.3252 28.7915 79.4559 28.4462C79.5866 28.0915 79.7872 27.8255 80.0579 27.6482C80.3286 27.4615 80.6739 27.3355 81.0939 27.2702C81.5232 27.1955 82.0366 27.1582 82.6339 27.1582Z" fill="white"/>
<path d="M72.4621 29.958C73.3115 29.958 73.9228 30.2707 74.2961 30.896C74.6695 31.5213 74.8561 32.4267 74.8561 33.612C74.8561 34.5173 74.7581 35.2313 74.5621 35.754C74.3755 36.2673 74.0908 36.636 73.7081 36.86C73.3255 37.0747 72.8401 37.182 72.2521 37.182C71.7855 37.182 71.3281 37.1167 70.8801 36.986C70.4415 36.846 70.0355 36.6313 69.6621 36.342L69.7741 35.502C70.1381 35.6047 70.4648 35.6933 70.7541 35.768C71.0435 35.8427 71.3608 35.88 71.7061 35.88C72.0515 35.88 72.3221 35.824 72.5181 35.712C72.7235 35.5907 72.8728 35.3667 72.9661 35.04C73.0595 34.7133 73.1061 34.242 73.1061 33.626C73.1061 33.0193 73.0641 32.548 72.9801 32.212C72.8961 31.876 72.7561 31.6427 72.5601 31.512C72.3735 31.372 72.1261 31.302 71.8181 31.302C71.4821 31.302 71.1648 31.3767 70.8661 31.526C70.5675 31.666 70.2221 31.876 69.8301 32.156L69.6341 31.26C69.8488 31.008 70.1055 30.784 70.4041 30.588C70.7121 30.392 71.0435 30.238 71.3981 30.126C71.7528 30.014 72.1075 29.958 72.4621 29.958ZM69.5641 30.126L69.7321 31.456L69.8861 31.652V36.09L69.8161 36.258C69.8441 36.5287 69.8628 36.7993 69.8721 37.07C69.8815 37.35 69.8861 37.6347 69.8861 37.924V39.73H68.1921V30.126H69.5641Z" fill="white"/>
<path d="M64.177 29.958C65.0263 29.958 65.6376 30.2707 66.011 30.896C66.3843 31.5213 66.571 32.4267 66.571 33.612C66.571 34.5173 66.473 35.2313 66.277 35.754C66.0903 36.2673 65.8056 36.636 65.423 36.86C65.0403 37.0747 64.555 37.182 63.967 37.182C63.5003 37.182 63.043 37.1167 62.595 36.986C62.1563 36.846 61.7503 36.6313 61.377 36.342L61.489 35.502C61.853 35.6047 62.1796 35.6933 62.469 35.768C62.7583 35.8427 63.0756 35.88 63.421 35.88C63.7663 35.88 64.037 35.824 64.233 35.712C64.4383 35.5907 64.5876 35.3667 64.681 35.04C64.7743 34.7133 64.821 34.242 64.821 33.626C64.821 33.0193 64.779 32.548 64.695 32.212C64.611 31.876 64.471 31.6427 64.275 31.512C64.0883 31.372 63.841 31.302 63.533 31.302C63.197 31.302 62.8796 31.3767 62.581 31.526C62.2823 31.666 61.937 31.876 61.545 32.156L61.349 31.26C61.5636 31.008 61.8203 30.784 62.119 30.588C62.427 30.392 62.7583 30.238 63.113 30.126C63.4676 30.014 63.8223 29.958 64.177 29.958ZM61.279 30.126L61.447 31.456L61.601 31.652V36.09L61.531 36.258C61.559 36.5287 61.5776 36.7993 61.587 37.07C61.5963 37.35 61.601 37.6347 61.601 37.924V39.73H59.907V30.126H61.279Z" fill="white"/>
<path d="M55.3339 27.3398C55.4833 27.3398 55.6139 27.3818 55.7259 27.4658C55.8379 27.5498 55.9173 27.6618 55.9639 27.8018L58.8899 36.9998H57.0979L54.8859 29.5518C54.8486 29.4025 54.8113 29.2532 54.7739 29.1038C54.7366 28.9545 54.7039 28.8098 54.6759 28.6698H54.2839C54.2559 28.8098 54.2233 28.9545 54.1859 29.1038C54.1486 29.2532 54.1066 29.4025 54.0599 29.5518L51.8619 36.9998H50.0699L52.9959 27.8018C53.0333 27.6618 53.1079 27.5498 53.2199 27.4658C53.3413 27.3818 53.4766 27.3398 53.6259 27.3398H55.3339ZM56.9579 32.8698V34.2418H51.9879V32.8698H56.9579Z" fill="white"/>
<path d="M130.891 18.1004C130.391 18.1004 129.951 17.9971 129.571 17.7904C129.191 17.5837 128.894 17.2871 128.681 16.9004C128.474 16.5071 128.371 16.0404 128.371 15.5004C128.371 14.9604 128.474 14.4971 128.681 14.1104C128.894 13.7171 129.188 13.4171 129.561 13.2104C129.934 13.0037 130.358 12.9004 130.831 12.9004C131.318 12.9004 131.731 13.0004 132.071 13.2004C132.411 13.4004 132.671 13.6737 132.851 14.0204C133.031 14.3671 133.121 14.7604 133.121 15.2004C133.121 15.3204 133.118 15.4337 133.111 15.5404C133.104 15.6471 133.094 15.7404 133.081 15.8204H129.061V15.0004H132.611L132.081 15.1604C132.081 14.7071 131.968 14.3604 131.741 14.1204C131.514 13.8737 131.204 13.7504 130.811 13.7504C130.524 13.7504 130.274 13.8171 130.061 13.9504C129.848 14.0837 129.684 14.2837 129.571 14.5504C129.458 14.8104 129.401 15.1304 129.401 15.5104C129.401 15.8837 129.461 16.2004 129.581 16.4604C129.701 16.7204 129.871 16.9171 130.091 17.0504C130.311 17.1837 130.571 17.2504 130.871 17.2504C131.204 17.2504 131.474 17.1871 131.681 17.0604C131.888 16.9337 132.051 16.7571 132.171 16.5304L133.021 16.9304C132.901 17.1704 132.738 17.3804 132.531 17.5604C132.331 17.7337 132.091 17.8671 131.811 17.9604C131.531 18.0537 131.224 18.1004 130.891 18.1004Z" fill="white"/>
<path d="M122.5 18V10.75H123.57V13.8C123.737 13.4867 123.96 13.26 124.24 13.12C124.527 12.9733 124.843 12.9 125.19 12.9C125.543 12.9 125.86 12.97 126.14 13.11C126.427 13.2433 126.653 13.4467 126.82 13.72C126.987 13.9933 127.07 14.34 127.07 14.76V18H126V15.1C126 14.6067 125.897 14.2633 125.69 14.07C125.49 13.8767 125.237 13.78 124.93 13.78C124.717 13.78 124.503 13.8333 124.29 13.94C124.083 14.04 123.91 14.2067 123.77 14.44C123.637 14.6667 123.57 14.9733 123.57 15.36V18H122.5Z" fill="white"/>
<path d="M119.682 11.5303V16.5003C119.682 16.7469 119.746 16.9269 119.872 17.0403C120.006 17.1536 120.182 17.2103 120.402 17.2103C120.582 17.2103 120.739 17.1836 120.872 17.1303C121.006 17.0703 121.129 16.9903 121.242 16.8903L121.482 17.6703C121.329 17.8036 121.139 17.9103 120.912 17.9903C120.692 18.0636 120.446 18.1003 120.172 18.1003C119.886 18.1003 119.622 18.0536 119.382 17.9603C119.142 17.8669 118.956 17.7169 118.822 17.5103C118.689 17.2969 118.619 17.0203 118.612 16.6803V11.8303L119.682 11.5303ZM121.402 13.0003V13.8403H117.652V13.0003H121.402Z" fill="white"/>
<path d="M108.936 18.0004V13.0004H109.886L109.956 14.3004L109.816 14.1604C109.909 13.8737 110.042 13.6371 110.216 13.4504C110.396 13.2571 110.606 13.1171 110.846 13.0304C111.092 12.9437 111.352 12.9004 111.626 12.9004C111.979 12.9004 112.296 12.9704 112.576 13.1104C112.862 13.2437 113.089 13.4471 113.256 13.7204C113.422 13.9937 113.506 14.3404 113.506 14.7604V18.0004H112.436V15.0904C112.436 14.5971 112.332 14.2571 112.126 14.0704C111.926 13.8771 111.672 13.7804 111.366 13.7804C111.146 13.7804 110.932 13.8337 110.726 13.9404C110.519 14.0404 110.346 14.2037 110.206 14.4304C110.072 14.6571 110.006 14.9604 110.006 15.3404V18.0004H108.936Z" fill="white"/>
<path d="M105.109 12.9004C105.596 12.9004 106.026 13.0037 106.399 13.2104C106.772 13.4171 107.062 13.7171 107.269 14.1104C107.482 14.4971 107.589 14.9604 107.589 15.5004C107.589 16.0404 107.482 16.5071 107.269 16.9004C107.062 17.2871 106.772 17.5837 106.399 17.7904C106.026 17.9971 105.596 18.1004 105.109 18.1004C104.622 18.1004 104.192 17.9971 103.819 17.7904C103.446 17.5837 103.152 17.2871 102.939 16.9004C102.726 16.5071 102.619 16.0404 102.619 15.5004C102.619 14.9604 102.726 14.4971 102.939 14.1104C103.152 13.7171 103.446 13.4171 103.819 13.2104C104.192 13.0037 104.622 12.9004 105.109 12.9004ZM105.109 13.7404C104.809 13.7404 104.552 13.8104 104.339 13.9504C104.132 14.0837 103.972 14.2804 103.859 14.5404C103.746 14.8004 103.689 15.1204 103.689 15.5004C103.689 15.8737 103.746 16.1937 103.859 16.4604C103.972 16.7204 104.132 16.9204 104.339 17.0604C104.552 17.1937 104.809 17.2604 105.109 17.2604C105.409 17.2604 105.662 17.1937 105.869 17.0604C106.076 16.9204 106.236 16.7204 106.349 16.4604C106.462 16.1937 106.519 15.8737 106.519 15.5004C106.519 15.1204 106.462 14.8004 106.349 14.5404C106.236 14.2804 106.076 14.0837 105.869 13.9504C105.662 13.8104 105.409 13.7404 105.109 13.7404Z" fill="white"/>
<path d="M95.3379 18.1C94.9246 18.1 94.5479 17.9967 94.2079 17.79C93.8746 17.5833 93.6113 17.2867 93.4179 16.9C93.2246 16.5133 93.1279 16.05 93.1279 15.51C93.1279 14.95 93.2313 14.4767 93.4379 14.09C93.6446 13.7033 93.9213 13.41 94.2679 13.21C94.6146 13.0033 94.9946 12.9 95.4079 12.9C95.8346 12.9 96.1946 13.0167 96.4879 13.25C96.7813 13.4833 96.9779 13.7867 97.0779 14.16L96.9579 14.27V10.75H98.0279V18H97.0779L96.9979 16.64L97.1379 16.65C97.0913 16.95 96.9813 17.21 96.8079 17.43C96.6346 17.6433 96.4179 17.81 96.1579 17.93C95.9046 18.0433 95.6313 18.1 95.3379 18.1ZM95.5679 17.24C95.8546 17.24 96.1013 17.1667 96.3079 17.02C96.5146 16.8733 96.6746 16.6667 96.7879 16.4C96.9013 16.1333 96.9579 15.8133 96.9579 15.44C96.9579 15.0933 96.9013 14.7967 96.7879 14.55C96.6746 14.2967 96.5146 14.1033 96.3079 13.97C96.1079 13.8367 95.8746 13.77 95.6079 13.77C95.1613 13.77 94.8146 13.9233 94.5679 14.23C94.3213 14.5367 94.1979 14.96 94.1979 15.5C94.1979 16.04 94.3179 16.4667 94.5579 16.78C94.7979 17.0867 95.1346 17.24 95.5679 17.24Z" fill="white"/>
<path d="M90.6146 14.7904C90.6146 14.4571 90.5212 14.2004 90.3346 14.0204C90.1546 13.8337 89.9046 13.7404 89.5846 13.7404C89.2846 13.7404 89.0279 13.8104 88.8146 13.9504C88.6012 14.0904 88.4446 14.3171 88.3446 14.6304L87.4446 14.2504C87.5712 13.8437 87.8179 13.5171 88.1846 13.2704C88.5579 13.0237 89.0379 12.9004 89.6246 12.9004C90.0246 12.9004 90.3779 12.9671 90.6846 13.1004C90.9912 13.2271 91.2312 13.4204 91.4046 13.6804C91.5846 13.9404 91.6746 14.2737 91.6746 14.6804V16.9104C91.6746 17.1571 91.7979 17.2804 92.0446 17.2804C92.1646 17.2804 92.2812 17.2637 92.3946 17.2304L92.3346 17.9704C92.1812 18.0437 91.9879 18.0804 91.7546 18.0804C91.5412 18.0804 91.3479 18.0437 91.1746 17.9704C91.0079 17.8904 90.8746 17.7737 90.7746 17.6204C90.6812 17.4604 90.6346 17.2637 90.6346 17.0304V16.9604L90.8546 16.9504C90.7946 17.2104 90.6712 17.4271 90.4846 17.6004C90.2979 17.7671 90.0812 17.8937 89.8346 17.9804C89.5879 18.0604 89.3379 18.1004 89.0846 18.1004C88.7712 18.1004 88.4879 18.0504 88.2346 17.9504C87.9879 17.8504 87.7912 17.7004 87.6446 17.5004C87.5046 17.2937 87.4346 17.0404 87.4346 16.7404C87.4346 16.3671 87.5546 16.0604 87.7946 15.8204C88.0412 15.5804 88.3879 15.4171 88.8346 15.3304L90.7746 14.9504L90.7646 15.7004L89.3546 15.9904C89.0746 16.0437 88.8646 16.1204 88.7246 16.2204C88.5846 16.3204 88.5146 16.4671 88.5146 16.6604C88.5146 16.8471 88.5846 16.9971 88.7246 17.1104C88.8712 17.2171 89.0646 17.2704 89.3046 17.2704C89.4712 17.2704 89.6312 17.2504 89.7846 17.2104C89.9446 17.1704 90.0879 17.1071 90.2146 17.0204C90.3412 16.9271 90.4379 16.8104 90.5046 16.6704C90.5779 16.5237 90.6146 16.3504 90.6146 16.1504V14.7904Z" fill="white"/>
<path d="M83.908 12.9004C84.3946 12.9004 84.8246 13.0037 85.198 13.2104C85.5713 13.4171 85.8613 13.7171 86.068 14.1104C86.2813 14.4971 86.388 14.9604 86.388 15.5004C86.388 16.0404 86.2813 16.5071 86.068 16.9004C85.8613 17.2871 85.5713 17.5837 85.198 17.7904C84.8246 17.9971 84.3946 18.1004 83.908 18.1004C83.4213 18.1004 82.9913 17.9971 82.618 17.7904C82.2446 17.5837 81.9513 17.2871 81.738 16.9004C81.5246 16.5071 81.418 16.0404 81.418 15.5004C81.418 14.9604 81.5246 14.4971 81.738 14.1104C81.9513 13.7171 82.2446 13.4171 82.618 13.2104C82.9913 13.0037 83.4213 12.9004 83.908 12.9004ZM83.908 13.7404C83.608 13.7404 83.3513 13.8104 83.138 13.9504C82.9313 14.0837 82.7713 14.2804 82.658 14.5404C82.5446 14.8004 82.488 15.1204 82.488 15.5004C82.488 15.8737 82.5446 16.1937 82.658 16.4604C82.7713 16.7204 82.9313 16.9204 83.138 17.0604C83.3513 17.1937 83.608 17.2604 83.908 17.2604C84.208 17.2604 84.4613 17.1937 84.668 17.0604C84.8746 16.9204 85.0346 16.7204 85.148 16.4604C85.2613 16.1937 85.318 15.8737 85.318 15.5004C85.318 15.1204 85.2613 14.8004 85.148 14.5404C85.0346 14.2804 84.8746 14.0837 84.668 13.9504C84.4613 13.8104 84.208 13.7404 83.908 13.7404Z" fill="white"/>
<path d="M79.6629 10.75V16.6C79.6629 16.8467 79.7062 17.0167 79.7929 17.11C79.8796 17.2033 80.0229 17.25 80.2229 17.25C80.3429 17.25 80.4429 17.2433 80.5229 17.23C80.6096 17.21 80.7162 17.1767 80.8429 17.13L80.7229 17.93C80.6096 17.9833 80.4796 18.0233 80.3329 18.05C80.1862 18.0833 80.0396 18.1 79.8929 18.1C79.4462 18.1 79.1162 17.9867 78.9029 17.76C78.6962 17.5267 78.5929 17.17 78.5929 16.69V10.75H79.6629Z" fill="white"/>
<path d="M72.4316 18.0004V13.0004H73.3816L73.4516 14.3004L73.3116 14.1604C73.405 13.8737 73.5383 13.6371 73.7116 13.4504C73.8916 13.2571 74.1016 13.1171 74.3416 13.0304C74.5883 12.9437 74.8483 12.9004 75.1216 12.9004C75.475 12.9004 75.7916 12.9704 76.0716 13.1104C76.3583 13.2437 76.585 13.4471 76.7516 13.7204C76.9183 13.9937 77.0016 14.3404 77.0016 14.7604V18.0004H75.9316V15.0904C75.9316 14.5971 75.8283 14.2571 75.6216 14.0704C75.4216 13.8771 75.1683 13.7804 74.8616 13.7804C74.6416 13.7804 74.4283 13.8337 74.2216 13.9404C74.015 14.0404 73.8416 14.2037 73.7016 14.4304C73.5683 14.6571 73.5016 14.9604 73.5016 15.3404V18.0004H72.4316Z" fill="white"/>
<path d="M70.2368 13H71.3968L69.7168 18H68.5468L67.2868 14.29L66.0968 18H64.9268L63.2568 13H64.4068L65.5468 16.95L66.7868 13H67.8568L69.0968 16.95L70.2368 13Z" fill="white"/>
<path d="M60.197 12.9004C60.6837 12.9004 61.1137 13.0037 61.487 13.2104C61.8604 13.4171 62.1504 13.7171 62.357 14.1104C62.5704 14.4971 62.677 14.9604 62.677 15.5004C62.677 16.0404 62.5704 16.5071 62.357 16.9004C62.1504 17.2871 61.8604 17.5837 61.487 17.7904C61.1137 17.9971 60.6837 18.1004 60.197 18.1004C59.7104 18.1004 59.2804 17.9971 58.907 17.7904C58.5337 17.5837 58.2404 17.2871 58.027 16.9004C57.8137 16.5071 57.707 16.0404 57.707 15.5004C57.707 14.9604 57.8137 14.4971 58.027 14.1104C58.2404 13.7171 58.5337 13.4171 58.907 13.2104C59.2804 13.0037 59.7104 12.9004 60.197 12.9004ZM60.197 13.7404C59.897 13.7404 59.6404 13.8104 59.427 13.9504C59.2204 14.0837 59.0604 14.2804 58.947 14.5404C58.8337 14.8004 58.777 15.1204 58.777 15.5004C58.777 15.8737 58.8337 16.1937 58.947 16.4604C59.0604 16.7204 59.2204 16.9204 59.427 17.0604C59.6404 17.1937 59.897 17.2604 60.197 17.2604C60.497 17.2604 60.7504 17.1937 60.957 17.0604C61.1637 16.9204 61.3237 16.7204 61.437 16.4604C61.5504 16.1937 61.607 15.8737 61.607 15.5004C61.607 15.1204 61.5504 14.8004 61.437 14.5404C61.3237 14.2804 61.1637 14.0837 60.957 13.9504C60.7504 13.8104 60.497 13.7404 60.197 13.7404Z" fill="white"/>
<path d="M53.31 11.4004C54.3433 11.4004 55.1466 11.6871 55.72 12.2604C56.3 12.8271 56.59 13.6404 56.59 14.7004C56.59 15.7604 56.3 16.5771 55.72 17.1504C55.1466 17.7171 54.3433 18.0004 53.31 18.0004H50.98V11.4004H53.31ZM53.31 17.0904C54.01 17.0904 54.5433 16.8837 54.91 16.4704C55.2833 16.0504 55.47 15.4604 55.47 14.7004C55.47 13.9404 55.2833 13.3537 54.91 12.9404C54.5433 12.5204 54.01 12.3104 53.31 12.3104H52.05V17.0904H53.31Z" fill="white"/>
<path d="M31.0351 15.1755C32.647 13.0106 34.8879 13 34.8879 13C34.8879 13 35.2212 15.0354 33.6199 16.9961C31.91 19.0897 29.9666 18.7472 29.9666 18.7472C29.9666 18.7472 29.6016 17.1006 31.0351 15.1755ZM30.1716 20.1729C31.0008 20.1729 32.5399 19.0114 34.5432 19.0114C37.9915 19.0114 39.348 21.5117 39.348 21.5117C39.348 21.5117 36.6948 22.894 36.6948 26.2481C36.6948 30.0318 40 31.3357 40 31.3357C40 31.3357 37.6896 37.9623 34.5688 37.9623C33.1355 37.9623 32.0212 36.978 30.5109 36.978C28.9719 36.978 27.4446 37.999 26.4499 37.999C23.6002 37.9991 20 31.7131 20 26.6602C20 21.6889 23.0473 19.081 25.9056 19.081C27.7637 19.081 29.2056 20.1729 30.1716 20.1729Z" fill="white"/>
</svg>
