<svg width="16" height="16" viewBox="0 0 16 16" fill="none" xmlns="http://www.w3.org/2000/svg">
<g clip-path="url(#clip0_334_23384)">
<path d="M0.666667 0.666687C0.489856 0.666687 0.320286 0.736925 0.195262 0.861949C0.0702379 0.986973 0 1.15654 0 1.33335C0 1.51016 0.0702379 1.67973 0.195262 1.80476C0.320286 1.92978 0.489856 2.00002 0.666667 2.00002H1.85333C1.95024 2.00019 2.04464 2.03078 2.12323 2.08748C2.20181 2.14417 2.26061 2.22411 2.29133 2.31602L4.48933 8.91135C4.58733 9.20468 4.59933 9.51935 4.52467 9.81935L4.344 10.544C4.078 11.6067 4.90533 12.6667 6 12.6667H14C14.1768 12.6667 14.3464 12.5964 14.4714 12.4714C14.5964 12.3464 14.6667 12.1768 14.6667 12C14.6667 11.8232 14.5964 11.6536 14.4714 11.5286C14.3464 11.4036 14.1768 11.3334 14 11.3334H6C5.74 11.3334 5.57333 11.12 5.63667 10.8687L5.77333 10.3234C5.79636 10.2311 5.84953 10.1492 5.92441 10.0906C5.99929 10.032 6.0916 10.0002 6.18667 10H13.3333C13.4734 10.0002 13.61 9.95623 13.7237 9.87437C13.8374 9.79252 13.9224 9.67693 13.9667 9.54402L15.7433 4.21069C15.7767 4.11046 15.7858 4.00374 15.7698 3.89932C15.7539 3.7949 15.7133 3.69576 15.6516 3.61008C15.5898 3.5244 15.5085 3.45463 15.4145 3.40652C15.3204 3.3584 15.2163 3.33333 15.1107 3.33335H4.37C4.27298 3.33332 4.17843 3.3028 4.09971 3.24609C4.02099 3.18938 3.96209 3.10937 3.93133 3.01735L3.29933 1.12269C3.2551 0.989883 3.17019 0.874371 3.05663 0.792525C2.94308 0.71068 2.80664 0.666653 2.66667 0.666687H0.666667ZM5.33333 13.3334C4.97971 13.3334 4.64057 13.4738 4.39052 13.7239C4.14048 13.9739 4 14.3131 4 14.6667C4 15.0203 4.14048 15.3594 4.39052 15.6095C4.64057 15.8595 4.97971 16 5.33333 16C5.68695 16 6.02609 15.8595 6.27614 15.6095C6.52619 15.3594 6.66667 15.0203 6.66667 14.6667C6.66667 14.3131 6.52619 13.9739 6.27614 13.7239C6.02609 13.4738 5.68695 13.3334 5.33333 13.3334ZM13.3333 13.3334C12.9797 13.3334 12.6406 13.4738 12.3905 13.7239C12.1405 13.9739 12 14.3131 12 14.6667C12 15.0203 12.1405 15.3594 12.3905 15.6095C12.6406 15.8595 12.9797 16 13.3333 16C13.687 16 14.0261 15.8595 14.2761 15.6095C14.5262 15.3594 14.6667 15.0203 14.6667 14.6667C14.6667 14.3131 14.5262 13.9739 14.2761 13.7239C14.0261 13.4738 13.687 13.3334 13.3333 13.3334Z" fill="#545454"/>
</g>
<defs>
<clipPath id="clip0_334_23384">
<rect width="16" height="16" fill="white"/>
</clipPath>
</defs>
</svg>
