<svg width="20" height="20" viewBox="0 0 20 20" fill="none" xmlns="http://www.w3.org/2000/svg">
<g clip-path="url(#clip0_393_11927)">
<path d="M17.813 5.77965C17.8192 5.45593 17.5321 5.02785 17.0641 4.71558C16.5972 4.4041 16.0955 4.30597 15.7988 4.43465C14.3791 3.81722 12.8581 3.84883 11.294 5.08668C11.3065 5.13437 11.3205 5.17886 11.3326 5.22718C11.4821 5.82211 11.6036 6.44793 11.6967 7.09C12.0737 6.80066 12.5161 6.5925 12.9789 6.54164C12.4901 6.69203 12.0671 6.97582 11.7281 7.3332L11.7269 7.33465C11.9671 9.14011 11.9833 11.0546 11.7577 12.7741C12.4954 10.6503 13.0738 7.80363 15.3071 6.99383C12.9196 8.4775 12.9325 11.6936 11.6537 13.9434C11.6064 14.0274 11.5573 14.1104 11.5062 14.1921C11.0141 16.2949 10.1157 17.5975 8.92002 17.8969C8.74029 17.9417 8.55575 17.9643 8.37053 17.9643C7.64041 17.9643 6.86193 17.6015 6.08838 16.9861C6.13287 18.1694 6.45904 19.1017 7.15561 19.5664C9.45627 21.1013 14.901 16.9793 17.581 12.9622C19.8549 9.55344 19.4065 7.31683 17.813 5.77965ZM11.6655 15.7171C11.5975 15.8036 10.7474 18.5486 8.09994 18.7767C11.0138 17.4821 10.8531 15.7522 11.931 14.9186C12.1556 14.748 12.4274 14.6238 12.7023 14.6227C12.2024 14.8125 11.9013 15.2397 11.6655 15.7171ZM13.4429 15.8789C14.0214 14.6855 13.3013 13.289 13.93 12.1369C14.2037 11.6268 14.6283 11.3846 14.9753 11.3713C13.3315 12.2208 14.7477 14.7936 13.4429 15.8789ZM15.7594 11.94C15.7537 10.7499 15.7008 9.56902 16.4894 8.74851C16.7546 8.46793 17.1335 8.2632 17.5104 8.2807C16.1131 8.95609 16.3055 10.9032 15.7594 11.94Z" fill="#545454"/>
<path d="M8.81758 17.4889C11.4998 16.8149 12.102 10.0124 10.9252 5.32901C9.92664 1.35495 7.9682 0.185337 5.7591 0.333697C5.52344 0.111705 5.0134 0.036939 4.46777 0.174048C3.92231 0.311119 3.50824 0.617955 3.40539 0.924947C1.38887 1.83792 0.215352 3.79436 1.2141 7.76913C2.3909 12.4526 6.13695 18.1624 8.81758 17.4889ZM8.86672 16.2588C9.8643 13.2303 8.47457 12.1877 8.58071 10.8293C8.60516 10.5482 8.6957 10.2635 8.87942 10.059C8.68442 10.5569 8.79867 11.067 8.9941 11.5622C9.01254 11.6707 10.4755 14.144 8.86672 16.2588ZM10.3075 10.3539C9.81172 9.12381 8.29344 8.71959 7.86199 7.48006C7.66778 6.93471 7.77352 6.45745 7.99668 6.19135C7.52227 7.97983 10.3795 8.65823 10.3075 10.3539ZM7.4091 2.23745C6.97113 3.72639 8.54317 4.89139 8.94457 5.99221C8.05899 5.19733 7.1484 4.4435 7.07004 3.30815C7.04031 2.92323 7.14297 2.50502 7.4091 2.23745ZM6.25652 15.7082C6.12492 10.231 2.53109 9.15053 2.61297 5.88952C2.63246 5.3676 2.77672 4.8426 3.07738 4.42733C2.86059 4.89042 2.78676 5.39456 2.82395 5.88569C3.05016 8.97346 7.03199 10.6928 6.25652 15.7082ZM7.53778 13.0092C7.99902 12.3258 7.67203 11.2648 7.35684 10.4966C6.46414 8.35104 3.92211 5.58104 4.97586 3.00596C4.47192 5.77131 6.8636 7.92155 7.67184 10.3799C7.95004 11.2081 8.16402 12.4056 7.53778 13.0092Z" fill="#545454"/>
</g>
<defs>
<clipPath id="clip0_393_11927">
<rect width="20" height="20" fill="white"/>
</clipPath>
</defs>
</svg>
