<svg width="20" height="20" viewBox="0 0 20 20" fill="none" xmlns="http://www.w3.org/2000/svg">
<g clip-path="url(#clip0_393_12037)">
<path d="M5.35687 5.71684C5.30758 5.61258 5.28197 5.4987 5.28188 5.38338C5.28188 5.2854 5.30042 5.1858 5.33954 5.08943C5.45808 4.79831 5.73832 4.61041 6.04638 4.61041C6.06372 4.61041 6.08106 4.61081 6.09839 4.61202C6.41613 4.63379 6.73306 4.55759 7.00644 4.39267L7.27539 4.23057L7.71651 3.96485C7.81974 3.90276 7.93627 3.8709 8.0536 3.8709C8.13788 3.8709 8.22296 3.88743 8.3032 3.9209C8.63948 4.06042 8.79956 4.44952 8.66166 4.78944C8.80843 4.45154 9.19633 4.29186 9.53544 4.43339C9.64108 4.47734 9.73221 4.5467 9.80237 4.63379C9.87212 4.72089 9.92091 4.82532 9.94228 4.93903C9.97414 5.10879 9.99994 5.34064 9.99994 5.64547C9.99994 6.5886 9.75196 8.23212 8.66529 10.9059C8.58787 11.0966 8.48182 11.3018 8.3532 11.5172C7.5641 12.8417 5.94114 14.5361 5.06212 15.4114C4.70043 15.7719 4.46455 15.9933 4.46455 15.9933L3.4811 16.6634L3.24763 15.4872C3.24763 15.4872 3.22586 14.9744 3.22384 14.2195C3.21901 12.6796 3.294 10.1341 3.7948 8.89098C3.79601 8.88776 3.79722 8.88493 3.79843 8.88211C4.3585 7.50351 4.88632 6.47852 5.35647 5.71684H5.35687Z" fill="#FFEAA7"/>
<path d="M14.6431 5.71684H14.6435C15.1136 6.47852 15.6414 7.50351 16.2015 8.88211C16.2027 8.88493 16.2039 8.88776 16.2051 8.89098C16.7059 10.1341 16.7809 12.6796 16.7761 14.2195C16.7741 14.9744 16.7523 15.4872 16.7523 15.4872L16.5188 16.6634L15.5354 15.9933C15.5354 15.9933 15.2995 15.7719 14.9378 15.4114C14.0588 14.5361 12.4358 12.8417 11.6467 11.5172C11.5181 11.3018 11.4121 11.0966 11.3347 10.9059C10.248 8.23212 10 6.5886 10 5.64547C10 5.34064 10.0258 5.10879 10.0577 4.93903C10.079 4.82532 10.1278 4.72089 10.1976 4.63379C10.2677 4.5467 10.3589 4.47734 10.4645 4.43339C10.8036 4.29186 11.1915 4.45154 11.3383 4.78944C11.2004 4.44952 11.3605 4.06042 11.6967 3.9209C11.777 3.88743 11.8621 3.8709 11.9463 3.8709C12.0637 3.8709 12.1802 3.90276 12.2834 3.96485L12.7246 4.23057L12.9935 4.39267C13.2665 4.55731 13.5835 4.6339 13.9015 4.61202C13.9189 4.61081 13.9362 4.61041 13.9536 4.61041C14.2616 4.61041 14.5419 4.79831 14.6604 5.08943C14.6995 5.1858 14.7181 5.2854 14.7181 5.38338C14.7181 5.49951 14.6919 5.61362 14.6431 5.71684Z" fill="#E6E9ED"/>
<path d="M7.48318 6.81722C7.9864 7.0273 7.97672 8.22527 7.76987 8.73453C7.56262 9.2446 6.98601 9.48815 6.48199 9.27848C5.97797 9.0688 5.73724 8.48575 5.9445 7.97567C6.15175 7.46641 6.97755 6.60795 7.48157 6.81642C7.48197 6.81642 7.48197 6.81682 7.48238 6.81682C7.48278 6.81682 7.48278 6.81722 7.48318 6.81722Z" fill="#FCD770"/>
<path d="M14.0553 7.97567C14.2626 8.48575 14.0219 9.0688 13.5178 9.27848C13.0138 9.48815 12.4372 9.2446 12.23 8.73453C12.0231 8.22527 12.0134 7.0273 12.5166 6.81722C12.5171 6.81722 12.5171 6.81682 12.5175 6.81682C12.5179 6.81682 12.5179 6.81642 12.5183 6.81642C13.0223 6.60795 13.8481 7.46641 14.0553 7.97567ZM19.6399 17.3441C19.6653 17.4062 19.677 17.4703 19.677 17.5336C19.677 17.7296 19.5617 17.9158 19.371 17.9953C19.2726 18.0364 19.1633 18.0437 19.0597 18.0166L18.5823 17.8916C18.2553 17.8058 17.9641 18.0646 17.9641 18.3727C17.9641 18.4352 17.9762 18.5001 18.0024 18.5642C18.0359 18.6469 18.052 18.7324 18.052 18.8166C18.052 19.0787 17.898 19.3271 17.644 19.4327C17.5621 19.467 17.4775 19.4832 17.394 19.4832C17.1355 19.4832 16.89 19.3275 16.7855 19.0703C16.6311 18.69 16.1134 18.6513 15.9053 19.0045L15.6529 19.4332C15.5985 19.5263 15.5154 19.5985 15.4166 19.6396C15.3553 19.665 15.2916 19.6771 15.2291 19.6771C15.0352 19.6771 14.8513 19.5606 14.7731 19.3678C14.6529 19.072 14.6537 18.7408 14.7755 18.4457L15.5351 15.9933L16.5186 16.6634L16.7521 15.4872L18.9972 16.6901C19.1418 16.751 19.2728 16.8401 19.3827 16.9521C19.4931 17.0648 19.5805 17.1979 19.6399 17.3441ZM18.1069 11.3022C18.3363 12.7841 17.894 14.0973 17.1186 14.2361C17.0045 14.2566 16.8896 14.2498 16.7759 14.2195C16.7807 12.6796 16.7057 10.1341 16.2049 8.89098C16.2323 8.88292 16.2601 8.87606 16.2884 8.87082C17.0634 8.73211 17.8774 9.82081 18.1069 11.3022ZM14.9376 15.4114C14.8916 15.6695 14.7795 15.8764 14.5969 16.005C13.9743 16.4433 12.7727 15.8135 11.9126 14.5981C11.0526 13.3824 10.8606 12.0413 11.4832 11.6026C11.534 11.5671 11.5884 11.5389 11.6465 11.5171C12.4356 12.8417 14.0586 14.5361 14.9376 15.4114Z" fill="#FF826E"/>
<path d="M5.22429 18.4457C5.34606 18.7404 5.34687 19.0723 5.22671 19.3678C5.14848 19.5606 4.96461 19.6771 4.77067 19.6771C4.70817 19.6771 4.64446 19.665 4.58317 19.6396C4.48402 19.5984 4.40106 19.5259 4.34688 19.4332L4.09447 19.0045C3.88641 18.6513 3.36867 18.69 3.21424 19.0703C3.10981 19.3275 2.86425 19.4832 2.60578 19.4832C2.52232 19.4832 2.43764 19.467 2.35579 19.4327C2.10176 19.3271 1.94773 19.0787 1.94773 18.8166C1.94773 18.7324 1.96386 18.6469 1.99732 18.5642C2.02353 18.5001 2.03563 18.4352 2.03563 18.3727C2.03563 18.0646 1.74451 17.8058 1.41749 17.8916L0.940083 18.0166C0.836455 18.0437 0.727183 18.0364 0.628797 17.9953C0.438075 17.9158 0.322754 17.7296 0.322754 17.5336C0.322754 17.4703 0.334447 17.4062 0.35985 17.3441C0.419269 17.1979 0.506655 17.0648 0.617104 16.9521C0.726929 16.8401 0.857969 16.751 1.00258 16.6901L3.24771 15.4872L3.48117 16.6634L4.46462 15.9933L5.22429 18.4457ZM8.51657 11.6026C9.13914 12.0413 8.94721 13.3824 8.08714 14.5981C7.22708 15.8135 6.02548 16.4433 5.40291 16.005C5.22026 15.8764 5.10816 15.6695 5.06219 15.4114C5.94121 14.5361 7.56417 12.8417 8.35327 11.5171C8.41133 11.5389 8.46577 11.5671 8.51657 11.6026ZM3.71141 8.87082C3.73963 8.87606 3.76746 8.88292 3.79488 8.89098C3.29408 10.1341 3.21908 12.6796 3.22392 14.2195C3.11021 14.2498 2.99529 14.2566 2.88118 14.2361C2.10579 14.0974 1.66346 12.7841 1.89289 11.3022C2.12232 9.82081 2.93642 8.73211 3.71141 8.87082Z" fill="#FCD770"/>
<path d="M19.939 17.2224C19.7876 16.8499 19.5033 16.558 19.1373 16.3992L17.0818 15.2978C17.0869 15.1335 17.0934 14.8797 17.0971 14.5641C17.1235 14.5616 17.1498 14.5581 17.1759 14.5536C17.672 14.4648 18.0696 14.0465 18.2955 13.3757C18.4984 12.7735 18.5447 12.0197 18.426 11.253C18.2584 10.1699 17.779 9.22911 17.175 8.79782C16.9286 8.6219 16.6667 8.53323 16.4085 8.53654C15.9505 7.43389 15.4772 6.47504 14.999 5.68053C15.0629 5.45292 15.0551 5.2032 14.9595 4.96809C14.7816 4.53031 14.348 4.25705 13.8792 4.29015C13.6264 4.30765 13.3778 4.24745 13.16 4.11625L13.1094 4.08576C13.1868 3.80562 13.226 3.5163 13.2259 3.22566C13.2259 1.44697 11.7788 -9.91821e-05 10.0001 -9.91821e-05C8.22143 -9.91821e-05 6.77435 1.44697 6.77435 3.22566C6.77418 3.51628 6.81336 3.8056 6.8908 4.08572L6.84024 4.11621C6.62246 4.24745 6.37363 4.30773 6.12102 4.29011C5.6528 4.25757 5.21865 4.53023 5.04071 4.96805C4.94519 5.20316 4.93733 5.45292 5.00124 5.68049C4.52302 6.47496 4.04968 7.43381 3.59174 8.53646C3.3334 8.53315 3.07159 8.62186 2.82522 8.79778C2.22124 9.22902 1.74185 10.1698 1.5742 11.2529C1.45549 12.0196 1.50186 12.7735 1.70468 13.3757C1.9306 14.0465 2.32822 14.4648 2.82426 14.5535C2.85038 14.5582 2.87671 14.5613 2.90309 14.5641C2.9068 14.8797 2.91329 15.1334 2.91845 15.2978L0.862876 16.3991C0.496955 16.558 0.212645 16.8498 0.0611956 17.2224C-0.108721 17.6404 0.0903484 18.1207 0.504898 18.2931C0.668725 18.3608 0.850168 18.3733 1.02174 18.3287L1.49928 18.2036C1.58585 18.1809 1.64186 18.2267 1.66758 18.256C1.6896 18.281 1.73665 18.3494 1.69867 18.4429C1.49436 18.9458 1.73359 19.5234 2.23197 19.7306C2.47354 19.8311 2.73954 19.8309 2.98099 19.7301C3.22433 19.6286 3.41332 19.4374 3.51312 19.1917C3.54981 19.1014 3.62703 19.0863 3.65848 19.084C3.68973 19.0819 3.76755 19.0853 3.81638 19.1683L4.06887 19.597C4.15896 19.7495 4.29587 19.8689 4.45923 19.9373C4.55788 19.9786 4.66371 19.9999 4.77064 20C4.87648 20 4.98233 19.979 5.08301 19.937C5.28551 19.8524 5.44272 19.6934 5.52575 19.4891C5.67679 19.1174 5.67764 18.7088 5.52849 18.3369L4.83197 16.089C4.8641 16.0581 4.90092 16.0226 4.94196 15.9828C5.01664 16.0963 5.10882 16.1923 5.21704 16.2686C5.40583 16.4016 5.62909 16.4678 5.87655 16.4678C6.15997 16.4678 6.47504 16.3808 6.80576 16.2075C7.35713 15.9185 7.90571 15.4131 8.35054 14.7843C8.98589 13.8861 9.30274 12.8765 9.17738 12.1494C9.12343 11.8364 8.98883 11.5813 8.78606 11.4048C8.85497 11.2745 8.91508 11.1481 8.96424 11.0271C9.46657 9.79091 9.7933 8.76649 10.0001 7.92368C10.2068 8.76645 10.5336 9.79087 11.0359 11.0271C11.0851 11.1481 11.1452 11.2745 11.2141 11.4048C11.0113 11.5813 10.8767 11.8364 10.8228 12.1494C10.6974 12.8765 11.0142 13.8861 11.6496 14.7843C12.0944 15.4131 12.643 15.9185 13.1944 16.2075C13.5252 16.3808 13.8402 16.4678 14.1236 16.4678C14.371 16.4678 14.5943 16.4015 14.7831 16.2686C14.8913 16.1923 14.9835 16.0963 15.0582 15.9828C15.0992 16.0226 15.136 16.0581 15.1682 16.0889L14.4716 18.3369C14.3225 18.7088 14.3233 19.1173 14.4744 19.4891C14.5574 19.6934 14.7146 19.8524 14.9171 19.9369C15.016 19.9784 15.1222 19.9998 15.2295 19.9999C15.335 19.9999 15.4405 19.979 15.541 19.9373C15.7043 19.8688 15.8412 19.7495 15.9313 19.597L16.1838 19.1683C16.2326 19.0853 16.3103 19.0818 16.3417 19.0839C16.3732 19.0863 16.4504 19.1014 16.4871 19.1917C16.5869 19.4373 16.7758 19.6285 17.0192 19.7301C17.2606 19.8308 17.5266 19.831 17.7682 19.7306C18.2666 19.5233 18.5058 18.9457 18.3015 18.4429C18.2635 18.3494 18.3106 18.281 18.3326 18.2559C18.3583 18.2266 18.4144 18.1811 18.5009 18.2035L18.9784 18.3287C19.15 18.3733 19.3315 18.3608 19.4953 18.293C19.9098 18.1207 20.1089 17.6404 19.939 17.2224ZM17.7885 11.3517C17.9995 12.7151 17.5996 13.773 17.0997 13.9096C17.0943 12.5171 17.016 10.5252 16.6606 9.2406C16.7094 9.26381 16.7561 9.29137 16.8 9.32294C17.2606 9.65172 17.6486 10.4481 17.7885 11.3517ZM7.41946 3.22574C7.41946 1.80277 8.57711 0.645132 10.0001 0.645132C11.423 0.645132 12.5807 1.80277 12.5807 3.22574C12.5806 3.39722 12.5634 3.56827 12.5295 3.73637L12.4499 3.68839C12.1855 3.52904 11.8576 3.50456 11.5729 3.62303C11.337 3.72109 11.1593 3.90218 11.059 4.11899C10.8252 4.03375 10.572 4.03919 10.3407 4.1354C10.2119 4.18899 10.0959 4.26905 10.0001 4.37039C9.90425 4.26906 9.78821 4.189 9.65947 4.1354C9.42814 4.03923 9.17488 4.03383 8.94109 4.11903C8.84085 3.90222 8.66315 3.72109 8.42727 3.62303C8.14252 3.50468 7.8147 3.52904 7.55023 3.68839L7.47063 3.73637C7.43669 3.56828 7.41955 3.39722 7.41946 3.22574ZM2.21169 11.3517C2.35156 10.4481 2.73954 9.65172 3.20006 9.32294C3.244 9.29136 3.29069 9.26379 3.33957 9.24056C2.98409 10.5252 2.90587 12.5171 2.90046 13.9096C2.40055 13.773 2.0006 12.7152 2.21169 11.3517ZM4.91632 18.541L4.92624 18.5686C5.01499 18.7837 5.01563 19.0307 4.92805 19.2462C4.91959 19.2676 4.90696 19.287 4.89091 19.3033C4.87485 19.3197 4.85569 19.3327 4.83455 19.3416C4.81435 19.35 4.79267 19.3544 4.77076 19.3544C4.74886 19.3544 4.72717 19.3501 4.70697 19.3416C4.67254 19.3271 4.64373 19.3019 4.62479 19.2697L4.3723 18.8409C4.21351 18.5713 3.92174 18.4174 3.61134 18.4406C3.30022 18.4634 3.03353 18.6581 2.91538 18.9488C2.88083 19.0339 2.81587 19.0999 2.73244 19.1347C2.69243 19.1516 2.64946 19.1603 2.60605 19.1603C2.56264 19.1603 2.51966 19.1517 2.47962 19.1349C2.30709 19.0631 2.22483 18.8617 2.29632 18.6858C2.41479 18.3942 2.35963 18.0663 2.15233 17.8302C1.94766 17.5972 1.63472 17.5009 1.33569 17.5795L0.858118 17.7046C0.823074 17.7139 0.785938 17.7113 0.752515 17.6973C0.663807 17.6604 0.621791 17.5563 0.658767 17.4653C0.747314 17.2474 0.914045 17.0776 1.12819 16.9872L3.01611 15.977L3.25961 17.2046L4.2856 16.5055L4.91632 18.541ZM8.54162 12.259C8.63743 12.8149 8.3557 13.6598 7.82381 14.4117C7.01588 15.5538 5.99727 16.0291 5.58857 15.7411C5.51562 15.6898 5.46006 15.6117 5.42163 15.5095C6.2636 14.6647 7.62619 13.2245 8.44118 11.9829C8.4886 12.0554 8.52239 12.1474 8.54162 12.259ZM8.36655 10.7842C7.67817 12.4783 4.52576 15.4907 4.26165 15.7411L3.70263 16.1221L3.56924 15.4495C3.5557 15.0867 3.40812 10.6995 4.0973 9.00334C4.5233 7.95497 4.96196 7.03741 5.40438 6.26762C5.47475 6.3197 5.5512 6.36303 5.63203 6.39665L6.53214 6.77096C6.1382 7.06301 5.7853 7.51079 5.64566 7.85437C5.37244 8.52682 5.69199 9.29923 6.35807 9.5762C6.51615 9.64227 6.68576 9.67638 6.85709 9.67656C7.02665 9.67656 7.1962 9.64289 7.35753 9.57559C7.68256 9.43995 7.93502 9.18443 8.06845 8.85613C8.18792 8.56206 8.27336 7.97973 8.19417 7.46208L8.57509 7.62046L8.82283 7.02479L7.6062 6.51887L7.60611 6.51883L7.60591 6.51875L5.87973 5.80094C5.65276 5.70654 5.54445 5.44191 5.63832 5.21095C5.71098 5.03208 5.88723 4.92111 6.07646 4.93373C6.46222 4.96034 6.84125 4.86885 7.17318 4.66882L7.88321 4.24088C7.92745 4.21431 7.97731 4.19846 8.02877 4.19461C8.08024 4.19075 8.1319 4.19899 8.17961 4.21866C8.35215 4.2904 8.43437 4.49184 8.36288 4.66777L8.23784 4.97551L8.1128 5.2832L8.71049 5.52606L8.9542 4.92627C8.99045 4.837 9.05863 4.76773 9.14617 4.73119C9.18821 4.71353 9.23334 4.70442 9.27893 4.7044C9.32453 4.70437 9.36967 4.71342 9.41173 4.73103C9.52258 4.77716 9.60237 4.87716 9.6252 4.99865C9.72906 5.55138 9.81422 7.22156 8.36655 10.7842ZM7.47083 8.61327C7.40269 8.78101 7.27427 8.91133 7.10915 8.9802C7.0295 9.01372 6.94396 9.03102 6.85755 9.03108C6.77114 9.03113 6.68558 9.01394 6.60589 8.98052C6.26561 8.83903 6.10303 8.44279 6.24343 8.09727C6.36976 7.78631 6.80665 7.29208 7.15963 7.14478C7.21931 7.11987 7.27245 7.10696 7.31285 7.10696C7.33072 7.10696 7.34608 7.1095 7.35842 7.11458C7.43918 7.14817 7.54027 7.34313 7.57136 7.69175C7.60523 8.07154 7.54297 8.43569 7.47083 8.61327ZM10.3749 4.99873C10.3977 4.8772 10.4775 4.7772 10.5884 4.73107C10.6305 4.71345 10.6756 4.70439 10.7212 4.70442C10.7668 4.70445 10.8119 4.71356 10.8539 4.73124C10.9414 4.76777 11.0096 4.83704 11.0459 4.92631L11.2896 5.5261L11.8873 5.28324L11.7623 4.97555L11.6372 4.66781C11.5657 4.49192 11.648 4.29048 11.8205 4.2187C11.8682 4.19902 11.9198 4.19078 11.9713 4.19464C12.0228 4.19849 12.0726 4.21435 12.1168 4.24092L12.8269 4.6689C13.1588 4.86885 13.538 4.96002 13.9236 4.93381C14.1129 4.92047 14.2891 5.03212 14.3617 5.21099C14.4556 5.44195 14.3473 5.70658 14.1203 5.80098L11.1772 7.02483L11.4249 7.6205L11.8058 7.46212C11.7266 7.97977 11.8121 8.5621 11.9316 8.85617C12.065 9.18447 12.3175 9.43999 12.6425 9.57563C12.801 9.64211 12.9711 9.67643 13.143 9.6766C13.312 9.6766 13.4811 9.64317 13.6419 9.57624C14.308 9.29927 14.6276 8.52686 14.3544 7.85441C14.2148 7.51083 13.8618 7.06305 13.4679 6.771L14.3679 6.39673C14.4488 6.36308 14.5252 6.31976 14.5956 6.2677C15.0381 7.03745 15.4768 7.95505 15.9028 9.00342C16.5916 10.6987 16.4444 15.0868 16.4308 15.4495L16.2974 16.1222L15.7384 15.7412C15.4743 15.4908 12.3219 12.4784 11.6335 10.7843C10.1859 7.22156 10.2711 5.55138 10.3749 4.99873ZM13.7567 8.09723C13.8971 8.44275 13.7346 8.83899 13.3943 8.98048C13.3146 9.0139 13.229 9.03109 13.1426 9.03104C13.0562 9.03098 12.9707 9.01368 12.891 8.98016C12.726 8.91129 12.5975 8.78101 12.5293 8.61323C12.4572 8.43565 12.3949 8.07146 12.4288 7.69171C12.4599 7.34309 12.561 7.14813 12.6417 7.11454C12.682 7.09781 12.7544 7.10878 12.8405 7.14474C13.1935 7.29208 13.6304 7.78631 13.7567 8.09723ZM14.4116 15.7411C14.0028 16.029 12.9843 15.5539 12.1763 14.4117C11.6444 13.6598 11.3627 12.8149 11.4585 12.259C11.4777 12.1474 11.5115 12.0553 11.559 11.9829C12.3739 13.2245 13.7365 14.6647 14.5785 15.5095C14.5401 15.6117 14.4845 15.6897 14.4116 15.7411ZM19.2476 17.6973C19.2142 17.7113 19.177 17.7139 19.1419 17.7047L18.6644 17.5795C18.3653 17.501 18.0524 17.5972 17.8477 17.8303C17.6404 18.0663 17.5853 18.3942 17.7037 18.6858C17.7752 18.8617 17.693 19.0631 17.5204 19.1349C17.4804 19.1517 17.4374 19.1604 17.394 19.1603C17.3506 19.1603 17.3076 19.1516 17.2676 19.1348C17.1842 19.1 17.1192 19.0339 17.0847 18.9489C16.9665 18.6581 16.6999 18.4634 16.3887 18.4406C16.0781 18.4177 15.7866 18.5713 15.6278 18.841L15.3753 19.2697C15.3564 19.3019 15.3276 19.3271 15.2932 19.3417C15.273 19.3501 15.2513 19.3545 15.2294 19.3545C15.2074 19.3545 15.1858 19.3501 15.1655 19.3416C15.1444 19.3327 15.1253 19.3197 15.1092 19.3034C15.0931 19.287 15.0805 19.2676 15.072 19.2463C14.9845 19.0307 14.9851 18.7837 15.0739 18.5686L15.7142 16.5054L16.7404 17.2047L16.9839 15.9774L18.845 16.9745L18.8719 16.9873C19.0861 17.0777 19.2527 17.2475 19.3413 17.4653C19.3783 17.5564 19.3363 17.6604 19.2476 17.6973Z" fill="#545454"/>
<path d="M7.49889 5.0252C7.33091 4.95536 7.13873 5.03649 7.06966 5.20641C7.00059 5.37636 7.08083 5.57075 7.24881 5.64059C7.41679 5.71047 7.60897 5.6293 7.67804 5.45938C7.74711 5.28947 7.66691 5.09508 7.49889 5.0252ZM3.80322 15.0112L5.8067 10.0902L6.40411 10.3334L4.40063 15.2544L3.80322 15.0112ZM12.7509 5.64063C12.9189 5.57079 12.9991 5.3764 12.9301 5.20645C12.861 5.03649 12.6688 4.95536 12.5008 5.02524C12.3328 5.09508 12.2526 5.28947 12.3217 5.45942C12.3907 5.62934 12.5829 5.71047 12.7509 5.64063ZM13.5933 10.3106L14.1907 10.0674L16.1942 14.9884L15.5968 15.2316L13.5933 10.3106Z" fill="#545454"/>
</g>
<defs>
<clipPath id="clip0_393_12037">
<rect width="20" height="20" fill="white"/>
</clipPath>
</defs>
</svg>
