<svg width="20" height="20" viewBox="0 0 20 20" fill="none" xmlns="http://www.w3.org/2000/svg">
<g clip-path="url(#clip0_393_11959)">
<path fill-rule="evenodd" clip-rule="evenodd" d="M14.137 3L15.477 5.84667C16.0408 7.04595 16.3333 8.35479 16.3337 9.68V18C16.3337 18.442 16.1581 18.866 15.8455 19.1785C15.5329 19.4911 15.109 19.6667 14.667 19.6667H5.33366C5.11479 19.6667 4.89806 19.6236 4.69585 19.5398C4.49364 19.456 4.30991 19.3333 4.15515 19.1785C3.84259 18.866 3.66699 18.442 3.66699 18V9.68C3.66733 8.35479 3.95982 7.04595 4.52366 5.84667L5.86366 3" fill="#FFEB3A"/>
<path fill-rule="evenodd" clip-rule="evenodd" d="M15.4767 5.84667L14.1367 3H13.1367L14.4767 5.84667C15.0406 7.04595 15.3331 8.35479 15.3334 9.68V18C15.3334 18.442 15.1578 18.866 14.8452 19.1785C14.5327 19.4911 14.1087 19.6667 13.6667 19.6667H14.6667C15.1087 19.6667 15.5327 19.4911 15.8452 19.1785C16.1578 18.866 16.3334 18.442 16.3334 18V9.68C16.3331 8.35479 16.0406 7.04595 15.4767 5.84667Z" fill="#FDD834"/>
<path fill-rule="evenodd" clip-rule="evenodd" d="M14.3333 0.333344H5.66667C5.49002 0.333871 5.32076 0.404278 5.19584 0.529188C5.07093 0.654099 5.00053 0.823361 5 1.00001V2.33334C5.00053 2.50999 5.07093 2.67926 5.19584 2.80417C5.32076 2.92908 5.49002 2.99948 5.66667 3.00001H14.3333C14.51 2.99948 14.6792 2.92908 14.8042 2.80417C14.9291 2.67926 14.9995 2.50999 15 2.33334V1.00001C14.9995 0.823361 14.9291 0.654099 14.8042 0.529188C14.6792 0.404278 14.51 0.333871 14.3333 0.333344Z" fill="#3F51B5"/>
<path fill-rule="evenodd" clip-rule="evenodd" d="M14.3335 0.333344H13.3335C13.5101 0.333871 13.6794 0.404278 13.8043 0.529188C13.9292 0.654099 13.9996 0.823361 14.0002 1.00001V2.33334C13.9996 2.50999 13.9292 2.67926 13.8043 2.80417C13.6794 2.92908 13.5101 2.99948 13.3335 3.00001H14.3335C14.5101 2.99948 14.6794 2.92908 14.8043 2.80417C14.9292 2.67926 14.9996 2.50999 15.0002 2.33334V1.00001C14.9996 0.823361 14.9292 0.654099 14.8043 0.529188C14.6794 0.404278 14.5101 0.333871 14.3335 0.333344Z" fill="#283593"/>
<path fill-rule="evenodd" clip-rule="evenodd" d="M6.66667 0.333344V3.00001H5.66667C5.49002 2.99948 5.32076 2.92908 5.19584 2.80417C5.07093 2.67926 5.00053 2.50999 5 2.33334V1.00001C5.00053 0.823361 5.07093 0.654099 5.19584 0.529188C5.32076 0.404278 5.49002 0.333871 5.66667 0.333344H6.66667ZM11.6667 0.333344H13.3333V3.00001H11.6667V0.333344ZM8.33333 0.333344H10V3.00001H8.33333V0.333344Z" fill="#02A9F4"/>
<path fill-rule="evenodd" clip-rule="evenodd" d="M3.66699 9.66666H16.3337V15.6667H3.66699V9.66666Z" fill="#F5F5F5"/>
<path fill-rule="evenodd" clip-rule="evenodd" d="M15.3335 9.66666H16.3335V15.6667H15.3335V9.66666Z" fill="#CFD8DC"/>
<path fill-rule="evenodd" clip-rule="evenodd" d="M5.11533 8.68666C5.06667 8.6867 5.0186 8.6761 4.97448 8.65558C4.93037 8.63507 4.89127 8.60515 4.85995 8.56792C4.82863 8.53069 4.80584 8.48705 4.79318 8.44008C4.78052 8.3931 4.77829 8.34392 4.78666 8.29599C4.90999 7.59599 5.12566 6.91599 5.42833 6.27299L6.40033 4.20799C6.41895 4.16838 6.4452 4.13282 6.47757 4.10335C6.50993 4.07387 6.54779 4.05107 6.58897 4.03622C6.63016 4.02138 6.67386 4.0148 6.71759 4.01684C6.76131 4.01889 6.80421 4.02953 6.84383 4.04816C6.88344 4.06678 6.919 4.09303 6.94847 4.1254C6.97794 4.15777 7.00075 4.19562 7.01559 4.23681C7.03044 4.27799 7.03702 4.32169 7.03497 4.36542C7.03293 4.40915 7.02228 4.45204 7.00366 4.49166L6.03166 6.55633C5.75424 7.14563 5.5564 7.76921 5.44333 8.41066C5.42984 8.48789 5.38956 8.5579 5.32958 8.60838C5.26959 8.65885 5.19373 8.68657 5.11533 8.68666ZM6.00033 18.6667H5.33366C5.15685 18.6667 4.98728 18.5964 4.86225 18.4714C4.73723 18.3464 4.66699 18.1768 4.66699 18V17.3333C4.66699 17.2449 4.70211 17.1601 4.76462 17.0976C4.82714 17.0351 4.91192 17 5.00033 17C5.08873 17 5.17352 17.0351 5.23603 17.0976C5.29854 17.1601 5.33366 17.2449 5.33366 17.3333V18H6.00033C6.08873 18 6.17352 18.0351 6.23603 18.0976C6.29854 18.1601 6.33366 18.2449 6.33366 18.3333C6.33366 18.4217 6.29854 18.5065 6.23603 18.569C6.17352 18.6315 6.08873 18.6667 6.00033 18.6667Z" fill="#F5F5F5"/>
<path fill-rule="evenodd" clip-rule="evenodd" d="M7.00033 12.3333H6.33366C6.24525 12.3333 6.16047 12.3684 6.09796 12.431C6.03545 12.4935 6.00033 12.5783 6.00033 12.6667C6.00033 12.7551 6.03545 12.8398 6.09796 12.9024C6.16047 12.9649 6.24525 13 6.33366 13H6.66699C6.66699 13.1768 6.59676 13.3464 6.47173 13.4714C6.34671 13.5964 6.17714 13.6667 6.00033 13.6667C5.82352 13.6667 5.65395 13.5964 5.52892 13.4714C5.4039 13.3464 5.33366 13.1768 5.33366 13V12.3333C5.33352 12.183 5.38418 12.0371 5.47741 11.9192C5.57064 11.8013 5.70098 11.7183 5.84727 11.6838C5.99356 11.6493 6.14722 11.6653 6.28332 11.7291C6.41941 11.7929 6.52995 11.9008 6.59699 12.0353C6.61669 12.0745 6.64391 12.1093 6.67708 12.1379C6.71025 12.1666 6.74874 12.1884 6.79034 12.2021C6.83194 12.2159 6.87584 12.2213 6.91954 12.218C6.96323 12.2148 7.00586 12.203 7.04499 12.1833C7.08413 12.1636 7.119 12.1364 7.14762 12.1032C7.17623 12.0701 7.19803 12.0316 7.21178 11.99C7.22552 11.9484 7.23094 11.9045 7.22771 11.8608C7.22449 11.8171 7.21269 11.7745 7.19299 11.7353C7.05863 11.4665 6.83738 11.2509 6.56514 11.1236C6.2929 10.9963 5.98562 10.9647 5.69316 11.0339C5.40071 11.1032 5.14022 11.2692 4.95395 11.505C4.76768 11.7409 4.66656 12.0328 4.66699 12.3333V13C4.66699 13.3536 4.80747 13.6928 5.05752 13.9428C5.30757 14.1928 5.6467 14.3333 6.00033 14.3333C6.35395 14.3333 6.69309 14.1928 6.94314 13.9428C7.19318 13.6928 7.33366 13.3536 7.33366 13V12.6667C7.33366 12.5783 7.29854 12.4935 7.23603 12.431C7.17352 12.3684 7.08873 12.3333 7.00033 12.3333ZM9.66699 11C9.57859 11 9.4938 11.0351 9.43129 11.0976C9.36878 11.1601 9.33366 11.2449 9.33366 11.3333V12.3333H8.66699V11.3333C8.66699 11.2449 8.63187 11.1601 8.56936 11.0976C8.50685 11.0351 8.42207 11 8.33366 11C8.24525 11 8.16047 11.0351 8.09796 11.0976C8.03545 11.1601 8.00033 11.2449 8.00033 11.3333V14C8.00033 14.0884 8.03545 14.1732 8.09796 14.2357C8.16047 14.2982 8.24525 14.3333 8.33366 14.3333C8.42207 14.3333 8.50685 14.2982 8.56936 14.2357C8.63187 14.1732 8.66699 14.0884 8.66699 14V13H9.33366V14C9.33366 14.0884 9.36878 14.1732 9.43129 14.2357C9.4938 14.2982 9.57859 14.3333 9.66699 14.3333C9.7554 14.3333 9.84018 14.2982 9.9027 14.2357C9.96521 14.1732 10.0003 14.0884 10.0003 14V11.3333C10.0003 11.2449 9.96521 11.1601 9.9027 11.0976C9.84018 11.0351 9.7554 11 9.66699 11ZM12.3337 11.6667C12.4221 11.6667 12.5069 11.6315 12.5694 11.569C12.6319 11.5065 12.667 11.4217 12.667 11.3333C12.667 11.2449 12.6319 11.1601 12.5694 11.0976C12.5069 11.0351 12.4221 11 12.3337 11H11.0003C10.9119 11 10.8271 11.0351 10.7646 11.0976C10.7021 11.1601 10.667 11.2449 10.667 11.3333V14C10.667 14.0884 10.7021 14.1732 10.7646 14.2357C10.8271 14.2982 10.9119 14.3333 11.0003 14.3333H12.3337C12.4221 14.3333 12.5069 14.2982 12.5694 14.2357C12.6319 14.1732 12.667 14.0884 12.667 14C12.667 13.9116 12.6319 13.8268 12.5694 13.7643C12.5069 13.7018 12.4221 13.6667 12.3337 13.6667H11.3337V13H12.3337C12.4221 13 12.5069 12.9649 12.5694 12.9024C12.6319 12.8398 12.667 12.7551 12.667 12.6667C12.667 12.5783 12.6319 12.4935 12.5694 12.431C12.5069 12.3684 12.4221 12.3333 12.3337 12.3333H11.3337V11.6667H12.3337ZM15.0003 13C15.0887 13 15.1735 12.9649 15.236 12.9024C15.2985 12.8398 15.3337 12.7551 15.3337 12.6667C15.3337 12.5783 15.2985 12.4935 15.236 12.431C15.1735 12.3684 15.0887 12.3333 15.0003 12.3333H14.0003V11.6667H15.0003C15.0887 11.6667 15.1735 11.6315 15.236 11.569C15.2985 11.5065 15.3337 11.4217 15.3337 11.3333C15.3337 11.2449 15.2985 11.1601 15.236 11.0976C15.1735 11.0351 15.0887 11 15.0003 11H13.667C13.5786 11 13.4938 11.0351 13.4313 11.0976C13.3688 11.1601 13.3337 11.2449 13.3337 11.3333V14C13.3337 14.0884 13.3688 14.1732 13.4313 14.2357C13.4938 14.2982 13.5786 14.3333 13.667 14.3333H15.0003C15.0887 14.3333 15.1735 14.2982 15.236 14.2357C15.2985 14.1732 15.3337 14.0884 15.3337 14C15.3337 13.9116 15.2985 13.8268 15.236 13.7643C15.1735 13.7018 15.0887 13.6667 15.0003 13.6667H14.0003V13H15.0003Z" fill="#545454"/>
<path d="M16.6668 9.66467C16.6663 8.29535 16.3631 6.94308 15.7788 5.70467L14.6375 3.281C14.8389 3.21706 15.0148 3.09085 15.1399 2.92055C15.2649 2.75024 15.3327 2.54463 15.3335 2.33333V1C15.3335 0.734784 15.2281 0.48043 15.0406 0.292893C14.8531 0.105357 14.5987 0 14.3335 0L5.66683 0C5.40161 0 5.14726 0.105357 4.95972 0.292893C4.77219 0.48043 4.66683 0.734784 4.66683 1V2.33333C4.6685 2.76667 4.9495 3.15 5.36283 3.281L4.22183 5.705C3.63742 6.94326 3.33407 8.29543 3.3335 9.66467L3.3335 18C3.33403 18.5303 3.54491 19.0387 3.91987 19.4136C4.29483 19.7886 4.80323 19.9995 5.3335 20H14.6668C15.1971 19.9995 15.7055 19.7886 16.0805 19.4136C16.4554 19.0387 16.6663 18.5303 16.6668 18V9.66467ZM4.00016 10H16.0002V15.3333H4.00016V10ZM14.6668 1V2.33333C14.6668 2.42174 14.6317 2.50652 14.5692 2.56904C14.5067 2.63155 14.4219 2.66667 14.3335 2.66667H13.6668V0.666667H14.3335C14.4219 0.666667 14.5067 0.701786 14.5692 0.764298C14.6317 0.82681 14.6668 0.911595 14.6668 1ZM13.0002 2.66667H12.0002V0.666667H13.0002V2.66667ZM11.3335 2.66667H10.3335V0.666667H11.3335V2.66667ZM9.66683 0.666667V2.66667H8.66683V0.666667H9.66683ZM8.00016 0.666667V2.66667H7.00016V0.666667H8.00016ZM5.3335 1C5.3335 0.911595 5.36862 0.82681 5.43113 0.764298C5.49364 0.701786 5.57842 0.666667 5.66683 0.666667H6.3335V2.66667H5.66683C5.57842 2.66667 5.49364 2.63155 5.43113 2.56904C5.36862 2.50652 5.3335 2.42174 5.3335 2.33333V1ZM4.82516 5.98867L6.07483 3.33333H13.9255L15.1752 5.98833C15.6692 7.03714 15.9467 8.17483 15.9908 9.33333H4.0095C4.05364 8.17493 4.33106 7.03734 4.82516 5.98867ZM14.6668 19.3333H5.3335C4.97987 19.3333 4.64074 19.1929 4.39069 18.9428C4.14064 18.6928 4.00016 18.3536 4.00016 18V16H16.0002V18C16.0002 18.3536 15.8597 18.6928 15.6096 18.9428C15.3596 19.1929 15.0205 19.3333 14.6668 19.3333Z" fill="#545454"/>
</g>
<defs>
<clipPath id="clip0_393_11959">
<rect width="20" height="20" fill="white"/>
</clipPath>
</defs>
</svg>
