<svg width="157" height="49" viewBox="0 0 157 49" fill="none" xmlns="http://www.w3.org/2000/svg">
<rect width="157" height="49" rx="5" fill="black"/>
<rect x="0.5" y="0.5" width="156" height="48" rx="4.5" stroke="#00AB62" stroke-opacity="0.2"/>
<path d="M127.643 30.126L125.067 37.21C124.946 37.5366 124.792 37.8586 124.605 38.176C124.428 38.5026 124.199 38.7966 123.919 39.058C123.639 39.3193 123.308 39.5246 122.925 39.674C122.542 39.8233 122.099 39.8793 121.595 39.842L121.455 38.834C122.015 38.6753 122.449 38.4606 122.757 38.19C123.074 37.9193 123.322 37.574 123.499 37.154L123.877 36.258C123.961 36.0526 124.04 35.8193 124.115 35.558C124.199 35.2873 124.269 35.054 124.325 34.858L125.823 30.126H127.643ZM122.099 30.126L123.625 34.858C123.672 35.0166 123.714 35.18 123.751 35.348C123.788 35.5066 123.821 35.6653 123.849 35.824H124.199L123.667 37H123.219C123.088 37 122.972 36.9626 122.869 36.888C122.766 36.8133 122.696 36.7106 122.659 36.58L120.293 30.126H122.099Z" fill="white"/>
<path d="M116.715 29.958C117.265 29.958 117.727 30.0327 118.101 30.182C118.483 30.322 118.773 30.5647 118.969 30.91C119.165 31.2553 119.263 31.7313 119.263 32.338V37H117.919L117.681 35.516L117.555 35.32V32.324C117.555 31.96 117.471 31.6987 117.303 31.54C117.135 31.372 116.813 31.288 116.337 31.288C115.982 31.288 115.534 31.302 114.993 31.33C114.461 31.358 113.924 31.3953 113.383 31.442L113.229 30.28C113.555 30.2147 113.924 30.1587 114.335 30.112C114.745 30.0653 115.161 30.028 115.581 30C116.001 29.972 116.379 29.958 116.715 29.958ZM118.535 32.772L118.521 33.822H115.371C115.091 33.8313 114.89 33.906 114.769 34.046C114.647 34.186 114.587 34.3773 114.587 34.62V34.998C114.587 35.278 114.661 35.4927 114.811 35.642C114.96 35.782 115.193 35.852 115.511 35.852C115.763 35.852 116.043 35.8007 116.351 35.698C116.659 35.5953 116.962 35.446 117.261 35.25C117.569 35.054 117.844 34.8207 118.087 34.55V35.432C117.993 35.572 117.858 35.74 117.681 35.936C117.503 36.1227 117.284 36.3093 117.023 36.496C116.771 36.6827 116.477 36.8367 116.141 36.958C115.814 37.0793 115.45 37.14 115.049 37.14C114.638 37.14 114.269 37.07 113.943 36.93C113.616 36.7807 113.359 36.566 113.173 36.286C112.986 35.9967 112.893 35.642 112.893 35.222V34.494C112.893 33.9527 113.07 33.5327 113.425 33.234C113.789 32.926 114.283 32.772 114.909 32.772H118.535Z" fill="white"/>
<path d="M110.549 27.2002L110.535 34.9282C110.535 35.1895 110.609 35.3902 110.759 35.5302C110.908 35.6609 111.123 35.7262 111.403 35.7262H112.005L112.201 36.9162C112.098 36.9629 111.953 37.0049 111.767 37.0422C111.589 37.0795 111.403 37.1029 111.207 37.1122C111.02 37.1309 110.857 37.1402 110.717 37.1402C110.147 37.1402 109.695 36.9862 109.359 36.6782C109.023 36.3702 108.855 35.9269 108.855 35.3482V27.2002H110.549Z" fill="white"/>
<path d="M104.018 27.2139C104.868 27.2139 105.535 27.3072 106.02 27.4939C106.506 27.6712 106.851 27.9839 107.056 28.4319C107.271 28.8705 107.378 29.4959 107.378 30.3079C107.378 31.1199 107.276 31.7499 107.07 32.1979C106.874 32.6459 106.543 32.9585 106.076 33.1359C105.619 33.3132 105.008 33.4019 104.242 33.4019C103.822 33.4019 103.416 33.3879 103.024 33.3599C102.642 33.3319 102.282 33.2945 101.946 33.2479C101.62 33.2012 101.34 33.1545 101.106 33.1079C100.873 33.0519 100.71 33.0052 100.616 32.9679L100.658 32.0299C101.19 32.0299 101.736 32.0299 102.296 32.0299C102.866 32.0299 103.43 32.0299 103.99 32.0299C104.401 32.0205 104.723 31.9692 104.956 31.8759C105.199 31.7825 105.367 31.6145 105.46 31.3719C105.563 31.1199 105.614 30.7652 105.614 30.3079C105.614 29.8505 105.563 29.5005 105.46 29.2579C105.367 29.0059 105.199 28.8332 104.956 28.7399C104.723 28.6372 104.401 28.5859 103.99 28.5859C103.169 28.5859 102.464 28.5905 101.876 28.5999C101.288 28.6092 100.887 28.6232 100.672 28.6419L100.476 27.3399C100.85 27.3025 101.2 27.2745 101.526 27.2559C101.862 27.2372 102.222 27.2279 102.604 27.2279C102.996 27.2185 103.468 27.2139 104.018 27.2139ZM102.226 27.3399V36.9999H100.476V27.3399H102.226Z" fill="white"/>
<path d="M92.6292 29.958C93.7399 29.958 94.5379 30.154 95.0232 30.546C95.5086 30.9287 95.7559 31.498 95.7652 32.254C95.7746 32.8793 95.6252 33.3553 95.3172 33.682C95.0186 33.9993 94.5192 34.158 93.8192 34.158H89.8993V33.108H93.3572C93.6746 33.108 93.8752 33.024 93.9592 32.856C94.0526 32.688 94.0992 32.4827 94.0992 32.24C94.0899 31.8573 93.9779 31.5913 93.7632 31.442C93.5579 31.2927 93.2032 31.218 92.6992 31.218C92.2606 31.218 91.9199 31.2787 91.6772 31.4C91.4346 31.5213 91.2619 31.7407 91.1592 32.058C91.0659 32.3753 91.0192 32.8327 91.0192 33.43C91.0192 34.0647 91.0799 34.5547 91.2012 34.9C91.3226 35.2453 91.5232 35.4833 91.8032 35.614C92.0832 35.7353 92.4566 35.796 92.9232 35.796C93.2686 35.796 93.6652 35.782 94.1132 35.754C94.5706 35.726 95.0092 35.6887 95.4292 35.642L95.5972 36.72C95.3452 36.8227 95.0559 36.9067 94.7292 36.972C94.4026 37.0373 94.0619 37.084 93.7072 37.112C93.3619 37.1493 93.0352 37.168 92.7272 37.168C91.8872 37.168 91.2106 37.0467 90.6972 36.804C90.1932 36.552 89.8246 36.16 89.5912 35.628C89.3672 35.096 89.2552 34.41 89.2552 33.57C89.2552 32.6647 89.3672 31.9507 89.5912 31.428C89.8246 30.896 90.1886 30.518 90.6832 30.294C91.1872 30.07 91.8359 29.958 92.6292 29.958Z" fill="white"/>
<path d="M86.8553 27.2002L86.8413 34.9282C86.8413 35.1895 86.9159 35.3902 87.0653 35.5302C87.2146 35.6609 87.4293 35.7262 87.7093 35.7262H88.3113L88.5073 36.9162C88.4046 36.9629 88.2599 37.0049 88.0733 37.0422C87.8959 37.0795 87.7093 37.1029 87.5133 37.1122C87.3266 37.1309 87.1633 37.1402 87.0233 37.1402C86.4539 37.1402 86.0013 36.9862 85.6653 36.6782C85.3293 36.3702 85.1613 35.9269 85.1613 35.3482V27.2002H86.8553Z" fill="white"/>
<path d="M80.0612 29.958C80.8359 29.958 81.4472 30.0327 81.8952 30.182C82.3526 30.322 82.6792 30.5553 82.8752 30.882C83.0712 31.1993 83.1692 31.6193 83.1692 32.142C83.1692 32.646 83.0712 33.0613 82.8752 33.388C82.6792 33.7053 82.3526 33.9387 81.8952 34.088C81.4379 34.2373 80.8219 34.312 80.0472 34.312C79.2726 34.312 78.6566 34.2373 78.1992 34.088C77.7512 33.9387 77.4246 33.7053 77.2192 33.388C77.0232 33.0707 76.9252 32.6553 76.9252 32.142C76.9252 31.6193 77.0232 31.1993 77.2192 30.882C77.4246 30.5553 77.7559 30.322 78.2132 30.182C78.6706 30.0327 79.2866 29.958 80.0612 29.958ZM80.0472 31.064C79.4592 31.064 79.0532 31.1433 78.8292 31.302C78.6052 31.4607 78.4932 31.7407 78.4932 32.142C78.4932 32.5247 78.6052 32.8 78.8292 32.968C79.0532 33.1267 79.4592 33.206 80.0472 33.206C80.6352 33.206 81.0366 33.1267 81.2512 32.968C81.4752 32.8 81.5872 32.5247 81.5872 32.142C81.5872 31.7407 81.4752 31.4607 81.2512 31.302C81.0366 31.1433 80.6352 31.064 80.0472 31.064ZM83.9672 30.126L83.8692 30.91L82.0772 31.106L81.5732 30.126H83.9672ZM78.0452 33.892L78.9132 34.018C78.7732 34.13 78.6752 34.2747 78.6192 34.452C78.5726 34.62 78.5866 34.7833 78.6612 34.942C78.7452 35.0913 78.9226 35.1847 79.1932 35.222L81.7412 35.558C82.4319 35.642 82.9172 35.8473 83.1972 36.174C83.4772 36.4913 83.6172 36.9533 83.6172 37.56C83.6172 38.1293 83.5052 38.5727 83.2812 38.89C83.0572 39.2073 82.6886 39.4267 82.1752 39.548C81.6712 39.6787 80.9899 39.744 80.1312 39.744C79.4499 39.744 78.8852 39.7067 78.4372 39.632C77.9892 39.5667 77.6299 39.45 77.3592 39.282C77.0979 39.1233 76.9112 38.9133 76.7992 38.652C76.6872 38.4 76.6312 38.0827 76.6312 37.7C76.6312 37.4013 76.6779 37.1493 76.7712 36.944C76.8739 36.7387 77.0372 36.5567 77.2612 36.398C77.4852 36.23 77.7886 36.076 78.1712 35.936L79.1232 35.53L79.7812 35.768L79.1652 36.202C78.9506 36.3607 78.7732 36.5053 78.6332 36.636C78.5026 36.7573 78.4046 36.8787 78.3392 37C78.2832 37.1307 78.2552 37.294 78.2552 37.49C78.2552 37.7513 78.3066 37.952 78.4092 38.092C78.5212 38.232 78.7126 38.3253 78.9832 38.372C79.2539 38.428 79.6319 38.456 80.1172 38.456C80.6119 38.456 80.9946 38.428 81.2652 38.372C81.5359 38.3253 81.7226 38.232 81.8252 38.092C81.9372 37.9613 81.9932 37.77 81.9932 37.518C81.9932 37.3127 81.9606 37.1587 81.8952 37.056C81.8299 36.9627 81.7132 36.888 81.5452 36.832C81.3772 36.776 81.1439 36.7293 80.8452 36.692L78.5492 36.412C78.2226 36.3747 77.9612 36.2813 77.7652 36.132C77.5786 35.9733 77.4479 35.7867 77.3732 35.572C77.2986 35.348 77.2752 35.1287 77.3032 34.914C77.3406 34.69 77.4199 34.4847 77.5412 34.298C77.6719 34.1113 77.8399 33.976 78.0452 33.892Z" fill="white"/>
<path d="M72.1361 29.958C72.9761 29.958 73.6435 30.0747 74.1381 30.308C74.6421 30.5413 75.0015 30.924 75.2161 31.456C75.4401 31.988 75.5521 32.6927 75.5521 33.57C75.5521 34.4473 75.4401 35.152 75.2161 35.684C75.0015 36.2067 74.6421 36.5893 74.1381 36.832C73.6435 37.0653 72.9761 37.182 72.1361 37.182C71.3148 37.182 70.6521 37.0653 70.1481 36.832C69.6535 36.5893 69.2941 36.2067 69.0701 35.684C68.8461 35.152 68.7341 34.4473 68.7341 33.57C68.7341 32.6927 68.8461 31.988 69.0701 31.456C69.2941 30.924 69.6535 30.5413 70.1481 30.308C70.6521 30.0747 71.3148 29.958 72.1361 29.958ZM72.1361 31.246C71.7255 31.246 71.3988 31.316 71.1561 31.456C70.9228 31.5867 70.7548 31.82 70.6521 32.156C70.5495 32.492 70.4981 32.9633 70.4981 33.57C70.4981 34.1767 70.5495 34.648 70.6521 34.984C70.7548 35.32 70.9228 35.5533 71.1561 35.684C71.3988 35.8147 71.7255 35.88 72.1361 35.88C72.5561 35.88 72.8875 35.8147 73.1301 35.684C73.3728 35.5533 73.5408 35.32 73.6341 34.984C73.7368 34.648 73.7881 34.1767 73.7881 33.57C73.7881 32.9633 73.7368 32.492 73.6341 32.156C73.5408 31.82 73.3728 31.5867 73.1301 31.456C72.8875 31.316 72.5561 31.246 72.1361 31.246Z" fill="white"/>
<path d="M64.015 29.958C64.855 29.958 65.5224 30.0747 66.017 30.308C66.521 30.5413 66.8804 30.924 67.095 31.456C67.319 31.988 67.431 32.6927 67.431 33.57C67.431 34.4473 67.319 35.152 67.095 35.684C66.8804 36.2067 66.521 36.5893 66.017 36.832C65.5224 37.0653 64.855 37.182 64.015 37.182C63.1937 37.182 62.531 37.0653 62.027 36.832C61.5324 36.5893 61.173 36.2067 60.949 35.684C60.725 35.152 60.613 34.4473 60.613 33.57C60.613 32.6927 60.725 31.988 60.949 31.456C61.173 30.924 61.5324 30.5413 62.027 30.308C62.531 30.0747 63.1937 29.958 64.015 29.958ZM64.015 31.246C63.6044 31.246 63.2777 31.316 63.035 31.456C62.8017 31.5867 62.6337 31.82 62.531 32.156C62.4284 32.492 62.377 32.9633 62.377 33.57C62.377 34.1767 62.4284 34.648 62.531 34.984C62.6337 35.32 62.8017 35.5533 63.035 35.684C63.2777 35.8147 63.6044 35.88 64.015 35.88C64.435 35.88 64.7664 35.8147 65.009 35.684C65.2517 35.5533 65.4197 35.32 65.513 34.984C65.6157 34.648 65.667 34.1767 65.667 33.57C65.667 32.9633 65.6157 32.492 65.513 32.156C65.4197 31.82 65.2517 31.5867 65.009 31.456C64.7664 31.316 64.435 31.246 64.015 31.246Z" fill="white"/>
<path d="M55.9279 27.1582C56.3106 27.1582 56.6653 27.1675 56.9919 27.1862C57.3279 27.2049 57.6453 27.2375 57.9439 27.2842C58.2426 27.3309 58.5366 27.3962 58.8259 27.4802L58.6719 28.7682C58.3639 28.7495 58.0606 28.7355 57.7619 28.7262C57.4633 28.7075 57.1646 28.6982 56.8659 28.6982C56.5766 28.6889 56.2826 28.6842 55.9839 28.6842C55.5359 28.6842 55.1579 28.7309 54.8499 28.8242C54.5419 28.9082 54.2946 29.0762 54.1079 29.3282C53.9306 29.5802 53.7999 29.9395 53.7159 30.4062C53.6319 30.8729 53.5899 31.4749 53.5899 32.2122C53.5899 33.0802 53.6459 33.7662 53.7579 34.2702C53.8793 34.7649 54.0753 35.1242 54.3459 35.3482C54.6166 35.5629 54.9806 35.6702 55.4379 35.6702C55.7459 35.6702 56.0306 35.6329 56.2919 35.5582C56.5533 35.4835 56.7913 35.3855 57.0059 35.2642C57.2299 35.1335 57.4399 35.0029 57.6359 34.8722L57.8459 35.7822C57.6966 35.9689 57.4773 36.1742 57.1879 36.3982C56.9079 36.6129 56.5719 36.7995 56.1799 36.9582C55.7879 37.1075 55.3446 37.1822 54.8499 37.1822C54.1219 37.1822 53.5246 37.0095 53.0579 36.6642C52.6006 36.3095 52.2646 35.7635 52.0499 35.0262C51.8446 34.2795 51.7419 33.3229 51.7419 32.1562C51.7419 30.8869 51.8773 29.8882 52.1479 29.1602C52.4186 28.4322 52.8573 27.9189 53.4639 27.6202C54.0799 27.3122 54.9013 27.1582 55.9279 27.1582ZM59.1339 31.4282V37.0002H57.8459L57.5939 35.5582L57.4259 35.2082V31.4282H59.1339Z" fill="white"/>
<path d="M83.2104 11.3994V17.9994H81.9404L79.3904 13.8394L78.7504 12.6694H78.7404L78.7804 13.7394V17.9994H77.8004V11.3994H79.0604L81.6004 15.5494L82.2504 16.7394H82.2604L82.2204 15.6594V11.3994H83.2104Z" fill="white"/>
<path d="M75.8431 11.3994V17.9994H74.7731V11.3994H75.8431Z" fill="white"/>
<path d="M70.4837 11.3994V12.3194H68.2237V17.9994H67.1537V12.3194H64.8937V11.3994H70.4837Z" fill="white"/>
<path d="M59.2164 17.9994V11.3994H63.9964V12.3194H60.2864V14.2194H63.1864V15.1194H60.2864V17.0794H64.1364V17.9994H59.2164Z" fill="white"/>
<path d="M54.66 18.0998C54.04 18.0998 53.5033 17.9631 53.05 17.6898C52.5967 17.4165 52.2433 17.0298 51.99 16.5298C51.7367 16.0231 51.61 15.4131 51.61 14.6998C51.61 13.9998 51.74 13.3965 52 12.8898C52.2667 12.3831 52.64 11.9931 53.12 11.7198C53.6067 11.4398 54.1633 11.2998 54.79 11.2998C55.4767 11.2998 56.03 11.4265 56.45 11.6798C56.8767 11.9331 57.2167 12.3265 57.47 12.8598L56.48 13.3298C56.3533 12.9631 56.1433 12.6898 55.85 12.5098C55.5633 12.3231 55.2133 12.2298 54.8 12.2298C54.3867 12.2298 54.0233 12.3265 53.71 12.5198C53.4033 12.7131 53.1633 12.9965 52.99 13.3698C52.8167 13.7365 52.73 14.1798 52.73 14.6998C52.73 15.2265 52.8067 15.6765 52.96 16.0498C53.1133 16.4165 53.3433 16.6965 53.65 16.8898C53.9633 17.0831 54.3467 17.1798 54.8 17.1798C55.0467 17.1798 55.2767 17.1498 55.49 17.0898C55.7033 17.0231 55.89 16.9298 56.05 16.8098C56.21 16.6831 56.3333 16.5265 56.42 16.3398C56.5133 16.1465 56.56 15.9198 56.56 15.6598V15.4698H54.64V14.5998H57.51V17.9998H56.71L56.65 16.6698L56.85 16.7698C56.69 17.1898 56.4233 17.5165 56.05 17.7498C55.6833 17.9831 55.22 18.0998 54.66 18.0998Z" fill="white"/>
<path fill-rule="evenodd" clip-rule="evenodd" d="M20.4537 12.3837C20.1656 12.6857 20 13.1506 20 13.7547V35.2417C20 35.8458 20.1656 36.3107 20.4645 36.6022L20.5426 36.6665L32.8861 24.6269V24.3564L20.5318 12.3193L20.4537 12.3837Z" fill="url(#paint0_linear_334_10198)"/>
<path fill-rule="evenodd" clip-rule="evenodd" d="M36.9922 28.6552L32.875 24.638V24.357L36.9935 20.3398L37.0824 20.3937L41.9536 23.0937C43.3484 23.8606 43.3484 25.1239 41.9536 25.9014L37.0824 28.6013C37.0811 28.6013 36.9922 28.6552 36.9922 28.6552Z" fill="url(#paint1_linear_334_10198)"/>
<path fill-rule="evenodd" clip-rule="evenodd" d="M37.0808 28.6019L32.8747 24.498L20.4531 36.6139C20.9069 37.0893 21.6702 37.1431 22.5238 36.6782L37.0808 28.6019Z" fill="url(#paint2_linear_334_10198)"/>
<path fill-rule="evenodd" clip-rule="evenodd" d="M37.0808 20.3957L22.5238 12.3299C21.6716 11.8545 20.9069 11.9189 20.4531 12.3942L32.8734 24.4982L37.0808 20.3957Z" fill="url(#paint3_linear_334_10198)"/>
<path opacity="0.2" fill-rule="evenodd" clip-rule="evenodd" d="M36.9919 28.5156L22.5346 36.5276C21.7268 36.9807 21.0065 36.9492 20.542 36.5381L20.4639 36.6143L20.542 36.6786C21.0065 37.0884 21.7268 37.1212 22.5346 36.6681L37.0915 28.6023L36.9919 28.5156Z" fill="black"/>
<path opacity="0.12" fill-rule="evenodd" clip-rule="evenodd" d="M41.9522 25.7614L36.9814 28.5152L37.0703 28.6019L41.9415 25.9019C42.6389 25.5132 42.9822 25.0063 42.9822 24.498C42.9378 24.9629 42.5837 25.4055 41.9522 25.7614Z" fill="black"/>
<path opacity="0.25" fill-rule="evenodd" clip-rule="evenodd" d="M22.5244 12.47L41.9525 23.2358C42.584 23.5812 42.9381 24.0343 42.9933 24.4992C42.9933 23.9923 42.6499 23.484 41.9525 23.0953L22.5244 12.3295C21.1296 11.5521 20 12.1995 20 13.7544V13.8949C20 12.34 21.1296 11.7031 22.5244 12.47Z" fill="white"/>
<defs>
<linearGradient id="paint0_linear_334_10198" x1="31.7777" y1="13.5237" x2="12.0723" y2="18.9068" gradientUnits="userSpaceOnUse">
<stop stop-color="#00A0FF"/>
<stop offset="0.007" stop-color="#00A1FF"/>
<stop offset="0.26" stop-color="#00BEFF"/>
<stop offset="0.512" stop-color="#00D2FF"/>
<stop offset="0.76" stop-color="#00DFFF"/>
<stop offset="1" stop-color="#00E3FF"/>
</linearGradient>
<linearGradient id="paint1_linear_334_10198" x1="43.7686" y1="24.4981" x2="19.6607" y2="24.4981" gradientUnits="userSpaceOnUse">
<stop stop-color="#FFE000"/>
<stop offset="0.409" stop-color="#FFBD00"/>
<stop offset="0.775" stop-color="#FFA500"/>
<stop offset="1" stop-color="#FF9C00"/>
</linearGradient>
<linearGradient id="paint2_linear_334_10198" x1="34.7936" y1="26.7306" x2="19.4983" y2="53.1233" gradientUnits="userSpaceOnUse">
<stop stop-color="#FF3A44"/>
<stop offset="1" stop-color="#C31162"/>
</linearGradient>
<linearGradient id="paint3_linear_334_10198" x1="17.3263" y1="5.23611" x2="24.1499" y2="17.0233" gradientUnits="userSpaceOnUse">
<stop stop-color="#32A071"/>
<stop offset="0.069" stop-color="#2DA771"/>
<stop offset="0.476" stop-color="#15CF74"/>
<stop offset="0.801" stop-color="#06E775"/>
<stop offset="1" stop-color="#00F076"/>
</linearGradient>
</defs>
</svg>
