<svg width="20" height="20" viewBox="0 0 20 20" fill="none" xmlns="http://www.w3.org/2000/svg">
<g clip-path="url(#clip0_393_11941)">
<path d="M3.74072 13.9229C3.74072 14.82 4.27307 15.6341 5.13818 16.2323C6.0033 15.6341 6.53564 14.82 6.53564 13.9229C6.53564 13.0257 6.0033 12.2117 5.13818 11.6134C4.27307 12.2117 3.74072 13.0257 3.74072 13.9229Z" fill="#FEDA9B"/>
<path d="M2.44891 10.2759C1.81453 10.9103 1.61531 11.8624 1.80402 12.8971C2.83875 13.0858 3.79082 12.8866 4.4252 12.2522C5.05957 11.6178 5.25879 10.6658 5.07008 9.63103C4.03535 9.44236 3.08332 9.64154 2.44891 10.2759Z" fill="#FEDA9B"/>
<path d="M7.82766 10.2759C8.46203 10.9103 8.66125 11.8624 8.47254 12.8971C7.43781 13.0858 6.48574 12.8866 5.85137 12.2522C5.21699 11.6179 5.01777 10.6658 5.20649 9.63106C6.24121 9.44239 7.19324 9.64157 7.82766 10.2759ZM2.44891 7.13052C1.81453 7.76489 1.61531 8.71696 1.80402 9.75169C2.83875 9.9404 3.79082 9.74118 4.4252 9.10681C5.05957 8.47243 5.25879 7.52036 5.07008 6.48563C4.03535 6.29692 3.08332 6.49614 2.44891 7.13052Z" fill="#FFC66C"/>
<path d="M2.96721 3.78969C2.14689 4.15297 1.61811 4.96934 1.42139 6.00258C2.31869 6.55133 3.27857 6.70848 4.09893 6.3452C4.91924 5.98192 5.44803 5.16555 5.64475 4.13231C4.74744 3.58352 3.78752 3.42641 2.96721 3.78969Z" fill="#FEDA9B"/>
<path d="M5.27039 0.966778C4.38633 0.814161 3.49355 1.20025 2.75684 1.95096C3.19918 2.90522 3.91082 3.5683 4.79488 3.72096C5.67895 3.87358 6.57172 3.48748 7.30844 2.73678C6.86609 1.78248 6.15445 1.1194 5.27039 0.966778Z" fill="#FFC66C"/>
<path d="M7.82754 7.13052C8.46192 7.76489 8.66113 8.71696 8.47242 9.75169C7.4377 9.9404 6.48563 9.74118 5.85125 9.10681C5.21688 8.47243 5.01766 7.52036 5.20637 6.48563C6.24109 6.29692 7.19313 6.49614 7.82754 7.13052Z" fill="#FEDA9B"/>
<path d="M8.38003 4.47335C8.95456 5.04788 9.13499 5.91015 8.96409 6.8473C8.02694 7.0182 7.16468 6.83777 6.59014 6.26324C6.01561 5.68871 5.83518 4.82644 6.00608 3.88929C6.94319 3.71839 7.80546 3.89882 8.38003 4.47335Z" fill="#FFC66C"/>
<path d="M9.74406 3.3616C9.16953 2.78707 8.30727 2.60664 7.37012 2.77754L6.2627 3.7539L6.38594 3.83925C7.17375 3.77539 7.88414 3.97742 8.38008 4.4734C8.69246 4.78578 8.88809 5.18332 8.9743 5.63164L9.14941 5.75289C9.51551 5.818 9.91449 5.81097 10.3281 5.73558C10.499 4.79839 10.3186 3.93613 9.74406 3.3616Z" fill="#FEDA9B"/>
<path d="M17.1428 15.5139C16.0382 17.4272 14.4885 18.8472 12.8623 19.6094C12.7093 17.8199 13.1642 15.7678 14.2688 13.8546C15.3734 11.9413 16.9232 10.5213 18.5493 9.75912C18.7024 11.5485 18.2475 13.6006 17.1428 15.5139Z" fill="#A0E557"/>
<path d="M16.4653 11.1454C16.5396 10.9095 16.6088 10.672 16.6728 10.433C17.3617 7.86195 17.3906 5.36926 16.8812 3.39523C15.4529 4.85008 14.2316 7.02328 13.5427 9.59434C12.8995 11.9948 12.8318 14.3269 13.2403 16.2324L16.4653 11.1454Z" fill="#D8FB93"/>
<path d="M9.99229 15.7079C10.3792 17.3439 11.2297 18.7103 12.2992 19.6094C12.8526 18.3265 13.0008 16.7239 12.6139 15.0879C12.2269 13.4519 11.3765 12.0855 10.307 11.1864C9.75358 12.4693 9.60534 14.0719 9.99229 15.7079Z" fill="#A0E557"/>
<path d="M11.9531 5.10219C11.9531 6.9325 12.4372 8.59328 13.2238 9.81375C14.0104 8.59324 14.4945 6.93246 14.4945 5.10219C14.4945 3.27191 14.0104 1.61113 13.2238 0.390625C12.4371 1.61113 11.9531 3.27191 11.9531 5.10219Z" fill="#D8FB93"/>
<path d="M3.66504 19.2187C3.5623 19.2187 3.46152 19.2605 3.38887 19.3332C3.31621 19.4058 3.27441 19.5066 3.27441 19.6094C3.27441 19.7121 3.31617 19.8129 3.38887 19.8855C3.46156 19.9582 3.5623 20 3.66504 20C3.76816 20 3.86855 19.9582 3.94117 19.8855C4.01422 19.8129 4.05566 19.7121 4.05566 19.6094C4.05566 19.5066 4.01422 19.4058 3.94117 19.3332C3.86781 19.2601 3.76857 19.219 3.66504 19.2187ZM17.3384 15.1758C17.1516 15.0677 16.9127 15.1317 16.8047 15.3184L16.7949 15.3352C16.6869 15.522 16.7508 15.7609 16.9375 15.8689C16.9819 15.8946 17.031 15.9113 17.0818 15.918C17.1327 15.9248 17.1844 15.9214 17.2339 15.9082C17.2835 15.8949 17.33 15.8721 17.3707 15.8409C17.4114 15.8096 17.4456 15.7707 17.4712 15.7263L17.481 15.7095C17.589 15.5227 17.5252 15.2837 17.3384 15.1758Z" fill="#545454"/>
<path d="M18.9385 9.72585C18.9332 9.66315 18.9127 9.60267 18.879 9.54955C18.8452 9.49644 18.7991 9.45227 18.7446 9.4208C18.6901 9.38934 18.6288 9.37151 18.566 9.36883C18.5031 9.36615 18.4405 9.37871 18.3835 9.40543C17.9631 9.60246 17.5534 9.83863 17.1578 10.1093C17.7382 7.70371 17.7761 5.30015 17.2593 3.29753C17.242 3.23053 17.2073 3.16932 17.1586 3.12017C17.1099 3.07101 17.049 3.03567 16.9822 3.01776C16.9153 2.99986 16.8449 3.00003 16.7782 3.01826C16.7115 3.03649 16.6508 3.07213 16.6023 3.12152C15.9699 3.7657 15.391 4.52906 14.8809 5.38195C14.8833 5.28894 14.8849 5.1957 14.8849 5.10214C14.8849 3.26105 14.4115 1.51261 13.5519 0.178941C13.5165 0.124029 13.4679 0.0788739 13.4105 0.0476073C13.3532 0.0163407 13.2889 -3.82874e-05 13.2235 -3.05148e-05C13.1582 -2.27422e-05 13.0939 0.0163715 13.0366 0.0476518C12.9792 0.078932 12.9306 0.124099 12.8952 0.179019C12.3534 1.01976 11.962 2.03304 11.7486 3.13625C11.0061 2.4966 10.0403 2.10937 8.98578 2.10937C8.50347 2.109 8.02467 2.19134 7.57019 2.35281C7.56514 2.3534 7.56009 2.35401 7.55504 2.35464C7.03523 1.3666 6.25472 0.740308 5.33687 0.58187C4.35336 0.411987 3.338 0.801128 2.47804 1.67738C2.42245 1.73404 2.38544 1.80629 2.37193 1.88451C2.35843 1.96273 2.36908 2.04321 2.40246 2.11523C2.61929 2.58304 2.89097 2.97878 3.20582 3.29339C3.07011 3.32925 2.93745 3.37576 2.80906 3.4325C1.89636 3.83668 1.26726 4.72347 1.03765 5.92953C1.02281 6.0075 1.03207 6.08815 1.06421 6.16074C1.09634 6.23332 1.14983 6.29439 1.21754 6.33582C1.55527 6.54234 1.89625 6.69531 2.23394 6.79492C2.21313 6.81438 2.19263 6.83417 2.17246 6.85429C1.46668 7.56011 1.19925 8.61398 1.41953 9.82179C1.43378 9.89989 1.47148 9.97178 1.52761 10.0279C1.58375 10.084 1.65565 10.1217 1.73375 10.136C1.82687 10.153 1.91894 10.1668 2.01011 10.178C1.42691 10.8773 1.21707 11.8571 1.41953 12.9672C1.43378 13.0453 1.47148 13.1172 1.52761 13.1733C1.58375 13.2295 1.65565 13.2672 1.73375 13.2814C2.00972 13.3318 2.27754 13.3566 2.53515 13.3566C2.85347 13.3566 3.15586 13.3182 3.4382 13.2433C3.37977 13.4651 3.35012 13.6935 3.35 13.9229C3.35 14.9211 3.90609 15.8553 4.91589 16.5536C4.98273 16.5998 5.06039 16.623 5.13808 16.623C5.21578 16.623 5.29343 16.5998 5.36027 16.5536C6.37011 15.8553 6.92621 14.9211 6.92621 13.9229C6.92621 13.6922 6.89613 13.465 6.838 13.2434C7.12039 13.3182 7.42269 13.3566 7.74105 13.3566C7.99859 13.3566 8.26652 13.3317 8.54246 13.2814C8.62056 13.2672 8.69246 13.2295 8.7486 13.1733C8.80474 13.1172 8.84244 13.0453 8.85668 12.9672C9.0591 11.8571 8.84925 10.8773 8.26609 10.178C8.35726 10.1668 8.44937 10.1529 8.54246 10.1359C8.62056 10.1217 8.69246 10.084 8.7486 10.0279C8.80474 9.97172 8.84244 9.89982 8.85668 9.82172C9.03476 8.84504 8.89386 7.96918 8.46031 7.29648C8.64668 7.28859 8.83824 7.26734 9.03433 7.23156C9.11243 7.21732 9.18434 7.17962 9.24048 7.12348C9.29661 7.06735 9.33431 6.99544 9.34855 6.91734C9.39496 6.66281 9.41738 6.41582 9.41695 6.17828C9.50035 6.18429 9.58464 6.18796 9.67027 6.18796C9.90562 6.18796 10.149 6.16519 10.3983 6.11976C10.4764 6.10552 10.5483 6.06782 10.6044 6.01169C10.6606 5.95555 10.6983 5.88364 10.7125 5.80554C10.9142 4.69941 10.6684 3.73332 10.0203 3.08531C10.0023 3.0673 9.9839 3.04956 9.96527 3.03211C11.3959 3.4555 12.4428 4.78148 12.4428 6.34757V13.4C11.9833 12.4081 11.3398 11.5443 10.5583 10.8873C10.5117 10.8482 10.4565 10.8204 10.3973 10.8063C10.338 10.7923 10.2763 10.7922 10.217 10.8062C10.1578 10.8203 10.1026 10.8479 10.0559 10.8871C10.0093 10.9262 9.9724 10.9757 9.94828 11.0316C9.33875 12.4446 9.21933 14.1372 9.61211 15.7978C9.92168 17.1068 10.5249 18.2909 11.3434 19.2187H5.13812C4.92242 19.2187 4.7475 19.3936 4.7475 19.6093C4.7475 19.825 4.92242 19.9999 5.13812 19.9999H17.6376C17.8533 19.9999 18.0282 19.825 18.0282 19.6093C18.0282 19.3936 17.8533 19.2187 17.6376 19.2187H14.3107C15.1183 18.6568 15.8693 17.9471 16.5252 17.1186C16.6591 16.9494 16.6305 16.7037 16.4614 16.5699C16.2922 16.436 16.0466 16.4646 15.9126 16.6337C15.1324 17.6193 14.2116 18.4223 13.224 18.9825V18.9566C13.22 18.1083 13.3512 17.2305 13.6089 16.3598C13.6127 16.3491 13.6159 16.3383 13.6187 16.3273C13.8505 15.5537 14.182 14.786 14.607 14.0498C15.1847 13.0492 15.8993 12.1692 16.7027 11.4552C16.7167 11.4445 16.7299 11.4328 16.7423 11.4202C17.1987 11.0192 17.6832 10.6714 18.1874 10.3857C18.1961 11.5296 17.9576 12.7374 17.4873 13.9141C17.4072 14.1145 17.5047 14.3418 17.7051 14.4218C17.9053 14.5019 18.1327 14.4044 18.2128 14.2041C18.8102 12.7094 19.0612 11.1608 18.9385 9.72585ZM6.99851 9.33086C6.98664 9.32703 6.97457 9.32347 6.96261 9.31976C6.63734 9.22136 6.35453 9.05773 6.12746 8.83058C5.65918 8.3623 5.45816 7.65886 5.55035 6.82961C6.37957 6.73742 7.08308 6.93847 7.55136 7.40671C8.01965 7.87496 8.22062 8.57843 8.12847 9.40773C7.71617 9.45351 7.33511 9.42671 6.99851 9.33086ZM5.54211 6.04535C5.56109 5.82585 5.60116 5.60869 5.66175 5.39687C5.72289 5.62164 5.80968 5.83234 5.92144 6.02636C5.7973 6.02687 5.67074 6.03328 5.54211 6.04535ZM5.20394 1.35171C5.85652 1.46437 6.42629 1.92332 6.8291 2.65402C6.20461 3.20738 5.51402 3.44859 4.86136 3.33601C4.20879 3.22336 3.63902 2.76445 3.23621 2.03371C3.86066 1.48035 4.55129 1.23894 5.20394 1.35171ZM1.86621 5.80562C2.07898 4.99882 2.51988 4.415 3.12539 4.14687C3.73093 3.87875 4.45949 3.94464 5.19992 4.32929C4.98715 5.13609 4.54629 5.71992 3.94078 5.98804C3.83257 6.03573 3.72007 6.07302 3.6048 6.09941C3.58816 6.10289 3.57144 6.10621 3.55496 6.10992C3.03679 6.21519 2.45539 6.11168 1.86621 5.80562ZM2.72496 7.40671C2.98691 7.14476 3.32246 6.96664 3.71242 6.87648C3.71886 6.87515 3.72527 6.87363 3.73168 6.87226C4.03386 6.80496 4.36808 6.78984 4.72597 6.82961C4.81812 7.65886 4.61715 8.3623 4.14886 8.83058C3.92215 9.0573 3.63992 9.22078 3.31535 9.31925C3.30273 9.32316 3.29004 9.32691 3.27746 9.33093C2.94093 9.42675 2.56 9.45351 2.14785 9.40773C2.05566 8.57843 2.25668 7.87503 2.72496 7.40671ZM2.14785 12.5532C2.0557 11.7239 2.25668 11.0205 2.72496 10.5522C2.95715 10.32 3.24726 10.1537 3.58175 10.0561C3.58582 10.0548 3.59004 10.0537 3.5941 10.0525C3.93117 9.95613 4.31289 9.92921 4.72597 9.97507C4.80679 10.7024 4.66203 11.3328 4.30933 11.7928C4.22988 11.8715 4.1539 11.9536 4.0816 12.0389C3.61445 12.4617 2.93871 12.641 2.14785 12.5532ZM6.14496 13.9229C6.14496 14.5852 5.78965 15.2247 5.13812 15.7459C4.4866 15.2247 4.13132 14.5852 4.13132 13.9229C4.13132 13.4484 4.31465 12.9858 4.65773 12.5698C4.67222 12.556 4.68711 12.5427 4.70132 12.5285C4.76815 12.4616 4.83137 12.3913 4.89074 12.3177C4.96977 12.2413 5.05234 12.1686 5.13816 12.0998C5.22405 12.1686 5.30666 12.2413 5.3857 12.3178C5.44504 12.3913 5.50824 12.4616 5.57504 12.5284C5.58922 12.5426 5.60414 12.5559 5.61859 12.5697C5.96164 12.9858 6.14496 13.4484 6.14496 13.9229ZM8.12839 12.5532C7.33718 12.6411 6.66175 12.4617 6.19468 12.0389C6.12239 11.9536 6.04639 11.8714 5.96691 11.7927C5.61422 11.3327 5.46945 10.7023 5.55027 9.97503C5.9625 9.92918 6.34367 9.95597 6.68035 10.0519C6.68605 10.0537 6.69199 10.0553 6.69773 10.0571C7.03082 10.1548 7.31988 10.3207 7.55129 10.5522C8.01957 11.0204 8.22054 11.7239 8.12839 12.5532ZM8.61925 6.5023C7.89254 6.57675 7.27699 6.39753 6.86652 5.98703C6.45605 5.5766 6.27699 4.96117 6.35125 4.23433C7.07847 4.16007 7.69355 4.33914 8.10398 4.74957C8.51441 5.16003 8.69347 5.77543 8.61925 6.5023ZM9.9832 5.3905C9.75144 5.41418 9.52976 5.41187 9.32074 5.38402C9.20339 4.92386 8.98007 4.52082 8.6564 4.19718C8.2455 3.78628 7.70656 3.53734 7.08531 3.4614C7.29242 3.32457 7.515 3.20945 7.74988 3.11921C8.46168 3.05406 9.06398 3.2339 9.46789 3.63781C9.87836 4.04824 10.0574 4.66363 9.9832 5.3905ZM12.4183 3.86464C12.4224 3.84918 12.4258 3.83343 12.428 3.81718C12.5568 2.85175 12.8291 1.95082 13.2237 1.17492C13.7942 2.29558 14.1036 3.66472 14.1036 5.10222C14.1036 6.04269 13.9709 6.95378 13.7196 7.78531C13.6249 8.03197 13.536 8.28082 13.4529 8.53164C13.383 8.70006 13.3066 8.86576 13.224 9.02836V6.34765C13.2241 5.42093 12.9248 4.56293 12.4183 3.86464ZM10.4683 11.8688C11.3084 12.7284 11.9275 13.8833 12.2337 15.1778C12.5398 16.4723 12.5037 17.7822 12.1377 18.927C11.2976 18.0674 10.6785 16.9125 10.3723 15.618C10.0662 14.3236 10.1023 13.0137 10.4683 11.8688ZM13.9305 13.6593C13.7417 13.9864 13.5687 14.3224 13.4121 14.6661C13.2946 13.1041 13.4666 11.3872 13.92 9.69539C14.0007 9.39432 14.0899 9.09557 14.1873 8.79949C14.2891 8.55115 14.3793 8.29822 14.4577 8.04152C15.0219 6.57656 15.7752 5.26625 16.6607 4.21765C16.9915 6.05968 16.8666 8.2 16.2954 10.3318C16.2417 10.531 16.1844 10.7293 16.1234 10.9264C15.2821 11.6862 14.5351 12.612 13.9305 13.6593Z" fill="#545454"/>
</g>
<defs>
<clipPath id="clip0_393_11941">
<rect width="20" height="20" fill="white"/>
</clipPath>
</defs>
</svg>
