<svg width="20" height="20" viewBox="0 0 20 20" fill="none" xmlns="http://www.w3.org/2000/svg">
<g clip-path="url(#clip0_393_11976)">
<path d="M10.0581 12.1964L7.03952 10.4537L4.021 12.1964V15.682L7.03961 17.4248L8.39729 16.641V17.4842C8.39729 17.7044 8.48478 17.9156 8.64051 18.0714C8.79625 18.2271 9.00747 18.3146 9.22771 18.3146C9.44795 18.3146 9.65917 18.2271 9.81491 18.0714C9.97064 17.9156 10.0581 17.7044 10.0581 17.4842V12.1964Z" fill="#FF9200"/>
<path d="M13.0811 10.4537L10.0625 12.1964V15.682L11.7812 16.6744V18.9796C11.7812 19.1998 11.8687 19.411 12.0244 19.5668C12.1801 19.7225 12.3913 19.81 12.6116 19.81C12.8318 19.81 13.043 19.7225 13.1988 19.5668C13.3545 19.411 13.442 19.1998 13.442 18.9796V17.2164L14.4388 16.641V17.9382C14.4388 18.1585 14.5263 18.3697 14.682 18.5254C14.8378 18.6812 15.049 18.7687 15.2692 18.7687C15.4895 18.7687 15.7007 18.6812 15.8564 18.5254C16.0121 18.3697 16.0996 18.1585 16.0996 17.9382V12.1964L13.0811 10.4537Z" fill="#FFB42E"/>
<path d="M16.1021 5.22826L13.0835 6.97104V10.4566L16.1021 12.1994L17.4598 11.4156V14.4115C17.4598 14.5206 17.4813 14.6286 17.523 14.7293C17.5647 14.8301 17.6259 14.9216 17.703 14.9987C17.7801 15.0758 17.8717 15.137 17.9724 15.1787C18.0732 15.2205 18.1812 15.2419 18.2902 15.2419C18.3993 15.2419 18.5072 15.2205 18.608 15.1787C18.7088 15.137 18.8003 15.0758 18.8774 14.9987C18.9545 14.9216 19.0157 14.8301 19.0574 14.7293C19.0992 14.6286 19.1206 14.5206 19.1206 14.4115V6.97104L16.1021 5.22826Z" fill="#FF9200"/>
<path d="M1 6.97113V10.4567L4.01861 12.1995L7.03723 10.4567V6.97113L4.01861 5.22835L1 6.97113Z" fill="#FFB42E"/>
<path d="M2.11311 10.0902C2.03986 10.0902 1.96961 10.0611 1.91781 10.0093C1.86601 9.9575 1.83691 9.88725 1.83691 9.814V7.61384C1.83692 7.56536 1.84969 7.51774 1.87393 7.47576C1.89817 7.43377 1.93303 7.39891 1.97501 7.37466L3.88038 6.27449C3.94383 6.23786 4.01923 6.22794 4.08999 6.24691C4.16075 6.26587 4.22108 6.31217 4.25771 6.37562C4.29433 6.43907 4.30425 6.51447 4.28529 6.58523C4.26632 6.65599 4.22002 6.71632 4.15657 6.75295L2.38939 7.7733V9.81391C2.38939 9.88716 2.36029 9.95741 2.3085 10.0092C2.2567 10.061 2.18645 10.0901 2.1132 10.0901L2.11311 10.0902Z" fill="white"/>
<path d="M7.0415 6.97113V10.4567L10.0601 12.1995L13.0786 10.4567V6.97113L10.0601 5.22835L7.0415 6.97113Z" fill="#F37C22"/>
<path d="M8.1551 10.0902C8.08185 10.0902 8.0116 10.0611 7.9598 10.0093C7.90801 9.9575 7.87891 9.88725 7.87891 9.814V7.61384C7.87892 7.56536 7.89168 7.51774 7.91592 7.47576C7.94016 7.43377 7.97502 7.39891 8.017 7.37466L9.92228 6.27449C9.9537 6.25635 9.98838 6.24458 10.0243 6.23985C10.0603 6.23512 10.0969 6.23751 10.1319 6.2469C10.1669 6.2563 10.1998 6.2725 10.2285 6.29458C10.2573 6.31667 10.2815 6.3442 10.2996 6.37562C10.3177 6.40703 10.3295 6.44171 10.3342 6.47768C10.339 6.51364 10.3366 6.55019 10.3272 6.58523C10.3178 6.62027 10.3016 6.65311 10.2795 6.68189C10.2574 6.71066 10.2299 6.73481 10.1985 6.75295L8.43129 7.7733V9.81391C8.43129 9.88716 8.4022 9.95741 8.3504 10.0092C8.2986 10.061 8.22835 10.0901 8.1551 10.0901V10.0902ZM14.1967 10.0902C14.1235 10.0902 14.0532 10.0611 14.0014 10.0093C13.9497 9.9575 13.9206 9.88725 13.9206 9.814V7.61384C13.9206 7.56536 13.9333 7.51774 13.9576 7.47576C13.9818 7.43377 14.0167 7.39891 14.0587 7.37466L15.964 6.27449C15.9954 6.25635 16.0301 6.24458 16.0661 6.23985C16.102 6.23512 16.1386 6.23751 16.1736 6.2469C16.2087 6.2563 16.2415 6.2725 16.2703 6.29458C16.2991 6.31667 16.3232 6.3442 16.3413 6.37562C16.3595 6.40703 16.3713 6.44171 16.376 6.47768C16.3807 6.51364 16.3783 6.55019 16.3689 6.58523C16.3595 6.62027 16.3433 6.65311 16.3213 6.68189C16.2992 6.71066 16.2716 6.73481 16.2402 6.75295L14.4729 7.7733V9.81391C14.4729 9.88716 14.4438 9.95741 14.392 10.0092C14.3403 10.061 14.27 10.0901 14.1967 10.0901V10.0902Z" fill="white"/>
<path d="M4.021 1.74278V5.22835L7.03952 6.97113L10.0581 5.22835V1.74278L7.03952 0L4.021 1.74278Z" fill="#FF9200"/>
<path d="M5.1341 4.86185C5.06085 4.86185 4.9906 4.83275 4.93881 4.78095C4.88701 4.72916 4.85791 4.65891 4.85791 4.58565V2.38549C4.85792 2.33702 4.87069 2.28939 4.89493 2.24741C4.91917 2.20542 4.95403 2.17056 4.99601 2.14631L6.90147 1.04614C6.96492 1.00951 7.04031 0.999592 7.11108 1.01856C7.18184 1.03752 7.24217 1.08382 7.2788 1.14727C7.31542 1.21072 7.32534 1.28612 7.30638 1.35688C7.28741 1.42764 7.24111 1.48797 7.17766 1.5246L5.41021 2.54495V4.58565C5.41021 4.65891 5.38111 4.72916 5.32931 4.78095C5.27751 4.83275 5.20736 4.86185 5.1341 4.86185Z" fill="white"/>
<path d="M10.0625 1.74278V5.22835L13.0811 6.97113L16.0996 5.22835V1.74278L13.0811 0L10.0625 1.74278Z" fill="#FFB42E"/>
<path d="M11.1758 4.86185C11.1025 4.86185 11.0323 4.83275 10.9805 4.78095C10.9287 4.72916 10.8996 4.65891 10.8996 4.58565V2.38549C10.8996 2.33702 10.9123 2.28939 10.9366 2.24741C10.9608 2.20542 10.9957 2.17056 11.0377 2.14631L12.9431 1.04614C13.0066 1.00951 13.082 0.999592 13.1527 1.01856C13.2235 1.03752 13.2838 1.08382 13.3204 1.14727C13.3571 1.21072 13.367 1.28612 13.348 1.35688C13.3291 1.42764 13.2828 1.48797 13.2193 1.5246L11.4519 2.54495V4.58565C11.4519 4.65891 11.4228 4.72916 11.3711 4.78095C11.3193 4.83275 11.249 4.86185 11.1758 4.86185ZM5.1341 15.3155C5.06085 15.3155 4.9906 15.2864 4.93881 15.2346C4.88701 15.1828 4.85791 15.1126 4.85791 15.0393V12.8392C4.85792 12.7908 4.87069 12.7431 4.89493 12.7012C4.91917 12.6592 4.95403 12.6243 4.99601 12.6001L6.90147 11.4999C6.96492 11.4633 7.04031 11.4533 7.11108 11.4723C7.18184 11.4913 7.24217 11.5376 7.2788 11.601C7.31542 11.6645 7.32534 11.7399 7.30638 11.8106C7.28741 11.8814 7.24111 11.9417 7.17766 11.9784L5.41021 12.9987V15.0393C5.41021 15.1126 5.38111 15.1828 5.32931 15.2346C5.27751 15.2864 5.20736 15.3155 5.1341 15.3155ZM11.1758 15.3155C11.1025 15.3155 11.0323 15.2864 10.9805 15.2346C10.9287 15.1828 10.8996 15.1126 10.8996 15.0393V12.8392C10.8996 12.7908 10.9123 12.7431 10.9366 12.7012C10.9608 12.6592 10.9957 12.6243 11.0377 12.6001L12.9431 11.4999C13.0066 11.4633 13.082 11.4533 13.1527 11.4723C13.2235 11.4913 13.2838 11.5376 13.3204 11.601C13.3571 11.6645 13.367 11.7399 13.348 11.8106C13.3291 11.8814 13.2828 11.9417 13.2193 11.9784L11.4519 12.9987V15.0393C11.4519 15.1126 11.4228 15.1828 11.3711 15.2346C11.3193 15.2864 11.249 15.3155 11.1758 15.3155Z" fill="white"/>
</g>
<defs>
<clipPath id="clip0_393_11976">
<rect width="20" height="20" fill="white"/>
</clipPath>
</defs>
</svg>
