<svg width="20" height="20" viewBox="0 0 20 20" fill="none" xmlns="http://www.w3.org/2000/svg">
<path d="M13.1844 4.1525C12.1693 2.92335 11.269 1.60376 10.4948 0.210286C10.456 0.14611 10.4013 0.0930346 10.336 0.0561953C10.2707 0.019356 10.197 0 10.122 0C10.047 0 9.97325 0.019356 9.90793 0.0561953C9.84261 0.0930346 9.7879 0.14611 9.74911 0.210286C8.99606 1.5573 8.12249 2.8333 7.13912 4.02263C5.19943 6.53626 3 9.38924 3 12.548C3 14.4369 3.75035 16.2484 5.08597 17.584C6.4216 18.9197 8.2331 19.67 10.122 19.67C12.0108 19.67 13.8223 18.9197 15.158 17.584C16.4936 16.2484 17.2439 14.4369 17.2439 12.548C17.2439 9.41018 15.1827 6.73735 13.1844 4.1525ZM10.122 18.8321C8.45593 18.8301 6.85871 18.1674 5.68065 16.9894C4.50259 15.8113 3.83987 14.2141 3.83788 12.548C3.83788 9.67412 5.85297 7.05994 7.80104 4.53374C8.63943 3.49488 9.41447 2.40646 10.122 1.27439C10.8487 2.45442 11.6505 3.5865 12.5225 4.66361C14.4328 7.13954 16.406 9.69506 16.406 12.548C16.4041 14.2141 15.7413 15.8113 14.5633 16.9894C13.3852 18.1674 11.788 18.8301 10.122 18.8321Z" fill="#17193F"/>
<path d="M12.5225 4.6636C11.6505 3.58649 10.8487 2.45441 10.122 1.27438C9.41448 2.40645 8.63944 3.49487 7.80105 4.53373C5.85299 7.05993 3.83789 9.67411 3.83789 12.548C3.83789 14.2147 4.49996 15.8131 5.67846 16.9915C6.85695 18.17 8.45533 18.8321 10.122 18.8321C11.7886 18.8321 13.387 18.17 14.5655 16.9915C15.744 15.8131 16.4061 14.2147 16.4061 12.548C16.4061 9.69506 14.4329 7.13953 12.5225 4.6636ZM7.29833 16.1844C7.26058 16.2244 7.21526 16.2565 7.16501 16.2788C7.11476 16.3011 7.06057 16.3131 7.0056 16.3143C6.95064 16.3155 6.89599 16.3057 6.84483 16.2856C6.79368 16.2654 6.74704 16.2353 6.70762 16.197C6.19599 15.7037 5.78937 15.1121 5.51219 14.4577C5.23502 13.8032 5.09301 13.0995 5.09471 12.3888C5.1049 11.5969 5.26851 10.8144 5.57649 10.0847C5.6176 9.98134 5.69807 9.89857 5.80021 9.85457C5.90235 9.81057 6.01778 9.80895 6.12111 9.85006C6.22444 9.89117 6.30721 9.97165 6.35121 10.0738C6.3952 10.1759 6.39682 10.2914 6.35571 10.3947C6.08624 11.0255 5.94251 11.7029 5.93259 12.3888C5.93127 12.9865 6.05042 13.5784 6.28291 14.129C6.51541 14.6797 6.85648 15.1778 7.28576 15.5937C7.32543 15.6316 7.35723 15.677 7.37934 15.7273C7.40145 15.7775 7.41343 15.8316 7.4146 15.8865C7.41577 15.9413 7.4061 15.9959 7.38614 16.047C7.36619 16.0982 7.33635 16.1448 7.29833 16.1844ZM7.89741 7.76375C7.53293 8.27066 7.25643 8.6896 7.02183 9.08759C6.98469 9.15008 6.93196 9.20184 6.8688 9.23783C6.80564 9.27381 6.73423 9.29278 6.66154 9.29287C6.58623 9.29371 6.5122 9.27339 6.44788 9.23422C6.35268 9.17724 6.28385 9.08494 6.25639 8.97744C6.22893 8.86994 6.24505 8.75594 6.30125 8.66028C6.54843 8.24134 6.83749 7.80145 7.21454 7.27778C7.27898 7.18722 7.37676 7.12598 7.48636 7.10752C7.59596 7.08905 7.7084 7.11488 7.79896 7.17933C7.88951 7.24377 7.95076 7.34155 7.96922 7.45115C7.98768 7.56075 7.96185 7.67319 7.89741 7.76375Z" fill="#FFC200"/>
<path d="M7.89744 7.76374C7.53297 8.27066 7.25647 8.68959 7.02186 9.08759C6.98472 9.15007 6.93199 9.20183 6.86883 9.23782C6.80568 9.2738 6.73426 9.29277 6.66157 9.29287C6.58627 9.29371 6.51224 9.27338 6.44791 9.23421C6.35272 9.17723 6.28389 9.08493 6.25642 8.97743C6.22896 8.86993 6.24509 8.75593 6.30129 8.66027C6.54846 8.24133 6.83753 7.80144 7.21457 7.27777C7.24648 7.23293 7.28691 7.19482 7.33355 7.1656C7.38019 7.13639 7.43212 7.11665 7.48639 7.10751C7.54066 7.09837 7.5962 7.1 7.64984 7.11232C7.70347 7.12464 7.75415 7.14741 7.79899 7.17932C7.84383 7.21123 7.88194 7.25166 7.91116 7.2983C7.94037 7.34493 7.96011 7.39687 7.96926 7.45114C7.9784 7.50541 7.97676 7.56095 7.96444 7.61458C7.95212 7.66822 7.92935 7.7189 7.89744 7.76374ZM7.29836 16.1844C7.26061 16.2244 7.2153 16.2565 7.16504 16.2788C7.11479 16.3011 7.0606 16.3131 7.00564 16.3143C6.95067 16.3155 6.89602 16.3057 6.84487 16.2856C6.79371 16.2654 6.74707 16.2353 6.70766 16.197C6.19602 15.7037 5.7894 15.1121 5.51223 14.4576C5.23505 13.8032 5.09304 13.0995 5.09474 12.3888C5.10494 11.5969 5.26855 10.8144 5.57652 10.0847C5.61763 9.98133 5.69811 9.89856 5.80024 9.85456C5.90238 9.81057 6.01781 9.80894 6.12114 9.85006C6.22447 9.89117 6.30724 9.97164 6.35124 10.0738C6.39524 10.1759 6.39686 10.2913 6.35575 10.3947C6.08628 11.0255 5.94255 11.7029 5.93262 12.3888C5.93131 12.9865 6.05045 13.5784 6.28295 14.129C6.51544 14.6797 6.85651 15.1778 7.28579 15.5937C7.32547 15.6316 7.35727 15.677 7.37938 15.7272C7.40148 15.7775 7.41347 15.8316 7.41463 15.8865C7.4158 15.9413 7.40613 15.9959 7.38618 16.047C7.36623 16.0981 7.33638 16.1448 7.29836 16.1844Z" fill="white"/>
</svg>
