<svg width="20" height="20" viewBox="0 0 20 20" fill="none" xmlns="http://www.w3.org/2000/svg">
<path d="M5.37281 4.52406L6.04094 4.79125C6.42329 4.94416 6.83369 5.0144 7.24514 4.99732C7.65658 4.98025 8.05975 4.87626 8.42812 4.69219L8.44656 4.68281C8.85157 4.48035 9.29815 4.37496 9.75094 4.375H9.93656C10.3894 4.375 10.8356 4.48031 11.2406 4.68281L11.2591 4.69219C11.6641 4.89465 12.1106 5.00004 12.5634 5H12.6519C12.9653 4.99994 13.2767 4.9494 13.5741 4.85031L14.6169 4.50281C14.8611 5.00216 15.2732 5.39948 15.7812 5.625C16.1998 5.81104 16.5554 6.11446 16.805 6.4985C17.0546 6.88254 17.1875 7.33073 17.1875 7.78875V17.5C17.1875 17.9973 16.99 18.4742 16.6383 18.8258C16.2867 19.1775 15.8098 19.375 15.3125 19.375H4.6875C4.19022 19.375 3.71331 19.1775 3.36167 18.8258C3.01004 18.4742 2.8125 17.9973 2.8125 17.5V7.78875C2.81251 7.33072 2.94536 6.88252 3.19496 6.49847C3.44456 6.11442 3.80019 5.81101 4.21875 5.625C4.7193 5.4027 5.12719 5.01359 5.37281 4.52406Z" fill="#F5CF88"/>
<path d="M10.5744 4.44719C10.3651 4.39984 10.1512 4.37564 9.93656 4.375H9.75094C9.29825 4.37496 8.85177 4.48035 8.44688 4.68281L8.42844 4.69219C8.06006 4.87639 7.65684 4.98048 7.24533 4.99761C6.83382 5.01474 6.42335 4.94451 6.04094 4.79156L5.37281 4.52437C5.12709 5.01375 4.71922 5.40274 4.21875 5.625C3.80021 5.81104 3.4446 6.11446 3.19501 6.4985C2.94541 6.88254 2.81254 7.33073 2.8125 7.78875V13.2072C6.76719 11.9441 9.78625 8.59156 10.5744 4.44719Z" fill="#FADFB2"/>
<path d="M14.6168 4.50281L13.574 4.85031C13.2767 4.94943 12.9654 4.99997 12.6521 5H12.5637C12.111 5.00004 11.6645 4.89465 11.2596 4.69219L11.2412 4.68281C10.8362 4.48035 10.3896 4.37496 9.9368 4.375H9.75117C9.29848 4.37496 8.852 4.48035 8.44711 4.68281L8.42867 4.69219C8.06029 4.87639 7.65708 4.98048 7.24557 4.99761C6.83406 5.01474 6.42358 4.94451 6.04117 4.79156L5.37305 4.52437C5.53899 4.19456 5.62536 3.83046 5.62523 3.46125V3.125H14.3752V3.46125C14.3752 3.82969 14.4609 4.18469 14.6168 4.50281Z" fill="#C7E2FC"/>
<path d="M10.8823 17.13C12.7047 15.8575 14.0998 14.0639 14.8845 11.9844L15.7614 9.66564C15.982 9.08153 15.9955 8.43941 15.7995 7.84657C15.6063 7.26021 15.1881 6.77455 14.637 6.49626C14.336 6.34451 14.0054 6.26068 13.6685 6.25069C13.3315 6.2407 12.9965 6.3048 12.687 6.43845C11.9559 6.75496 11.3727 7.33801 11.0561 8.06907L10.9364 8.34439C9.9434 10.6324 8.4799 12.6858 6.6411 14.3709C6.28311 14.6991 6.04563 15.138 5.96672 15.6172C5.91063 15.955 5.93552 16.3012 6.03934 16.6275C6.14316 16.9538 6.32294 17.2508 6.56391 17.4941C6.79328 17.7257 7.07278 17.9015 7.38086 18.008C7.68894 18.1144 8.01736 18.1487 8.34078 18.1081C9.25474 17.993 10.127 17.6573 10.8823 17.13Z" fill="#78B75B"/>
<path d="M6.26143 17.1113C6.53115 17.1856 6.8129 17.2059 7.09049 17.1709C8.00456 17.0556 8.87689 16.7198 9.63236 16.1925C11.4547 14.92 12.8498 13.1264 13.6346 11.0469L14.5114 8.72813C14.732 8.14403 14.7455 7.5019 14.5496 6.90907C14.4845 6.71231 14.3936 6.52505 14.2792 6.35219C13.7659 6.19383 13.2134 6.21992 12.7174 6.42594C12.8677 6.97956 12.8395 7.56649 12.6367 8.10313L11.7599 10.4219C10.9748 12.5012 9.57978 14.2948 7.75768 15.5675C7.21744 15.9443 6.61591 16.2245 5.97986 16.3956L5.97705 16.3831C6.02655 16.6412 6.12294 16.888 6.26143 17.1113Z" fill="#669E4F"/>
<path d="M9.11743 17.13C7.29509 15.8575 5.9 14.0639 5.11525 11.9844L4.23837 9.66564C4.01776 9.08153 4.0043 8.43941 4.20025 7.84657C4.39352 7.26021 4.81163 6.77455 5.36275 6.49626C5.66374 6.34451 5.99438 6.26068 6.33132 6.25069C6.66826 6.2407 7.00329 6.3048 7.31275 6.43845C8.04387 6.75496 8.62703 7.33801 8.94368 8.06907L9.06337 8.34439C10.0564 10.6324 11.5199 12.6858 13.3587 14.3709C13.7167 14.6991 13.9541 15.138 14.0331 15.6172C14.0891 15.955 14.0643 16.3012 13.9604 16.6275C13.8566 16.9538 13.6768 17.2508 13.4359 17.4941C13.2065 17.7257 12.927 17.9015 12.6189 18.008C12.3108 18.1144 11.9824 18.1487 11.659 18.1081C10.745 17.993 9.87279 17.6573 9.11743 17.13Z" fill="#96CC7F"/>
<path d="M13.7384 17.1113C13.4686 17.1856 13.1869 17.2059 12.9093 17.1709C11.9952 17.0556 11.1229 16.7198 10.3674 16.1925C8.54509 14.92 7.15 13.1264 6.36525 11.0469L5.48837 8.72813C5.26776 8.14403 5.2543 7.5019 5.45025 6.90907C5.51533 6.71231 5.60623 6.52505 5.72056 6.35219C6.23385 6.19383 6.78635 6.21992 7.28243 6.42594C7.13212 6.97956 7.16034 7.56649 7.36306 8.10313L8.23993 10.4219C9.025 12.5012 10.42 14.2948 12.2421 15.5675C12.7824 15.9443 13.3839 16.2245 14.0199 16.3956L14.0227 16.3831C13.9732 16.6412 13.8769 16.888 13.7384 17.1113Z" fill="#78B75B"/>
<path d="M14.375 3.125H5.625C5.45924 3.125 5.30027 3.05915 5.18306 2.94194C5.06585 2.82473 5 2.66576 5 2.5V1.25C5 1.08424 5.06585 0.925268 5.18306 0.808058C5.30027 0.690848 5.45924 0.625 5.625 0.625H14.375C14.5408 0.625 14.6997 0.690848 14.8169 0.808058C14.9342 0.925268 15 1.08424 15 1.25V2.5C15 2.66576 14.9342 2.82473 14.8169 2.94194C14.6997 3.05915 14.5408 3.125 14.375 3.125Z" fill="#758190"/>
<path d="M14.375 1.5625H5.625C5.45924 1.5625 5.30027 1.62835 5.18306 1.74556C5.06585 1.86277 5 2.02174 5 2.1875V2.5C5 2.66576 5.06585 2.82473 5.18306 2.94194C5.30027 3.05915 5.45924 3.125 5.625 3.125H14.375C14.5408 3.125 14.6997 3.05915 14.8169 2.94194C14.9342 2.82473 15 2.66576 15 2.5V2.1875C15 2.02174 14.9342 1.86277 14.8169 1.74556C14.6997 1.62835 14.5408 1.5625 14.375 1.5625Z" fill="#8892A0"/>
<path d="M5.9375 1.56219H6.5625V3.12438H5.9375V1.56219ZM7.1875 1.56219H7.8125V3.12438H7.1875V1.56219ZM8.4375 1.56219H9.0625V3.12438H8.4375V1.56219ZM9.6875 1.56219H10.3125V3.12438H9.6875V1.56219ZM10.9375 1.56219H11.5625V3.12438H10.9375V1.56219ZM12.1875 1.56219H12.8125V3.12438H12.1875V1.56219ZM13.4375 1.56219H14.0625V3.12438H13.4375V1.56219Z" fill="#A8B0BC"/>
<path d="M5.62523 3.125V3.46125C5.62532 3.83042 5.53907 4.19418 5.37336 4.52406L6.04148 4.79156C6.42386 4.94419 6.83419 5.01424 7.24555 4.99711C7.6569 4.97998 8.05999 4.87607 8.42836 4.69219L8.4468 4.68281C8.8518 4.48035 9.29838 4.37496 9.75117 4.375H9.9368C10.1521 4.375 10.3659 4.40062 10.5746 4.44719C10.6573 4.01015 10.7146 3.56868 10.7462 3.125H5.62523Z" fill="#EBF7FE"/>
<path d="M15.9078 5.33907C15.5447 5.17737 15.2362 4.91394 15.0197 4.58064C14.8031 4.24733 14.6877 3.85843 14.6875 3.46094V3.37907C14.8698 3.31483 15.0277 3.19576 15.1396 3.0382C15.2515 2.88064 15.3119 2.69232 15.3125 2.49907V1.24969C15.3125 0.73282 14.8919 0.312195 14.375 0.312195H5.625C5.10812 0.312195 4.6875 0.73282 4.6875 1.24969V2.49938C4.6875 2.90626 4.94969 3.25001 5.3125 3.37938V3.46094C5.31213 3.85852 5.19663 4.24747 4.97997 4.58081C4.7633 4.91416 4.45474 5.17763 4.09156 5.33938C3.61792 5.55014 3.21552 5.89367 2.93305 6.32837C2.65059 6.76308 2.50017 7.27034 2.5 7.78876V17.4997C2.5 18.7059 3.48125 19.6872 4.6875 19.6872H15.3125C16.5184 19.6872 17.5 18.7059 17.5 17.4997V7.78876C17.5 6.73032 16.875 5.76907 15.9078 5.33907ZM5.9375 3.43688H14.0625V3.46094C14.0625 3.75501 14.1153 4.04001 14.2056 4.31001L13.475 4.55376C13.2095 4.64224 12.9314 4.68741 12.6516 4.68751H12.5634C12.1523 4.6861 11.7471 4.58861 11.3803 4.40282C10.9317 4.17945 10.4374 4.06298 9.93625 4.06251H9.75062C9.25187 4.06251 8.75281 4.18001 8.28813 4.4122C7.95874 4.57506 7.59888 4.6671 7.23175 4.68238C6.86461 4.69767 6.49835 4.63586 6.15656 4.50095L5.77875 4.34969C5.88211 4.06471 5.93581 3.76409 5.9375 3.46094V3.43688ZM5.3125 1.24969C5.3125 1.16681 5.34542 1.08733 5.40403 1.02872C5.46263 0.970119 5.54212 0.937195 5.625 0.937195H14.375C14.4579 0.937195 14.5374 0.970119 14.596 1.02872C14.6546 1.08733 14.6875 1.16681 14.6875 1.24969V2.49938C14.6875 2.58226 14.6546 2.66175 14.596 2.72035C14.5374 2.77896 14.4579 2.81188 14.375 2.81188H14.0625V1.56219H13.4375V2.81188H12.8125V1.56219H12.1875V2.81188H11.5625V1.56219H10.9375V2.81188H10.3125V1.56219H9.6875V2.81188H9.0625V1.56219H8.4375V2.81188H7.8125V1.56219H7.1875V2.81188H6.5625V1.56219H5.9375V2.81188H5.625C5.54212 2.81188 5.46263 2.77896 5.40403 2.72035C5.34542 2.66175 5.3125 2.58226 5.3125 2.49938V1.24969ZM16.875 17.4997C16.875 18.3616 16.1741 19.0622 15.3125 19.0622H4.6875C3.82594 19.0622 3.125 18.3616 3.125 17.4997V7.78844C3.12531 7.3909 3.24074 7.00195 3.45735 6.6686C3.67396 6.33526 3.98248 6.07178 4.34563 5.91001C4.82171 5.69826 5.2257 5.35225 5.50812 4.91438L5.925 5.08126C6.77125 5.42032 7.73687 5.38688 8.58656 4.96219C8.94828 4.78197 9.34681 4.68796 9.75094 4.68751H9.93656C10.3388 4.68751 10.7416 4.78251 11.1197 4.97157C11.5683 5.19496 12.0626 5.31154 12.5637 5.31219H12.6519C12.9994 5.31219 13.3428 5.25657 13.6731 5.14657L14.4731 4.87969C14.7551 5.3336 15.1667 5.69259 15.6547 5.91032C16.0178 6.07214 16.3262 6.33564 16.5428 6.66898C16.7593 7.00232 16.8747 7.39125 16.875 7.78876V17.4997Z" fill="#545454"/>
<path d="M14.7775 6.21719C14.4357 6.04476 14.0602 5.94951 13.6776 5.93817C13.2949 5.92683 12.9145 5.99968 12.5631 6.15157C11.7583 6.49851 11.1166 7.14001 10.7693 7.94469L10.6496 8.22032C10.4512 8.67078 10.2339 9.11274 9.9984 9.54501C9.76389 9.11261 9.54766 8.67056 9.35027 8.22001L9.23058 7.94501C8.88337 7.14024 8.24166 6.49864 7.43683 6.15157C7.08545 5.99968 6.70499 5.92683 6.32235 5.93817C5.93971 5.94951 5.56423 6.04476 5.22246 6.21719C4.91245 6.37274 4.63631 6.58813 4.40996 6.85095C4.18362 7.11376 4.01156 7.41879 3.90371 7.74844C3.68572 8.40927 3.70072 9.12483 3.94621 9.77594L4.82308 12.095C5.14853 12.9524 5.57642 13.7672 6.09746 14.5219C5.87234 14.8313 5.72205 15.1887 5.6584 15.5659C5.59466 15.9526 5.62339 16.3488 5.74223 16.7221C5.86108 17.0955 6.06666 17.4354 6.34215 17.7141C6.60432 17.9807 6.92468 18.183 7.27811 18.3052C7.63155 18.4273 8.00846 18.466 8.37933 18.4181C8.93772 18.3469 9.48323 18.1971 9.99965 17.9731C10.5164 18.1968 11.0621 18.3466 11.6206 18.4181C11.9914 18.4659 12.3683 18.4272 12.7217 18.3051C13.0751 18.183 13.3955 17.9808 13.6578 17.7144C13.9332 17.4357 14.1387 17.0958 14.2576 16.7224C14.3764 16.3491 14.4052 15.9529 14.3415 15.5663C14.2767 15.1888 14.1257 14.8315 13.9003 14.5219C14.4219 13.7674 14.8505 12.9527 15.1765 12.0953L16.0534 9.77626C16.2987 9.12511 16.3137 8.40961 16.0959 7.74876C15.9883 7.41896 15.8164 7.11378 15.5901 6.85088C15.3638 6.58798 15.0876 6.3726 14.7775 6.21719ZM14.0728 6.61969C14.145 6.74282 14.2081 6.87126 14.2528 7.00719C14.4259 7.53194 14.414 8.10017 14.219 8.61719L13.3421 10.9363C13.0801 11.6249 12.7479 12.2849 12.3509 12.9056C12.0403 12.5572 11.7439 12.1964 11.4625 11.8241C11.6854 11.4062 11.8821 10.9748 12.0515 10.5325L12.9284 8.21344C13.1195 7.70997 13.1721 7.16445 13.0806 6.63376C13.4048 6.54526 13.7462 6.54042 14.0728 6.61969ZM11.2228 8.46938L11.3425 8.19376C11.5777 7.65095 11.9782 7.19616 12.4868 6.89407C12.5257 7.26622 12.4769 7.6423 12.3443 7.99219L11.4675 10.3113C11.3456 10.6334 11.2018 10.9488 11.049 11.2591C10.8066 10.9103 10.5772 10.5526 10.3612 10.1869C10.6782 9.62985 10.9658 9.05656 11.2228 8.46938ZM8.65715 8.19407L8.77683 8.46907C9.78425 10.7991 11.2739 12.8893 13.1478 14.6019C13.4536 14.8832 13.6567 15.2586 13.725 15.6684C13.7421 15.7728 13.7471 15.8775 13.7465 15.9819C13.2758 15.8209 12.8297 15.5952 12.4212 15.3113C10.6487 14.0768 9.29268 12.3334 8.53246 10.3116L7.65558 7.99251C7.52278 7.64266 7.47387 7.26655 7.51277 6.89438C8.02164 7.19622 8.42215 7.65109 8.65715 8.19407ZM6.39933 6.56188C6.57371 6.56188 6.74808 6.58719 6.91871 6.63344C6.82752 7.16428 6.88017 7.70985 7.07121 8.21344L7.94808 10.5325C8.76152 12.6838 10.1846 14.5131 12.0637 15.8234C12.5466 16.1588 13.0764 16.421 13.6359 16.6016C13.6075 16.68 13.5734 16.7563 13.5346 16.8306C13.3415 16.87 13.1459 16.8856 12.9484 16.8606C12.0848 16.7506 11.2607 16.4334 10.5462 15.9359C8.77371 14.7015 7.41768 12.9581 6.65746 10.9363L5.78058 8.61719C5.58559 8.10017 5.57368 7.53194 5.74683 7.00719C5.79298 6.87213 5.85332 6.74234 5.92683 6.62001C6.08143 6.58171 6.24007 6.5622 6.39933 6.56188ZM6.9934 15.6656C6.75496 15.7903 6.50746 15.8966 6.25308 15.9844C6.25109 15.8786 6.25831 15.7729 6.27465 15.6684C6.30996 15.4547 6.3859 15.2528 6.48996 15.0663C6.65083 15.2718 6.81874 15.4717 6.9934 15.6656ZM6.46496 16.8303C6.42644 16.757 6.39292 16.6812 6.36465 16.6034C6.73871 16.4813 7.09902 16.3222 7.44183 16.1294C7.62299 16.3085 7.81008 16.4815 8.00277 16.6481C7.69246 16.7466 7.37465 16.82 7.05121 16.8606C6.85545 16.8828 6.65739 16.8725 6.46496 16.8303ZM8.30121 17.7981C7.85734 17.8537 7.40866 17.7424 7.04215 17.4859C7.07121 17.4834 7.10027 17.4841 7.12933 17.4803C7.62357 17.4169 8.10795 17.292 8.57121 17.1084C8.6934 17.2013 8.81215 17.2975 8.93871 17.3856C9.03933 17.4559 9.14246 17.5228 9.24715 17.5869C8.93902 17.6844 8.6234 17.7575 8.30121 17.7981ZM11.6984 17.7981C10.8348 17.6881 10.0107 17.3709 9.29621 16.8734C7.52371 15.639 6.16768 13.8956 5.40746 11.8738L4.53058 9.55469C4.33559 9.03767 4.32368 8.46944 4.49683 7.94469C4.61028 7.60664 4.81178 7.30493 5.08058 7.07063C4.94308 7.65832 4.98321 8.2736 5.1959 8.83844L6.07277 11.1575C6.88621 13.3088 8.30933 15.1381 10.1884 16.4484C10.986 17.0038 11.9061 17.358 12.8703 17.4806C12.8993 17.4844 12.9284 17.4834 12.9571 17.4863C12.5907 17.7426 12.1421 17.8538 11.6984 17.7981ZM15.469 9.55469L14.5921 11.8738C14.3014 12.6372 13.9246 13.365 13.469 14.0431C13.237 13.8269 13.0108 13.6045 12.7906 13.3763C13.2493 12.6804 13.6303 11.9364 13.9268 11.1575L14.8037 8.83844C15.0164 8.2737 15.0565 7.65853 14.919 7.07094C15.1878 7.30516 15.3893 7.60675 15.5028 7.94469C15.6759 8.46944 15.664 9.03767 15.469 9.55469Z" fill="#545454"/>
</svg>
