<svg width="20" height="20" viewBox="0 0 20 20" fill="none" xmlns="http://www.w3.org/2000/svg">
<g clip-path="url(#clip0_393_12009)">
<path d="M19.3807 2.82937C19.6858 3.13444 19.6858 3.62894 19.3807 3.93401L18.1143 5.20077C17.8284 5.48671 17.3753 5.50468 17.0687 5.25429C17.048 5.2374 17.0282 5.21954 17.0093 5.20077L14.802 2.99343L14.7996 2.99108C14.4945 2.68601 14.4945 2.19112 14.7996 1.88604L16.0664 0.619678C16.3714 0.3146 16.8659 0.3146 17.171 0.619678L19.3807 2.82937Z" fill="#FED42D"/>
<path d="M7.08584 7.45773L12.6075 12.9794C10.7846 14.7834 8.96187 16.5877 7.13936 18.3921L7.11006 18.3628L1.64541 12.8982L1.61572 12.8681L7.0835 7.45538L7.08584 7.45773Z" fill="#F0E6DE"/>
<path d="M7.1097 18.3628L7.139 18.3921C6.88354 18.645 6.62822 18.8979 6.37302 19.1511C5.7629 19.7616 4.77345 19.7616 4.16333 19.1511L0.848994 15.8367C0.238486 15.2266 0.238486 14.2371 0.848994 13.627L1.61536 12.8681L1.64505 12.8982L7.1097 18.3628ZM7.41985 12.4946C8.39247 11.7853 9.8065 14.4118 6.69333 14.4118C5.58829 14.4118 4.62153 13.1638 4.62153 13.1638H5.72657C6.36052 13.1638 6.99446 12.8048 7.41985 12.4946ZM17.0683 5.2543L17.0601 5.27969C16.8174 5.42996 16.6092 5.64774 16.4734 5.8902C15.7895 7.11125 15.6219 7.75965 14.6321 8.74945L13.438 9.94356C12.904 10.4775 13.2357 10.6306 13.3607 11.215C13.465 11.7029 13.3794 12.2099 13.0279 12.5634L13.0275 12.5638L13.0267 12.5646C13.0115 12.5794 12.8579 12.731 12.6072 12.9794L7.08548 7.45774L7.08314 7.45539L7.50189 7.04094C7.85501 6.68781 8.36357 6.60188 8.85185 6.70656C9.43657 6.83117 9.5897 7.16281 10.1237 6.62922L11.3178 5.43473C12.3076 4.44531 12.9556 4.27774 14.177 3.59379C14.5701 3.37367 14.7565 3.04895 14.8016 2.99344C17.1428 5.33215 17.0033 5.20047 17.0683 5.2543Z" fill="#FD6244"/>
<path d="M7.10752 10.1307C7.14383 10.0944 7.17264 10.0513 7.19229 10.0039C7.21195 9.95648 7.22206 9.90565 7.22206 9.85432C7.22206 9.80299 7.21195 9.75216 7.19229 9.70475C7.17264 9.65733 7.14383 9.61425 7.10752 9.57797C6.95518 9.42563 6.70791 9.42563 6.55518 9.57797C6.40283 9.73071 6.40283 9.97797 6.55518 10.1307C6.70791 10.283 6.95518 10.283 7.10752 10.1307Z" fill="#545454"/>
<path d="M17.4473 0.34371C16.9894 -0.114101 16.2483 -0.114375 15.7902 0.343671L14.5235 1.61008C14.1425 1.99101 14.0867 2.555 14.3159 2.98667C14.2215 3.09124 14.112 3.183 13.9865 3.2532C12.7778 3.93011 12.0809 4.12019 11.0419 5.15878L9.84796 6.35315C9.68581 6.51518 9.61655 6.53089 9.60433 6.53237C9.52714 6.54218 9.27452 6.39737 8.93413 6.32487C8.27066 6.18249 7.648 6.34296 7.22753 6.7635L0.573329 13.351C-0.190263 14.114 -0.190615 15.3497 0.573212 16.1131L3.8875 19.4274C4.65063 20.191 5.88633 20.1913 6.64968 19.4275C6.82183 19.2554 13.2572 12.8861 13.2995 12.8449L13.3034 12.841L13.3071 12.8372C13.7255 12.4152 13.8844 11.7944 13.7431 11.1336C13.6698 10.7907 13.5257 10.5421 13.5353 10.4637C13.5368 10.4515 13.5524 10.3823 13.7147 10.2201L14.9088 9.026C15.9475 7.98733 16.1374 7.29073 16.8147 6.08139C16.8847 5.95647 16.9811 5.83679 17.1075 5.72886C17.5567 5.91932 18.0588 5.80921 18.3908 5.47722L19.657 4.2105C20.115 3.75261 20.1151 3.01148 19.6571 2.55339L17.4473 0.34371ZM7.14078 17.8413L2.16958 12.87L7.08226 8.00666L12.0538 12.9782C10.8808 14.1391 8.51132 16.4841 7.14078 17.8413ZM4.44 18.8751L1.12555 15.5606C0.665399 15.1008 0.669618 14.3592 1.1243 13.9048L1.61438 13.4197L6.58574 18.391C6.4228 18.5523 6.25995 18.7137 6.09718 18.8752C5.6393 19.3333 4.89812 19.3335 4.44 18.8751ZM16.133 5.69956C15.4481 6.92225 15.2949 7.53495 14.3563 8.47354L13.1622 9.66764C12.4439 10.386 12.8746 10.8085 12.9791 11.297C13.0644 11.6956 12.9813 12.0569 12.7517 12.2878C12.704 12.3347 12.6565 12.3816 12.609 12.4286L7.63745 7.45706L7.77855 7.31737C8.00952 7.08643 8.37093 7.00315 8.77085 7.08881C9.25983 7.19303 9.68194 7.62354 10.4004 6.90561L11.5944 5.7112C12.5333 4.77265 13.146 4.61941 14.3683 3.9348C14.5394 3.83894 14.689 3.72273 14.8328 3.57671L16.4908 5.2348C16.3408 5.38198 16.2243 5.53663 16.133 5.69956ZM19.1045 3.65804L17.8382 4.9248C17.802 4.96127 17.7589 4.99021 17.7115 5.00997C17.6641 5.02972 17.6132 5.03989 17.5619 5.03989C17.5105 5.03988 17.4596 5.02971 17.4122 5.00995C17.3648 4.99019 17.3217 4.96123 17.2856 4.92476L15.0759 2.71511C14.9233 2.56253 14.9232 2.31519 15.0759 2.16253L16.3427 0.896092C16.3789 0.859809 16.422 0.831026 16.4694 0.81139C16.5167 0.791753 16.5675 0.781648 16.6188 0.781652C16.6701 0.781655 16.7209 0.791768 16.7683 0.811411C16.8156 0.831054 16.8587 0.859843 16.8949 0.896131L19.1046 3.10578C19.1409 3.14202 19.1697 3.18507 19.1893 3.23246C19.2089 3.27984 19.219 3.33063 19.219 3.38192C19.219 3.43322 19.2089 3.484 19.1893 3.53138C19.1696 3.57876 19.1408 3.6218 19.1045 3.65804Z" fill="#545454"/>
<path d="M10.2577 12.8496C10.2339 12.6352 10.0402 12.4813 9.82636 12.5044L8.79207 12.6192C8.44258 12.0247 7.73867 11.7788 7.1898 12.179C6.66422 12.5621 6.14457 12.7731 5.72656 12.7731H4.62152C4.54847 12.7731 4.47689 12.7936 4.41491 12.8323C4.35292 12.8709 4.30302 12.9262 4.27086 12.9918C4.2387 13.0574 4.22557 13.1307 4.23296 13.2034C4.24036 13.276 4.26798 13.3452 4.31269 13.4029C4.35695 13.4601 5.41148 14.8024 6.69328 14.8024C8.33058 14.8024 8.79734 14.1167 8.92988 13.708C8.96362 13.6029 8.98293 13.4938 8.9873 13.3835L9.91242 13.2808C10.1269 13.2571 10.2814 13.064 10.2577 12.8496ZM8.18683 13.467C8.07429 13.814 7.51601 14.0212 6.69336 14.0212C6.3039 14.0212 5.90469 13.8046 5.57832 13.5544H5.7266C6.47273 13.5544 7.18441 13.1497 7.65 12.8103L7.65008 12.8102C7.91062 12.6202 8.3048 13.1031 8.18683 13.467ZM5.45054 11.7877L6.00285 11.2353C6.15539 11.0827 6.15539 10.8354 6.00285 10.6828C5.85027 10.5303 5.60293 10.5303 5.45039 10.6828L4.89804 11.2352C4.74551 11.3878 4.74551 11.6351 4.89804 11.7877C5.0507 11.9402 5.29797 11.9402 5.45054 11.7877Z" fill="#545454"/>
</g>
<defs>
<clipPath id="clip0_393_12009">
<rect width="20" height="20" fill="white"/>
</clipPath>
</defs>
</svg>
