<svg width="20" height="20" viewBox="0 0 20 20" fill="none" xmlns="http://www.w3.org/2000/svg">
<g clip-path="url(#clip0_393_12057)">
<path d="M19.6668 9.06666C19.6668 13.7333 17.0002 19.6667 7.3335 19.6667C2.00016 19.6667 0.333496 17.6667 0.333496 16.6667C0.333496 15.6667 3.00016 16.6667 7.00016 16.3333C11.0402 15.9967 13.3335 14.0667 14.0002 9.39999C14.3268 7.10666 14.7702 6.11332 15.6368 5.69666C15.9172 5.71185 16.1911 5.78589 16.441 5.91396C16.6908 6.04203 16.9108 6.22126 17.0868 6.43999C17.1187 6.47378 17.157 6.50077 17.1996 6.51932C17.2421 6.53787 17.288 6.5476 17.3345 6.54791C17.3809 6.54822 17.4269 6.53911 17.4697 6.52114C17.5125 6.50316 17.5512 6.47669 17.5835 6.44332C17.7475 6.2431 17.9615 6.08984 18.2039 5.9991C18.4463 5.90836 18.7083 5.88336 18.9635 5.92666H18.9668C19.6668 6.69332 19.6668 8.12666 19.6668 9.06666Z" fill="#F44335"/>
<path d="M18.9665 5.92663H18.9632C18.6584 5.86845 18.3428 5.91943 18.0719 6.07063C18.6589 6.86196 18.6665 8.18029 18.6665 9.06663C18.6665 13.6613 16.0762 19.48 6.76953 19.6583C6.9532 19.6633 7.1402 19.6666 7.3332 19.6666C16.9999 19.6666 19.6665 13.7333 19.6665 9.06663C19.6665 8.12663 19.6665 6.69329 18.9665 5.92663Z" fill="#C81E1E"/>
<path d="M18.0002 2.66665V4.00665C17.9968 4.25331 18.1335 4.48098 18.3535 4.59331C19.0202 4.91665 19.0902 5.57998 19.3335 6.06665C19.2204 5.99888 19.0963 5.95149 18.9668 5.92665H18.9635C18.7083 5.88336 18.4463 5.90835 18.2039 5.99909C17.9615 6.08984 17.7475 6.2431 17.5835 6.44332C17.5512 6.47668 17.5125 6.50315 17.4697 6.52113C17.4269 6.53911 17.3809 6.54821 17.3344 6.5479C17.288 6.54759 17.2421 6.53787 17.1996 6.51932C17.157 6.50077 17.1187 6.47378 17.0868 6.43998C16.9108 6.22125 16.6908 6.04202 16.441 5.91395C16.1911 5.78588 15.9172 5.71184 15.6368 5.69665C15.5345 5.69442 15.4324 5.70676 15.3335 5.73332C15.5106 5.24777 15.8575 4.8428 16.3102 4.59331C16.4195 4.5381 16.511 4.45309 16.5741 4.34811C16.6372 4.24313 16.6694 4.12245 16.6668 3.99998V2.66665C16.6668 1.13665 17.4335 0.349981 18.9502 0.333315C19.1162 0.327084 19.2791 0.380437 19.4093 0.483741C19.5395 0.587045 19.6285 0.733494 19.6602 0.896648C19.6748 0.991835 19.6686 1.08905 19.6422 1.18165C19.6157 1.27424 19.5696 1.36003 19.5069 1.43314C19.4442 1.50626 19.3665 1.56498 19.2791 1.60528C19.1916 1.64558 19.0965 1.66651 19.0002 1.66665C18.1435 1.66665 18.0002 1.91665 18.0002 2.66665Z" fill="#60A917"/>
<path d="M9.82984 14.25C8.91091 14.6975 7.91072 14.9537 6.88984 15.0033C6.7565 15.0133 6.62317 15.0233 6.48984 15.03L6.33317 15C6.33317 15 4.6665 14.6666 4.6665 12.6666C4.6665 12.63 4.6665 12.5966 4.66984 12.5633C4.74984 10.6766 6.99317 10.9533 6.6665 8.33331C6.6665 8.33331 11.3665 9.89998 9.82984 14.25Z" fill="#FF9801"/>
<path d="M11.9235 11.9933C11.5036 12.9623 10.7649 13.7585 9.83018 14.2499C11.3668 9.89995 6.66685 8.33328 6.66685 8.33328C6.99352 10.9533 4.75018 10.6766 4.67018 12.5633H4.66685C4.10076 12.6305 3.52691 12.5513 3.00018 12.3333C3.00018 12.3333 1.33351 11.6666 2.00018 8.99995C2.00018 8.99995 2.66685 10.6666 4.00018 9.66661C4.44018 9.33661 4.51685 8.74995 4.42351 8.10995C4.21283 7.13151 3.84471 6.19375 3.33351 5.33328C3.33351 5.33328 7.33351 4.99995 9.33351 7.66661C9.33351 7.66661 10.3335 7.33328 10.0002 5.99995C10.0002 5.99995 12.0335 6.67661 12.1935 9.51661C12.2268 10.3509 12.1358 11.1856 11.9235 11.9933Z" fill="#FF5722"/>
<path d="M12.2168 9.51665H12.1934C12.0335 6.67665 10.0001 5.99998 10.0001 5.99998C10.3335 7.33331 9.33345 7.66665 9.33345 7.66665C7.33345 4.99998 3.33345 5.33331 3.33345 5.33331C3.84464 6.19379 4.21276 7.13154 4.42345 8.10998H4.42012C3.87505 8.33604 3.28802 8.44316 2.69824 8.42419C2.10846 8.40522 1.52953 8.2606 1.00012 7.99998C1.00012 7.99998 0.333449 7.66665 0.333449 6.33331C0.306783 5.14465 0.656783 3.97765 1.33345 2.99998C1.33345 2.99998 1.66678 3.99998 3.33345 3.99998C3.33345 3.99998 6.00012 3.99998 5.00012 0.333313C5.00012 0.333313 8.66678 1.33331 9.33345 4.33331C9.33345 4.33331 10.3335 3.99998 10.3335 1.99998C10.3335 1.99998 14.8101 3.49331 12.2168 9.51665Z" fill="#F44335"/>
<path d="M8.33333 4.33331C8.67353 4.16779 8.93493 3.87502 9.061 3.51831C7.99067 1.14965 5 0.333313 5 0.333313C5.041 0.483646 5.07367 0.625646 5.10267 0.763646C6.23967 1.30531 7.905 2.40631 8.33333 4.33331ZM10.3333 1.99998C10.3333 2.17998 10.3233 2.35998 10.304 2.53898C11.2797 3.26231 12.5373 4.81998 11.7993 7.80965C12.0344 8.34961 12.168 8.92828 12.1933 9.51665H12.2167C14.81 3.49331 10.3333 1.99998 10.3333 1.99998Z" fill="#C81E1E"/>
<path d="M19.6336 5.91805C19.5782 5.80171 19.5289 5.68255 19.4859 5.56105C19.4174 5.29364 19.2946 5.04319 19.1252 4.82528C18.9557 4.60737 18.7432 4.42665 18.5009 4.29439C18.4491 4.26681 18.406 4.22528 18.3766 4.1745C18.3471 4.12373 18.3325 4.06573 18.3343 4.00705V2.66672C18.3343 2.07572 18.3589 2.00005 19.0009 2.00005C19.1452 2.0001 19.2877 1.96895 19.4188 1.90874C19.5498 1.84852 19.6663 1.76067 19.7602 1.65121C19.8541 1.54174 19.9233 1.41326 19.9629 1.27457C20.0024 1.13588 20.0116 0.990268 19.9896 0.84772C19.9457 0.604847 19.8163 0.385751 19.6246 0.230215C19.433 0.0746786 19.192 -0.0069844 18.9453 5.35361e-05C17.2366 0.0197202 16.3336 0.94172 16.3336 2.66672V4.00005C16.3359 4.05874 16.3219 4.11692 16.2931 4.16813C16.2644 4.21933 16.2219 4.26153 16.1706 4.29005C15.6478 4.56975 15.2443 5.02983 15.0353 5.58472C15.0157 5.62646 15.0053 5.67194 15.0049 5.71805C14.3343 6.30339 13.9516 7.37939 13.6716 9.35405C13.0533 13.6734 11.0499 15.6614 6.9726 16.0001C5.51808 16.1029 4.05755 16.0853 2.60593 15.9474C1.3526 15.8524 0.595931 15.7951 0.219598 16.1437C0.147968 16.2103 0.0913559 16.2914 0.0535349 16.3816C0.0157139 16.4718 -0.00244653 16.569 0.000264423 16.6667C0.000264423 18.0067 1.95326 20.0001 7.3336 20.0001C19.0869 20.0001 20.0003 11.6334 20.0003 9.06672C20.0003 8.26672 19.9929 7.14072 19.5843 6.28039C19.6272 6.23152 19.6547 6.17109 19.6635 6.10665C19.6723 6.04221 19.6619 5.97662 19.6336 5.91805ZM16.4533 4.89439C16.6199 4.81254 16.7598 4.68499 16.8566 4.52664C16.9535 4.36829 17.0033 4.18565 17.0003 4.00005V2.66672C17.0003 1.31739 17.6206 0.682054 18.9529 0.66672C19.1283 0.660054 19.2849 0.776387 19.3296 0.946054C19.3374 0.993791 19.3348 1.04266 19.3218 1.08927C19.3089 1.13589 19.2859 1.17912 19.2546 1.21597C19.2233 1.25283 19.1843 1.28242 19.1404 1.3027C19.0964 1.32297 19.0486 1.33345 19.0003 1.33339C17.8849 1.33339 17.6669 1.82239 17.6669 2.66672V4.00739C17.6654 4.1912 17.7153 4.37177 17.8111 4.52865C17.9069 4.68553 18.0447 4.81246 18.2089 4.89505C18.4783 5.03643 18.6808 5.27877 18.7719 5.56905C18.5001 5.56699 18.231 5.62336 17.9828 5.73435C17.7347 5.84535 17.5133 6.00837 17.3336 6.21239C16.9674 5.77979 16.4625 5.48763 15.9049 5.38572C16.0361 5.17277 16.2259 5.00217 16.4516 4.89439H16.4533ZM7.3336 19.3334C2.2966 19.3334 0.666931 17.5367 0.666931 16.6667C0.666931 16.6554 0.667598 16.6444 0.669931 16.6334C0.796931 16.4784 1.76993 16.5524 2.55393 16.6117C4.04126 16.7534 5.5376 16.7717 7.02793 16.6667C11.4173 16.3001 13.6693 14.0747 14.3303 9.44805C14.6276 7.35939 15.0076 6.41839 15.7153 6.03405C16.1588 6.09215 16.5629 6.3187 16.8439 6.66672C16.9679 6.80239 17.1426 6.88039 17.3263 6.88239H17.3336C17.4242 6.882 17.5139 6.86356 17.5974 6.82813C17.6808 6.79271 17.7564 6.74101 17.8196 6.67605C17.936 6.5342 18.0831 6.42064 18.2498 6.34396C18.4165 6.26727 18.5985 6.22946 18.7819 6.23339C19.3286 6.92839 19.3336 8.20639 19.3336 9.06672C19.3336 11.4751 18.4669 19.3334 7.3336 19.3334Z" fill="#14171D"/>
<path d="M9.8235 14.295C9.86543 14.3077 9.90945 14.312 9.95305 14.3076C9.99664 14.3033 10.039 14.2904 10.0776 14.2697C10.1162 14.2489 10.1503 14.2208 10.178 14.1869C10.2058 14.153 10.2265 14.1139 10.2392 14.072C11.5668 9.67132 6.82016 8.03332 6.77216 8.01699C6.71873 7.99921 6.66167 7.99526 6.60629 8.0055C6.55092 8.01574 6.49904 8.03984 6.45551 8.07556C6.41197 8.11127 6.37819 8.15744 6.35732 8.20974C6.33645 8.26204 6.32917 8.31878 6.33616 8.37466C6.4975 9.66666 5.99283 10.1213 5.4085 10.648C4.9045 11.102 4.3335 11.6167 4.3335 12.6667C4.3335 14.4667 5.60016 15.193 6.26683 15.3267C6.35248 15.342 6.44074 15.3233 6.51275 15.2744C6.58476 15.2256 6.63482 15.1505 6.65223 15.0652C6.66964 14.98 6.65301 14.8913 6.60592 14.8181C6.55882 14.745 6.48498 14.6931 6.40016 14.6737C6.3435 14.6613 5.00016 14.357 5.00016 12.6667C5.00016 11.9133 5.37716 11.5733 5.8545 11.1433C6.38283 10.6673 7.02483 10.089 7.03216 8.84332C8.09883 9.33866 10.5212 10.8307 9.60083 13.8807C9.57561 13.9651 9.58489 14.0561 9.62662 14.1338C9.66835 14.2114 9.73914 14.2694 9.8235 14.295Z" fill="#14171D"/>
<path d="M7.06651 12.0066C6.97987 11.9893 6.88993 12.0072 6.81643 12.0562C6.74293 12.1052 6.69188 12.1813 6.67451 12.268C6.36151 13.8346 7.35251 14.5146 7.92017 14.6566C8.0046 14.6748 8.09278 14.6594 8.16613 14.6139C8.23948 14.5683 8.29228 14.496 8.31341 14.4123C8.33454 14.3285 8.32234 14.2399 8.2794 14.165C8.23645 14.09 8.1661 14.0347 8.08317 14.0106C7.97851 13.9826 7.06684 13.6983 7.32651 12.3986C7.34381 12.3122 7.32617 12.2224 7.27744 12.1489C7.22872 12.0755 7.15287 12.0243 7.06651 12.0066Z" fill="#14171D"/>
<path d="M11.9305 11.9927C11.9733 12.0018 12.0175 12.0024 12.0605 11.9945C12.1036 11.9866 12.1447 11.9702 12.1814 11.9464C12.2181 11.9226 12.2498 11.8918 12.2747 11.8558C12.2995 11.8197 12.317 11.7791 12.3261 11.7363C13.3765 6.83465 10.1385 5.69465 10.1055 5.68365C10.0488 5.66477 9.98807 5.66147 9.92967 5.6741C9.87128 5.68673 9.81735 5.71482 9.77353 5.75543C9.72971 5.79605 9.69761 5.8477 9.6806 5.90497C9.66358 5.96224 9.66227 6.02303 9.67681 6.08099C9.84347 6.75099 9.61014 7.08532 9.41881 7.23832C7.28881 4.70165 3.47147 4.98699 3.30581 4.99999C3.24938 5.00471 3.19508 5.02374 3.14805 5.05527C3.10101 5.08679 3.06278 5.12979 3.03696 5.18018C3.01115 5.23058 2.9986 5.28673 3.00049 5.34332C3.00239 5.39992 3.01867 5.4551 3.04781 5.50365C3.52581 6.30299 4.69081 8.73332 3.80014 9.39999C3.69766 9.49597 3.57427 9.56683 3.43972 9.60697C3.30517 9.64712 3.16313 9.65545 3.02481 9.63132C2.69639 9.48341 2.43949 9.21202 2.30981 8.87599C2.28373 8.81037 2.2375 8.75474 2.17777 8.71709C2.11804 8.67945 2.0479 8.66174 1.97746 8.66652C1.90702 8.67131 1.83992 8.69833 1.78582 8.7437C1.73173 8.78908 1.69344 8.85045 1.67647 8.91899C0.947807 11.8333 2.85681 12.635 2.87614 12.643C2.91672 12.6595 2.96015 12.6678 3.00396 12.6676C3.04776 12.6673 3.09108 12.6584 3.13144 12.6413C3.17181 12.6243 3.20842 12.5995 3.2392 12.5683C3.26997 12.5372 3.2943 12.5002 3.31081 12.4597C3.32731 12.4191 3.33566 12.3756 3.33538 12.3318C3.33509 12.288 3.32619 12.2447 3.30916 12.2043C3.29214 12.164 3.26733 12.1274 3.23616 12.0966C3.20498 12.0658 3.16805 12.0415 3.12747 12.025C3.07781 12.004 2.05281 11.548 2.18947 9.87132C2.36934 10.0588 2.59463 10.1966 2.84347 10.2713C3.08018 10.3272 3.32681 10.3257 3.56281 10.2669C3.79881 10.2081 4.01733 10.0937 4.20014 9.93332C5.43714 9.00565 4.43781 6.69999 3.89381 5.65532C5.01214 5.67432 7.61947 5.93699 9.06681 7.86665C9.10876 7.92262 9.16727 7.96398 9.23403 7.98486C9.3008 8.00574 9.37244 8.00508 9.43881 7.98299C9.72144 7.87513 9.96467 7.68402 10.1363 7.43492C10.308 7.18583 10.4 6.8905 10.4001 6.58799C11.1391 7.09999 12.3488 8.44999 11.6745 11.597C11.656 11.6834 11.6726 11.7736 11.7206 11.8478C11.7686 11.922 11.8441 11.9741 11.9305 11.9927Z" fill="#14171D"/>
<path d="M0.851217 8.29997C0.928864 8.33718 1.0179 8.3429 1.09967 8.31594C1.18144 8.28897 1.2496 8.23141 1.28988 8.1553C1.32995 8.07773 1.33845 7.98766 1.3136 7.90397C1.28874 7.82027 1.23246 7.74944 1.15655 7.7063C1.13722 7.6943 0.666883 7.41297 0.666883 6.3333C0.643268 5.38213 0.878291 4.44238 1.34688 3.61431C1.66488 3.95231 2.26122 4.3333 3.33355 4.3333C3.66734 4.32262 3.99491 4.24019 4.294 4.09162C4.5931 3.94305 4.8567 3.73182 5.06688 3.4723C5.54088 2.85197 5.67355 1.9723 5.46322 0.848638C6.46888 1.25097 8.54622 2.3193 9.00988 4.40564C9.02 4.45119 9.03957 4.4941 9.06731 4.53161C9.09506 4.56912 9.13038 4.60038 9.17097 4.62338C9.21157 4.64638 9.25654 4.6606 9.30297 4.66513C9.34941 4.66965 9.39628 4.66437 9.44055 4.64964C9.48688 4.63431 10.4842 4.2803 10.6465 2.5063C11.4035 2.91797 12.9022 4.06664 12.6669 6.6363C12.6629 6.68008 12.6676 6.72421 12.6806 6.76618C12.6937 6.80814 12.7149 6.84712 12.7431 6.88089C12.7999 6.94909 12.8815 6.99193 12.9699 6.99997C13.0583 7.00802 13.1463 6.98061 13.2145 6.92379C13.2827 6.86697 13.3255 6.78538 13.3335 6.69697C13.6869 2.8123 10.4729 1.69464 10.4402 1.68364C10.39 1.66669 10.3365 1.66194 10.2841 1.66979C10.2317 1.67765 10.182 1.69787 10.139 1.7288C10.096 1.75972 10.0609 1.80045 10.0368 1.84761C10.0127 1.89477 10.0001 1.947 10.0002 1.99997C10.0002 2.99997 9.74122 3.5173 9.52322 3.77664C8.57388 0.992971 5.23722 0.0523048 5.08788 0.0116382C5.03118 -0.00383575 4.9714 -0.00404298 4.91459 0.0110375C4.85779 0.0261179 4.80598 0.0559499 4.76442 0.097509C4.72286 0.139068 4.69303 0.190877 4.67795 0.247683C4.66287 0.304488 4.66308 0.364272 4.67855 0.420972C5.00522 1.61897 4.95855 2.5073 4.53988 3.06164C4.39191 3.2408 4.20821 3.38714 4.0005 3.49131C3.79279 3.59548 3.56564 3.65519 3.33355 3.66664C1.95255 3.66664 1.65988 2.9213 1.64988 2.89464C1.63018 2.83541 1.59424 2.7829 1.54616 2.74309C1.49808 2.70328 1.43979 2.67777 1.37792 2.66947C1.31605 2.66117 1.2531 2.6704 1.19622 2.69613C1.13935 2.72185 1.09084 2.76303 1.05622 2.81497C0.344547 3.84827 -0.0248154 5.07889 0.000216695 6.3333C0.000216695 7.8293 0.764217 8.25464 0.851217 8.29997Z" fill="#14171D"/>
<path d="M15.1972 10.6666C15.148 10.6667 15.0994 10.6559 15.0549 10.6349C15.0103 10.614 14.971 10.5834 14.9397 10.5455C14.9083 10.5075 14.8858 10.4631 14.8737 10.4154C14.8616 10.3677 14.8602 10.3179 14.8696 10.2696C14.9156 10.0346 14.9546 9.78996 14.9902 9.54229C14.9965 9.49895 15.0112 9.45727 15.0336 9.41963C15.0559 9.38199 15.0855 9.34912 15.1206 9.3229C15.1556 9.29669 15.1955 9.27763 15.238 9.26683C15.2804 9.25603 15.3246 9.2537 15.3679 9.25996C15.4112 9.26622 15.4529 9.28095 15.4905 9.30332C15.5282 9.32568 15.5611 9.35525 15.5873 9.39032C15.6135 9.42538 15.6325 9.46528 15.6433 9.50771C15.6541 9.55014 15.6565 9.59429 15.6502 9.63762C15.6141 9.89169 15.5719 10.1449 15.5239 10.397C15.5091 10.4728 15.4685 10.5412 15.4089 10.5903C15.3493 10.6395 15.2745 10.6665 15.1972 10.6666ZM12.0206 16.36C11.9502 16.3601 11.8817 16.338 11.8247 16.2969C11.7677 16.2557 11.7252 16.1976 11.7032 16.1308C11.6812 16.064 11.681 15.992 11.7024 15.925C11.7238 15.858 11.7659 15.7996 11.8226 15.758C13.1152 14.807 14.0109 13.4376 14.5606 11.5723C14.5724 11.5297 14.5926 11.4899 14.62 11.4552C14.6474 11.4205 14.6814 11.3916 14.7201 11.3702C14.7587 11.3488 14.8013 11.3353 14.8452 11.3304C14.8891 11.3256 14.9336 11.3296 14.976 11.3421C15.0184 11.3546 15.0579 11.3754 15.0921 11.4033C15.1264 11.4312 15.1548 11.4657 15.1756 11.5046C15.1965 11.5436 15.2093 11.5864 15.2135 11.6304C15.2177 11.6744 15.213 11.7188 15.1999 11.761C14.6076 13.7713 13.6332 15.2543 12.2179 16.2943C12.1608 16.3367 12.0917 16.3597 12.0206 16.36Z" fill="#F5F5F5"/>
</g>
<defs>
<clipPath id="clip0_393_12057">
<rect width="20" height="20" fill="white"/>
</clipPath>
</defs>
</svg>
