<svg width="20" height="20" viewBox="0 0 20 20" fill="none" xmlns="http://www.w3.org/2000/svg">
<path d="M10.0664 6.3052C10.0664 6.3052 10.0664 2.75845 15.5836 0.393951C15.5836 0.393951 14.0072 5.91112 10.0664 6.3052Z" fill="#CEDC8B"/>
<path d="M10.0664 6.69928C9.96193 6.69928 9.86169 6.65776 9.78779 6.58386C9.71388 6.50995 9.67236 6.40972 9.67236 6.3052C9.67236 6.14954 9.73778 2.47077 15.4283 0.031786C15.4968 0.00247496 15.5722 -0.00682357 15.6458 0.0049689C15.7193 0.0167614 15.788 0.0491617 15.8439 0.0984131C15.8998 0.147664 15.9406 0.21175 15.9616 0.283238C15.9825 0.354727 15.9828 0.43069 15.9623 0.502321C15.8953 0.738771 14.265 6.28116 10.1059 6.69731C10.0928 6.69874 10.0796 6.6994 10.0664 6.69928ZM14.894 1.14901C11.5703 2.82426 10.738 4.90857 10.5299 5.82954C12.931 5.26915 14.3225 2.56141 14.894 1.14901Z" fill="#545454"/>
<path d="M10.0666 6.69929C9.99421 6.69923 9.92326 6.67924 9.8615 6.64151C9.79975 6.60379 9.74957 6.54979 9.71647 6.48543C9.68338 6.42107 9.66865 6.34884 9.67389 6.27667C9.67913 6.20449 9.70414 6.13515 9.74619 6.07625C9.82895 5.96039 11.7923 3.2286 13.4376 2.40576C13.5311 2.35904 13.6394 2.35139 13.7386 2.3845C13.7877 2.40089 13.8331 2.4268 13.8722 2.46074C13.9113 2.49468 13.9433 2.53599 13.9664 2.58231C13.9896 2.62862 14.0033 2.67904 14.007 2.73069C14.0106 2.78233 14.0041 2.83419 13.9877 2.8833C13.9713 2.93241 13.9454 2.97781 13.9114 3.0169C13.8775 3.056 13.8362 3.08803 13.7899 3.11116C12.3199 3.84574 10.4067 6.50737 10.3874 6.53457C10.3509 6.58557 10.3027 6.62712 10.2469 6.65577C10.1911 6.68442 10.1293 6.69934 10.0666 6.69929Z" fill="#545454"/>
<path d="M10.0665 6.3052C10.0665 6.3052 10.0665 2.75845 4.54932 0.393951C4.54932 0.393951 6.12565 5.91112 10.0665 6.3052Z" fill="#CEDC8B"/>
<path d="M10.0663 6.69928C10.0532 6.70006 10.04 6.70006 10.0269 6.69928C5.86775 6.28116 4.23742 0.737983 4.17043 0.502321C4.14997 0.43069 4.15023 0.354727 4.17118 0.283238C4.19214 0.21175 4.23293 0.147664 4.28882 0.0984131C4.34471 0.0491617 4.41342 0.0167614 4.48697 0.0049689C4.56053 -0.00682357 4.63592 0.00247496 4.70441 0.031786C10.395 2.47077 10.4604 6.14954 10.4604 6.3052C10.4604 6.40972 10.4189 6.50995 10.345 6.58386C10.2711 6.65776 10.1708 6.69928 10.0663 6.69928ZM5.2384 1.14822C5.81021 2.56141 7.2029 5.27191 9.6072 5.8323C9.40661 4.90817 8.58653 2.83214 5.2384 1.14822Z" fill="#545454"/>
<path d="M10.8547 19.31C10.7622 19.3099 10.6726 19.2772 10.6017 19.2177C10.5308 19.1582 10.4831 19.0756 10.467 18.9844C10.4551 18.9175 9.30009 12.2787 9.66461 6.42265C9.28235 5.90719 7.6406 3.75943 6.34407 3.11235C6.29775 3.08921 6.25644 3.05718 6.2225 3.01809C6.18856 2.97899 6.16266 2.93359 6.14626 2.88448C6.12987 2.83537 6.12331 2.78351 6.12696 2.73187C6.1306 2.68023 6.14439 2.6298 6.16752 2.58349C6.19065 2.53717 6.22268 2.49586 6.26178 2.46192C6.30088 2.42798 6.34628 2.40208 6.39538 2.38568C6.44449 2.36929 6.49635 2.36273 6.548 2.36637C6.59964 2.37002 6.65006 2.3838 6.69638 2.40694C8.34168 3.22978 10.305 5.96157 10.3878 6.07743C10.4406 6.1515 10.4663 6.24159 10.4603 6.3324C10.0741 12.1254 11.2315 18.7819 11.2433 18.8485C11.2523 18.8995 11.2512 18.9517 11.24 19.0023C11.2289 19.0528 11.2078 19.1007 11.1781 19.1431C11.1485 19.1855 11.1107 19.2216 11.0671 19.2495C11.0234 19.2773 10.9747 19.2962 10.9237 19.3052C10.9009 19.3087 10.8778 19.3103 10.8547 19.31Z" fill="#545454"/>
<path d="M10.0665 12.2251C10.0665 12.2251 9.6724 7.88153 18.7363 6.69928C18.7363 6.69928 16.3718 13.7928 10.0665 12.2251Z" fill="#ACB774"/>
<path d="M11.8297 12.847C11.203 12.8444 10.579 12.765 9.97163 12.6105C9.89215 12.5908 9.82079 12.5468 9.76747 12.4847C9.71415 12.4225 9.68151 12.3453 9.6741 12.2637C9.65636 12.071 9.35292 7.52882 18.6856 6.31307C18.7518 6.30443 18.8191 6.31276 18.8812 6.33727C18.9434 6.36179 18.9982 6.40168 19.0407 6.45321C19.0832 6.50474 19.1118 6.56621 19.124 6.63186C19.1362 6.69752 19.1315 6.76519 19.1104 6.82853C19.088 6.8908 17.036 12.847 11.8297 12.847ZM10.478 11.9162C15.1341 12.8706 17.4167 8.78792 18.1205 7.18715C11.5338 8.21413 10.6053 11.0188 10.478 11.9146V11.9162Z" fill="#545454"/>
<path d="M10.0664 12.6188C9.99163 12.6188 9.91837 12.5975 9.85522 12.5574C9.79206 12.5173 9.74163 12.4601 9.7098 12.3924C9.67798 12.3247 9.66608 12.2493 9.6755 12.1751C9.68492 12.1009 9.71526 12.0309 9.76299 11.9733C9.84693 11.8728 11.856 9.49491 15.8646 8.29217C15.9142 8.27731 15.9662 8.27237 16.0177 8.27762C16.0692 8.28287 16.1191 8.29821 16.1647 8.32277C16.2102 8.34732 16.2505 8.38061 16.2832 8.42073C16.3159 8.46085 16.3404 8.50702 16.3552 8.5566C16.3701 8.60617 16.375 8.65819 16.3698 8.70968C16.3645 8.76117 16.3492 8.81112 16.3246 8.85668C16.3001 8.90224 16.2668 8.94252 16.2267 8.97521C16.1865 9.00791 16.1404 9.03238 16.0908 9.04723C13.912 9.65922 11.9366 10.843 10.3695 12.4758C10.3326 12.5204 10.2863 12.5564 10.2339 12.5811C10.1815 12.6058 10.1244 12.6187 10.0664 12.6188Z" fill="#545454"/>
<path d="M10.0644 12.2251C10.0644 12.2251 10.4584 7.88153 1.39453 6.69928C1.39453 6.69928 3.75903 13.7928 10.0644 12.2251Z" fill="#ACB774"/>
<path d="M8.30094 12.847C3.09391 12.847 1.04192 6.8908 1.02025 6.8238C0.999119 6.76046 0.994433 6.69279 1.00663 6.62714C1.01883 6.56148 1.0475 6.50001 1.08997 6.44848C1.13244 6.39695 1.18731 6.35706 1.24942 6.33254C1.31153 6.30803 1.37885 6.2997 1.44507 6.30834C10.7758 7.52685 10.4739 12.0679 10.4566 12.2606C10.4492 12.3421 10.4165 12.4193 10.3632 12.4815C10.3099 12.5436 10.2385 12.5876 10.159 12.6074C9.55176 12.7627 8.92776 12.8432 8.30094 12.847ZM2.01018 7.18557C2.71362 8.78634 4.99379 12.8671 9.65225 11.9146C9.52535 11.0188 8.59689 8.21413 2.01018 7.18557Z" fill="#545454"/>
<path d="M10.0641 12.6188C10.0064 12.6189 9.94924 12.6063 9.89687 12.5818C9.8445 12.5574 9.79815 12.5217 9.7611 12.4773C8.194 10.8446 6.21861 9.6608 4.0398 9.04882C3.99022 9.03396 3.94405 9.00949 3.90393 8.9768C3.86381 8.9441 3.83052 8.90383 3.80597 8.85827C3.78141 8.81271 3.76607 8.76276 3.76082 8.71127C3.75557 8.65978 3.76051 8.60776 3.77537 8.55818C3.79022 8.50861 3.81469 8.46244 3.84739 8.42232C3.88008 8.3822 3.92036 8.34891 3.96592 8.32436C4.01148 8.2998 4.06143 8.28446 4.11292 8.27921C4.1644 8.27396 4.21642 8.2789 4.266 8.29375C8.27462 9.4965 10.2837 11.8744 10.3672 11.9749C10.4149 12.0325 10.4452 12.1024 10.4547 12.1766C10.4641 12.2508 10.4522 12.3261 10.4205 12.3938C10.3887 12.4615 10.3383 12.5187 10.2752 12.5588C10.2121 12.599 10.1389 12.6203 10.0641 12.6204V12.6188Z" fill="#545454"/>
</svg>
