<svg width="32" height="26" viewBox="0 0 32 26" fill="none" xmlns="http://www.w3.org/2000/svg">
<path d="M16 0C7.16344 0 0 7.16344 0 16H32C32 7.16344 24.8366 0 16 0Z" fill="white"/>
<g clip-path="url(#clip0_339_34217)">
<path d="M16 4C9.92486 4 5 8.92486 5 15C5 21.0751 9.92486 26 16 26C22.0751 26 27 21.0751 27 15C26.9935 8.92758 22.0724 4.00649 16 4ZM20.6325 15.3505C20.5564 15.5032 20.4325 15.6271 20.2798 15.7032V15.7071L13.9941 18.85C13.6059 19.0439 13.134 18.8865 12.94 18.4984C12.8848 18.388 12.8564 18.2662 12.8571 18.1428V11.8572C12.8569 11.4232 13.2085 11.0713 13.6425 11.0711C13.7645 11.071 13.8849 11.0994 13.9941 11.1539L20.2798 14.2968C20.6681 14.4903 20.8261 14.9621 20.6325 15.3505Z" fill="#F36C2F"/>
</g>
<defs>
<clipPath id="clip0_339_34217">
<rect width="22" height="22" fill="white" transform="translate(5 4)"/>
</clipPath>
</defs>
</svg>
